<svg xmlns="http://www.w3.org/2000/svg" xmlns:svg="http://www.w3.org/2000/svg" id="svg38" width="182.8" height="130.1" version="1.1"><defs id="defs8"><marker style="overflow:visible" id="id02" orient="auto"><path style="fill:#999;stroke:#999;stroke-width:1pt" id="path2" d="M 0,0 5,-5 -12.5,0 5,5 Z" transform="matrix(0.4,0,0,0.4,4,0)"/></marker><marker style="overflow:visible" id="id01" orient="auto"><path style="fill:#daa527;stroke:#daa527;stroke-width:1pt" id="path5" d="M 0,0 5,-5 -12.5,0 5,5 Z" transform="matrix(0.4,0,0,0.4,4,0)"/></marker></defs><path style="fill:none;stroke:#daa527;stroke-width:2;marker-start:url(#id01)" id="path10" d="m 31.09,6.642 44.9,7.3"/><text style="font-style:italic;font-size:20.5px;font-family:'Comic Sans MS';text-align:center;text-anchor:middle;fill:#daa527;stroke-width:2" id="text12" x="126.8" y="23.236" transform="scale(1.02813,0.97264)">Remember</text><text style="font-style:italic;font-size:20.5px;font-family:'Comic Sans MS';text-align:center;text-anchor:middle;fill:#999;stroke-width:2" id="text14" x="113.367" y="126.769" transform="scale(1.01953,0.980845)">Clear space</text><text style="color:#000;font-size:17.8px;font-family:'Comic Sans MS';overflow:visible;fill:#daa737;stroke-width:.84px" id="text16" x="17.29" y="13.542">1</text><text style="color:#000;font-size:24px;font-family:'Comic Sans MS';overflow:visible;fill:#3b5fff;stroke-width:1px" id="text18" x="21.19" y="33.042">1</text><text style="color:#000;font-size:24px;font-family:'Comic Sans MS';overflow:visible;fill:#3b5fff;stroke-width:1px" id="text20" x="34.29" y="32.642">6</text><text style="color:#000;font-size:21.3px;font-family:'Comic Sans MS';overflow:visible;fill:#3b5fff;stroke-width:1px" id="text22" x="3.09" y="57.642">+</text><text style="color:#000;font-size:24px;font-family:'Comic Sans MS';overflow:visible;fill:#daa737;stroke-width:1px" id="text24" x="34.29" y="86.742">2</text><path style="fill:none;stroke:#005c94;stroke-width:1.6" id="path26" d="m -0.01,65.142 h 53"/><path style="fill:none;stroke:#005c94;stroke-width:1.6" id="path28" d="m -0.01,90.642 h 53"/><text style="color:#000;font-size:24px;font-family:'Comic Sans MS';overflow:visible;fill:#3b5fff;stroke-width:1px" id="text30" x="21.19" y="58.542">1</text><text style="color:#000;font-size:24px;font-family:'Comic Sans MS';overflow:visible;fill:#3b5fff;stroke-width:1px" id="text32" x="34.29" y="58.142">6</text><path style="fill:#999;stroke:#999;stroke-width:2;marker-start:url(#id02)" id="path34" d="m 24.89,88.942 30.5,28.4"/></svg>