<svg xmlns="http://www.w3.org/2000/svg" xmlns:svg="http://www.w3.org/2000/svg" xmlns:xlink="http://www.w3.org/1999/xlink" id="svg8" width="264.66" height="264.66" version="1.1" viewBox="0 0 264.66 264.66"><defs id="defs2"><linearGradient id="linearGradient885"><stop style="stop-color:#ff1928;stop-opacity:1" id="stop881" offset="0"/><stop id="stop889" offset=".479" style="stop-color:#a4a4a4;stop-opacity:1"/><stop style="stop-color:#a2deff;stop-opacity:1" id="stop883" offset="1"/></linearGradient><linearGradient id="linearGradient887" x1="-1266.31" x2="-490.513" y1="-489.65" y2="-489.65" gradientTransform="matrix(0.709635,0,0,1,-32.4699,1083.2)" gradientUnits="userSpaceOnUse" xlink:href="#linearGradient885"/></defs><metadata id="metadata5"/><g id="layer1" transform="translate(1140.05,847.243)"><rect style="color:#000;clip-rule:nonzero;display:inline;overflow:visible;visibility:visible;opacity:1;isolation:auto;mix-blend-mode:normal;color-interpolation:sRGB;color-interpolation-filters:linearRGB;solid-color:#000;solid-opacity:1;vector-effect:none;fill:#19aeff;fill-opacity:1;fill-rule:nonzero;stroke:none;stroke-width:4.707119;stroke-linecap:butt;stroke-linejoin:miter;stroke-miterlimit:4;stroke-dasharray:none;stroke-dashoffset:0;stroke-opacity:1;marker:none;marker-start:none;marker-mid:none;marker-end:none;color-rendering:auto;image-rendering:auto;shape-rendering:auto;text-rendering:auto;enable-background:accumulate" id="rect877" width="264.66" height="264.66" x="-1140.05" y="-847.243" ry="18.962"/><rect style="color:#000;clip-rule:nonzero;display:inline;overflow:visible;visibility:visible;opacity:1;isolation:auto;mix-blend-mode:normal;color-interpolation:sRGB;color-interpolation-filters:linearRGB;solid-color:#000;solid-opacity:1;vector-effect:none;fill:#f3f2f9;fill-opacity:1;fill-rule:nonzero;stroke:#000;stroke-width:2.217063;stroke-linecap:butt;stroke-linejoin:miter;stroke-miterlimit:4;stroke-dasharray:none;stroke-dashoffset:0;stroke-opacity:1;marker:none;marker-start:none;marker-mid:none;marker-end:none;color-rendering:auto;image-rendering:auto;shape-rendering:auto;text-rendering:auto;enable-background:accumulate" id="rect1183" width="217.523" height="57.369" x="-1116.71" y="-794.604"/><rect id="rect1185" width="217.523" height="57.369" x="-1115.38" y="-699.65" style="color:#000;clip-rule:nonzero;display:inline;overflow:visible;visibility:visible;opacity:1;isolation:auto;mix-blend-mode:normal;color-interpolation:sRGB;color-interpolation-filters:linearRGB;solid-color:#000;solid-opacity:1;vector-effect:none;fill:#f3f2f9;fill-opacity:1;fill-rule:nonzero;stroke:#000;stroke-width:2.217063;stroke-linecap:butt;stroke-linejoin:miter;stroke-miterlimit:4;stroke-dasharray:none;stroke-dashoffset:0;stroke-opacity:1;marker:none;marker-start:none;marker-mid:none;marker-end:none;color-rendering:auto;image-rendering:auto;shape-rendering:auto;text-rendering:auto;enable-background:accumulate"/><g id="g1125" transform="matrix(0.418314,0,0,0.418314,-538.242,-579.472)"><g id="g951" transform="translate(26,2.6735)"><path style="fill:#000" id="path922" d="m -1260.7,-401.447 c 0.64,-0.7 2.71,-2.89 4.59,-4.87 l 3.42,-3.59 h 32.52 l 3.42,3.59 c 1.88,1.98 3.95,4.17 4.59,4.87 l 1.17,1.27 h -50.88 z"/><path style="fill:#000" id="path924" d="m -1263.04,-420.377 v -19.479 l 2.34,-2.228 2.35,-2.227 0.78,0.703 c 0.43,0.387 1.64,1.538 2.7,2.557 l 1.93,1.852 v 13.902 13.91 l -3.28,3.42 c -1.8,1.88 -4.07,4.25 -5.04,5.25 l -1.77,1.83 z"/><path style="fill:#000" id="path926" d="m -1214.9,-406.167 -5.01,-5.22 v -27.812 l 1.92,-1.852 c 1.06,-1.019 2.28,-2.17 2.7,-2.558 l 0.78,-0.704 2.36,2.256 2.35,2.257 v 19.423 19.43 z"/><path style="fill:#000" id="path928" d="m -1260.69,-448.342 -2.35,-2.249 v -19.268 -19.267 l 5.01,4.783 5.01,4.783 v 28.339 l -2.7,2.564 -2.7,2.564 z"/><path style="fill:#000" id="path930" d="m -1217.23,-448.68 -2.7,-2.587 v -14.14 -14.14 l 3.46,-3.306 c 1.91,-1.818 4.18,-4.002 5.05,-4.854 l 1.58,-1.548 v 38.673 l -2.36,2.245 -2.35,2.244 z"/><path style="fill:#000" id="path932" d="m -1257.11,-485.282 -5.08,-4.835 12.82,-0.04 c 7.06,-0.02 18.65,-0.02 25.77,0 l 12.93,0.04 -5.08,4.835 -5.08,4.835 h -31.2 z"/></g><g id="g943" transform="translate(-377.386,-36.9415)"><path style="fill:#000" id="path934" d="m -737.634,-366.167 -5,-5.22 -0.01,-13.91 v -13.902 l 1.93,-1.852 c 1.05,-1.019 2.27,-2.17 2.7,-2.558 l 0.78,-0.704 2.35,2.256 2.35,2.257 -0.05,19.423 -0.05,19.43 z"/><path style="fill:#000" id="path936" d="m -739.964,-408.68 -2.69,-2.587 v -14.14 l 0.01,-14.14 3.47,-3.306 c 1.9,-1.818 4.17,-4.002 5.04,-4.854 l 1.59,-1.548 v 38.673 l -2.36,2.245 -2.36,2.244 z"/><path style="fill:#000" id="path938" d="m -779.844,-445.282 -5.08,-4.835 12.83,-0.04 c 7.05,-0.02 18.64,-0.02 25.76,0 l 12.94,0.04 -5.08,4.835 -5.09,4.835 h -31.19 z"/></g><g id="g959" transform="translate(-303.081,-36.9415)"><path id="path953" d="m -737.634,-366.167 -5,-5.22 -0.01,-13.91 v -13.902 l 1.93,-1.852 c 1.05,-1.019 2.27,-2.17 2.7,-2.558 l 0.78,-0.704 2.35,2.256 2.35,2.257 -0.05,19.423 -0.05,19.43 z" style="fill:#000"/><path id="path955" d="m -739.964,-408.68 -2.69,-2.587 v -14.14 l 0.01,-14.14 3.47,-3.306 c 1.9,-1.818 4.17,-4.002 5.04,-4.854 l 1.59,-1.548 v 38.673 l -2.36,2.245 -2.36,2.244 z" style="fill:#000"/><path id="path957" d="m -779.844,-445.282 -5.08,-4.835 12.83,-0.04 c 7.05,-0.02 18.64,-0.02 25.76,0 l 12.94,0.04 -5.08,4.835 -5.09,4.835 h -31.19 z" style="fill:#000"/></g><g id="g976" transform="translate(-32.4983,-0.1835)"><path style="fill:#000" id="path961" d="m -979.716,-398.59 c 0.64,-0.7 2.71,-2.89 4.59,-4.87 l 3.43,-3.59 h 32.51 l 3.43,3.59 c 1.88,1.98 3.95,4.17 4.59,4.87 l 1.17,1.27 h -50.89 z"/><path style="fill:#000" id="path963" d="m -933.916,-403.31 -5,-5.22 v -13.91 -13.902 l 1.93,-1.852 c 1.05,-1.019 2.27,-2.17 2.7,-2.558 l 0.78,-0.704 2.35,2.256 2.35,2.257 -0.1,19.423 v 19.43 z"/><path style="fill:#000" id="path965" d="m -973.716,-439.81 -2.7,-2.61 2.67,-2.524 2.67,-2.524 h 31.27 l 2.67,2.524 2.67,2.524 -2.7,2.61 -2.7,2.609 h -31.15 z"/><path style="fill:#000" id="path967" d="m -936.246,-445.823 -2.69,-2.587 v -14.14 -14.14 l 3.47,-3.306 c 1.9,-1.818 4.17,-4.002 5.04,-4.854 l 1.59,-1.548 v 38.673 l -2.36,2.245 -2.36,2.244 z"/><path style="fill:#000" id="path969" d="m -976.126,-482.425 -5.08,-4.835 12.83,-0.04 c 7.05,-0.02 18.64,-0.02 25.76,0 l 12.94,0.04 -5.08,4.835 -5.09,4.835 h -31.19 z"/></g><g id="g992" transform="translate(-66.926,8.314)"><path style="fill:#000" id="path978" d="m -824.751,-411.881 -5.01,-5.22 v -27.812 l 1.92,-1.852 c 1.06,-1.019 2.28,-2.17 2.7,-2.558 l 0.78,-0.704 2.36,2.256 2.35,2.257 -0.05,19.423 -0.05,19.43 z"/><path style="fill:#000" id="path980" d="m -864.551,-448.381 -2.701,-2.61 2.671,-2.524 2.671,-2.524 h 31.265 l 2.68,2.524 2.67,2.524 -2.71,2.61 -2.7,2.609 h -31.145 z"/><path style="fill:#000" id="path982" d="m -870.541,-454.056 -2.354,-2.249 0.04,-19.268 0.04,-19.267 5.007,4.783 5.006,4.783 v 28.339 l -2.696,2.564 -2.696,2.564 z"/><path style="fill:#000" id="path984" d="m -827.081,-454.394 -2.7,-2.587 0.01,-14.14 0.01,-14.14 3.46,-3.306 c 1.91,-1.818 4.18,-4.002 5.05,-4.854 l 1.58,-1.548 v 38.673 l -2.36,2.245 -2.35,2.244 z"/></g><path id="path994" d="m -1170.76,-398.951 -2.69,-2.587 v -8.329 l 5.09,-4.377 c 2.96,2.675 5.01,4.618 5.01,4.618 v 8.773 l -2.36,2.245 -2.36,2.244 z" style="fill:#000"/></g><g id="g1181" transform="matrix(-0.418314,0,0,-0.418314,-1474.26,-855.445)"><g id="g1139" transform="translate(26,2.6735)"><path id="path1127" d="m -1260.7,-401.447 c 0.64,-0.7 2.71,-2.89 4.59,-4.87 l 3.42,-3.59 h 32.52 l 3.42,3.59 c 1.88,1.98 3.95,4.17 4.59,4.87 l 1.17,1.27 h -50.88 z" style="fill:#000"/><path id="path1129" d="m -1263.04,-420.377 v -19.479 l 2.34,-2.228 2.35,-2.227 0.78,0.703 c 0.43,0.387 1.64,1.538 2.7,2.557 l 1.93,1.852 v 13.902 13.91 l -3.28,3.42 c -1.8,1.88 -4.07,4.25 -5.04,5.25 l -1.77,1.83 z" style="fill:#000"/><path id="path1131" d="m -1214.9,-406.167 -5.01,-5.22 v -27.812 l 1.92,-1.852 c 1.06,-1.019 2.28,-2.17 2.7,-2.558 l 0.78,-0.704 2.36,2.256 2.35,2.257 v 19.423 19.43 z" style="fill:#000"/><path id="path1133" d="m -1260.69,-448.342 -2.35,-2.249 v -19.268 -19.267 l 5.01,4.783 5.01,4.783 v 28.339 l -2.7,2.564 -2.7,2.564 z" style="fill:#000"/><path id="path1135" d="m -1217.23,-448.68 -2.7,-2.587 v -14.14 -14.14 l 3.46,-3.306 c 1.91,-1.818 4.18,-4.002 5.05,-4.854 l 1.58,-1.548 v 38.673 l -2.36,2.245 -2.35,2.244 z" style="fill:#000"/><path id="path1137" d="m -1257.11,-485.282 -5.08,-4.835 12.82,-0.04 c 7.06,-0.02 18.65,-0.02 25.77,0 l 12.93,0.04 -5.08,4.835 -5.08,4.835 h -31.2 z" style="fill:#000"/></g><g id="g1147" transform="translate(-377.386,-36.9415)"><path id="path1141" d="m -737.634,-366.167 -5,-5.22 -0.01,-13.91 v -13.902 l 1.93,-1.852 c 1.05,-1.019 2.27,-2.17 2.7,-2.558 l 0.78,-0.704 2.35,2.256 2.35,2.257 -0.05,19.423 -0.05,19.43 z" style="fill:#000"/><path id="path1143" d="m -739.964,-408.68 -2.69,-2.587 v -14.14 l 0.01,-14.14 3.47,-3.306 c 1.9,-1.818 4.17,-4.002 5.04,-4.854 l 1.59,-1.548 v 38.673 l -2.36,2.245 -2.36,2.244 z" style="fill:#000"/><path id="path1145" d="m -779.844,-445.282 -5.08,-4.835 12.83,-0.04 c 7.05,-0.02 18.64,-0.02 25.76,0 l 12.94,0.04 -5.08,4.835 -5.09,4.835 h -31.19 z" style="fill:#000"/></g><g id="g1155" transform="translate(-303.081,-36.9415)"><path style="fill:#000" id="path1149" d="m -737.634,-366.167 -5,-5.22 -0.01,-13.91 v -13.902 l 1.93,-1.852 c 1.05,-1.019 2.27,-2.17 2.7,-2.558 l 0.78,-0.704 2.35,2.256 2.35,2.257 -0.05,19.423 -0.05,19.43 z"/><path style="fill:#000" id="path1151" d="m -739.964,-408.68 -2.69,-2.587 v -14.14 l 0.01,-14.14 3.47,-3.306 c 1.9,-1.818 4.17,-4.002 5.04,-4.854 l 1.59,-1.548 v 38.673 l -2.36,2.245 -2.36,2.244 z"/><path style="fill:#000" id="path1153" d="m -779.844,-445.282 -5.08,-4.835 12.83,-0.04 c 7.05,-0.02 18.64,-0.02 25.76,0 l 12.94,0.04 -5.08,4.835 -5.09,4.835 h -31.19 z"/></g><g id="g1167" transform="translate(-32.4983,-0.1835)"><path id="path1157" d="m -979.716,-398.59 c 0.64,-0.7 2.71,-2.89 4.59,-4.87 l 3.43,-3.59 h 32.51 l 3.43,3.59 c 1.88,1.98 3.95,4.17 4.59,4.87 l 1.17,1.27 h -50.89 z" style="fill:#000"/><path id="path1159" d="m -933.916,-403.31 -5,-5.22 v -13.91 -13.902 l 1.93,-1.852 c 1.05,-1.019 2.27,-2.17 2.7,-2.558 l 0.78,-0.704 2.35,2.256 2.35,2.257 -0.1,19.423 v 19.43 z" style="fill:#000"/><path id="path1161" d="m -973.716,-439.81 -2.7,-2.61 2.67,-2.524 2.67,-2.524 h 31.27 l 2.67,2.524 2.67,2.524 -2.7,2.61 -2.7,2.609 h -31.15 z" style="fill:#000"/><path id="path1163" d="m -936.246,-445.823 -2.69,-2.587 v -14.14 -14.14 l 3.47,-3.306 c 1.9,-1.818 4.17,-4.002 5.04,-4.854 l 1.59,-1.548 v 38.673 l -2.36,2.245 -2.36,2.244 z" style="fill:#000"/><path id="path1165" d="m -976.126,-482.425 -5.08,-4.835 12.83,-0.04 c 7.05,-0.02 18.64,-0.02 25.76,0 l 12.94,0.04 -5.08,4.835 -5.09,4.835 h -31.19 z" style="fill:#000"/></g><g id="g1177" transform="translate(-66.926,8.314)"><path id="path1169" d="m -824.751,-411.881 -5.01,-5.22 v -27.812 l 1.92,-1.852 c 1.06,-1.019 2.28,-2.17 2.7,-2.558 l 0.78,-0.704 2.36,2.256 2.35,2.257 -0.05,19.423 -0.05,19.43 z" style="fill:#000"/><path id="path1171" d="m -864.551,-448.381 -2.701,-2.61 2.671,-2.524 2.671,-2.524 h 31.265 l 2.68,2.524 2.67,2.524 -2.71,2.61 -2.7,2.609 h -31.145 z" style="fill:#000"/><path id="path1173" d="m -870.541,-454.056 -2.354,-2.249 0.04,-19.268 0.04,-19.267 5.007,4.783 5.006,4.783 v 28.339 l -2.696,2.564 -2.696,2.564 z" style="fill:#000"/><path id="path1175" d="m -827.081,-454.394 -2.7,-2.587 0.01,-14.14 0.01,-14.14 3.46,-3.306 c 1.91,-1.818 4.18,-4.002 5.05,-4.854 l 1.58,-1.548 v 38.673 l -2.36,2.245 -2.35,2.244 z" style="fill:#000"/></g><path style="fill:#000" id="path1179" d="m -1170.76,-398.951 -2.69,-2.587 v -8.329 l 5.09,-4.377 c 2.96,2.675 5.01,4.618 5.01,4.618 v 8.773 l -2.36,2.245 -2.36,2.244 z"/></g><rect style="color:#000;clip-rule:nonzero;display:inline;overflow:visible;visibility:visible;opacity:1;isolation:auto;mix-blend-mode:normal;color-interpolation:sRGB;color-interpolation-filters:linearRGB;solid-color:#000;solid-opacity:1;vector-effect:none;fill:url(#linearGradient887);fill-opacity:1;fill-rule:nonzero;stroke:none;stroke-width:4.464713;stroke-linecap:butt;stroke-linejoin:miter;stroke-miterlimit:4;stroke-dasharray:none;stroke-dashoffset:0;stroke-opacity:1;marker:none;marker-start:none;marker-mid:none;marker-end:none;color-rendering:auto;image-rendering:auto;shape-rendering:auto;text-rendering:auto;enable-background:accumulate" id="rect879" width="550.533" height="84.853" x="-931.086" y="551.122" ry="18.962" transform="rotate(90)"/><rect style="color:#000;clip-rule:nonzero;display:inline;overflow:visible;visibility:visible;opacity:1;isolation:auto;mix-blend-mode:normal;color-interpolation:sRGB;color-interpolation-filters:linearRGB;solid-color:#000;solid-opacity:1;vector-effect:none;fill:none;fill-opacity:1;fill-rule:nonzero;stroke:#a4a4a4;stroke-width:5.3;stroke-linecap:butt;stroke-linejoin:miter;stroke-miterlimit:4;stroke-dasharray:none;stroke-dashoffset:0;stroke-opacity:1;marker:none;marker-start:none;marker-mid:none;marker-end:none;color-rendering:auto;image-rendering:auto;shape-rendering:auto;text-rendering:auto;enable-background:accumulate" id="rect891" width="102.025" height="35.355" x="-642.038" y="-418.939" ry="17.678"/><rect id="rect893" width="102.025" height="35.355" x="-642.038" y="-475.395" ry="17.678" style="color:#000;clip-rule:nonzero;display:inline;overflow:visible;visibility:visible;opacity:1;isolation:auto;mix-blend-mode:normal;color-interpolation:sRGB;color-interpolation-filters:linearRGB;solid-color:#000;solid-opacity:1;vector-effect:none;fill:none;fill-opacity:1;fill-rule:nonzero;stroke:#a4a4a4;stroke-width:5.3;stroke-linecap:butt;stroke-linejoin:miter;stroke-miterlimit:4;stroke-dasharray:none;stroke-dashoffset:0;stroke-opacity:1;marker:none;marker-start:none;marker-mid:none;marker-end:none;color-rendering:auto;image-rendering:auto;shape-rendering:auto;text-rendering:auto;enable-background:accumulate"/><rect id="rect895" width="102.025" height="35.355" x="-642.038" y="-531.852" ry="17.678" style="color:#000;clip-rule:nonzero;display:inline;overflow:visible;visibility:visible;opacity:1;isolation:auto;mix-blend-mode:normal;color-interpolation:sRGB;color-interpolation-filters:linearRGB;solid-color:#000;solid-opacity:1;vector-effect:none;fill:none;fill-opacity:1;fill-rule:nonzero;stroke:#a4a4a4;stroke-width:5.3;stroke-linecap:butt;stroke-linejoin:miter;stroke-miterlimit:4;stroke-dasharray:none;stroke-dashoffset:0;stroke-opacity:1;marker:none;marker-start:none;marker-mid:none;marker-end:none;color-rendering:auto;image-rendering:auto;shape-rendering:auto;text-rendering:auto;enable-background:accumulate"/><rect style="color:#000;clip-rule:nonzero;display:inline;overflow:visible;visibility:visible;opacity:1;isolation:auto;mix-blend-mode:normal;color-interpolation:sRGB;color-interpolation-filters:linearRGB;solid-color:#000;solid-opacity:1;vector-effect:none;fill:none;fill-opacity:1;fill-rule:nonzero;stroke:#a4a4a4;stroke-width:5.3;stroke-linecap:butt;stroke-linejoin:miter;stroke-miterlimit:4;stroke-dasharray:none;stroke-dashoffset:0;stroke-opacity:1;marker:none;marker-start:none;marker-mid:none;marker-end:none;color-rendering:auto;image-rendering:auto;shape-rendering:auto;text-rendering:auto;enable-background:accumulate" id="rect897" width="102.025" height="35.355" x="-642.038" y="-588.308" ry="17.678"/><rect id="rect899" width="102.025" height="35.355" x="-642.038" y="-757.677" ry="17.678" style="color:#000;clip-rule:nonzero;display:inline;overflow:visible;visibility:visible;opacity:1;isolation:auto;mix-blend-mode:normal;color-interpolation:sRGB;color-interpolation-filters:linearRGB;solid-color:#000;solid-opacity:1;vector-effect:none;fill:none;fill-opacity:1;fill-rule:nonzero;stroke:#a4a4a4;stroke-width:5.3;stroke-linecap:butt;stroke-linejoin:miter;stroke-miterlimit:4;stroke-dasharray:none;stroke-dashoffset:0;stroke-opacity:1;marker:none;marker-start:none;marker-mid:none;marker-end:none;color-rendering:auto;image-rendering:auto;shape-rendering:auto;text-rendering:auto;enable-background:accumulate"/><rect style="color:#000;clip-rule:nonzero;display:inline;overflow:visible;visibility:visible;opacity:1;isolation:auto;mix-blend-mode:normal;color-interpolation:sRGB;color-interpolation-filters:linearRGB;solid-color:#000;solid-opacity:1;vector-effect:none;fill:none;fill-opacity:1;fill-rule:nonzero;stroke:#a4a4a4;stroke-width:5.3;stroke-linecap:butt;stroke-linejoin:miter;stroke-miterlimit:4;stroke-dasharray:none;stroke-dashoffset:0;stroke-opacity:1;marker:none;marker-start:none;marker-mid:none;marker-end:none;color-rendering:auto;image-rendering:auto;shape-rendering:auto;text-rendering:auto;enable-background:accumulate" id="rect901" width="102.025" height="35.355" x="-642.038" y="-814.133" ry="17.678"/><rect style="color:#000;clip-rule:nonzero;display:inline;overflow:visible;visibility:visible;opacity:1;isolation:auto;mix-blend-mode:normal;color-interpolation:sRGB;color-interpolation-filters:linearRGB;solid-color:#000;solid-opacity:1;vector-effect:none;fill:none;fill-opacity:1;fill-rule:nonzero;stroke:#a4a4a4;stroke-width:5.3;stroke-linecap:butt;stroke-linejoin:miter;stroke-miterlimit:4;stroke-dasharray:none;stroke-dashoffset:0;stroke-opacity:1;marker:none;marker-start:none;marker-mid:none;marker-end:none;color-rendering:auto;image-rendering:auto;shape-rendering:auto;text-rendering:auto;enable-background:accumulate" id="rect903" width="102.025" height="35.355" x="-642.038" y="-870.59" ry="17.678"/><rect id="rect905" width="102.025" height="35.355" x="-642.038" y="-927.046" ry="17.678" style="color:#000;clip-rule:nonzero;display:inline;overflow:visible;visibility:visible;opacity:1;isolation:auto;mix-blend-mode:normal;color-interpolation:sRGB;color-interpolation-filters:linearRGB;solid-color:#000;solid-opacity:1;vector-effect:none;fill:none;fill-opacity:1;fill-rule:nonzero;stroke:#a4a4a4;stroke-width:5.3;stroke-linecap:butt;stroke-linejoin:miter;stroke-miterlimit:4;stroke-dasharray:none;stroke-dashoffset:0;stroke-opacity:1;marker:none;marker-start:none;marker-mid:none;marker-end:none;color-rendering:auto;image-rendering:auto;shape-rendering:auto;text-rendering:auto;enable-background:accumulate"/><rect style="color:#000;clip-rule:nonzero;display:inline;overflow:visible;visibility:visible;opacity:1;isolation:auto;mix-blend-mode:normal;color-interpolation:sRGB;color-interpolation-filters:linearRGB;solid-color:#000;solid-opacity:1;vector-effect:none;fill:none;fill-opacity:1;fill-rule:nonzero;stroke:#a4a4a4;stroke-width:5.3;stroke-linecap:butt;stroke-linejoin:miter;stroke-miterlimit:4;stroke-dasharray:none;stroke-dashoffset:0;stroke-opacity:1;marker:none;marker-start:none;marker-mid:none;marker-end:none;color-rendering:auto;image-rendering:auto;shape-rendering:auto;text-rendering:auto;enable-background:accumulate" id="rect907" width="102.025" height="35.355" x="-642.038" y="-644.764" ry="17.678"/><rect id="rect909" width="102.025" height="35.355" x="-642.038" y="-701.221" ry="17.678" style="color:#000;clip-rule:nonzero;display:inline;overflow:visible;visibility:visible;opacity:1;isolation:auto;mix-blend-mode:normal;color-interpolation:sRGB;color-interpolation-filters:linearRGB;solid-color:#000;solid-opacity:1;vector-effect:none;fill:none;fill-opacity:1;fill-rule:nonzero;stroke:#a4a4a4;stroke-width:5.3;stroke-linecap:butt;stroke-linejoin:miter;stroke-miterlimit:4;stroke-dasharray:none;stroke-dashoffset:0;stroke-opacity:1;marker:none;marker-start:none;marker-mid:none;marker-end:none;color-rendering:auto;image-rendering:auto;shape-rendering:auto;text-rendering:auto;enable-background:accumulate"/></g></svg>