<svg xmlns="http://www.w3.org/2000/svg" width="410" height="410" text-anchor="middle" version="1.1" style="stroke-width:.2;fill:#000;stroke:#000;font-family:Arial;font-weight:400;font-size:15px"><g><rect width="50" height="50" x="1" y="1" style="fill:#fff"/><text x="25" y="34">1</text><rect width="50" height="50" x="51" y="1" style="fill:#cdf"/><text x="75" y="34">2</text><rect width="50" height="50" x="101" y="1" style="fill:#fff"/><text x="125" y="34">4</text><rect width="50" height="50" x="151" y="1" style="fill:#cdf"/><text x="175" y="34">8</text><rect width="50" height="50" x="201" y="1" style="fill:#fff"/><text x="225" y="34">16</text><rect width="50" height="50" x="251" y="1" style="fill:#cdf"/><text x="275" y="34">32</text><rect width="50" height="50" x="301" y="1" style="fill:#fff"/><text x="325" y="34">64</text><rect width="50" height="50" x="351" y="1" style="fill:#cdf"/><text x="375" y="34">128</text><rect width="50" height="50" x="1" y="51" style="fill:#cdf"/><text x="25" y="84">256</text><rect width="50" height="50" x="51" y="51" style="fill:#fff"/><text x="75" y="84">512</text><rect width="50" height="50" x="101" y="51" style="fill:#cdf"/><text x="122" y="84" style="font-size:14px">1×10</text><text x="142" y="77" style="font-size:11px">3</text><rect width="50" height="50" x="151" y="51" style="fill:#fff"/><text x="172" y="84" style="font-size:14px">2×10</text><text x="192" y="77" style="font-size:11px">3</text><rect width="50" height="50" x="201" y="51" style="fill:#cdf"/><text x="222" y="84" style="font-size:14px">4×10</text><text x="242" y="77" style="font-size:11px">3</text><rect width="50" height="50" x="251" y="51" style="fill:#fff"/><text x="272" y="84" style="font-size:14px">8×10</text><text x="292" y="77" style="font-size:11px">3</text><rect width="50" height="50" x="301" y="51" style="fill:#cdf"/><text x="322" y="84" style="font-size:14px">2×10</text><text x="342" y="77" style="font-size:11px">4</text><rect width="50" height="50" x="351" y="51" style="fill:#fff"/><text x="372" y="84" style="font-size:14px">3×10</text><text x="392" y="77" style="font-size:11px">4</text><rect width="50" height="50" x="1" y="101" style="fill:#fff"/><text x="22" y="134" style="font-size:14px">7×10</text><text x="42" y="127" style="font-size:11px">4</text><rect width="50" height="50" x="51" y="101" style="fill:#cdf"/><text x="72" y="134" style="font-size:14px">1×10</text><text x="92" y="127" style="font-size:11px">5</text><rect width="50" height="50" x="101" y="101" style="fill:#fff"/><text x="122" y="134" style="font-size:14px">3×10</text><text x="142" y="127" style="font-size:11px">5</text><rect width="50" height="50" x="151" y="101" style="fill:#cdf"/><text x="172" y="134" style="font-size:14px">5×10</text><text x="192" y="127" style="font-size:11px">5</text><rect width="50" height="50" x="201" y="101" style="fill:#fff"/><text x="222" y="134" style="font-size:14px">1×10</text><text x="242" y="127" style="font-size:11px">6</text><rect width="50" height="50" x="251" y="101" style="fill:#cdf"/><text x="272" y="134" style="font-size:14px">2×10</text><text x="292" y="127" style="font-size:11px">6</text><rect width="50" height="50" x="301" y="101" style="fill:#fff"/><text x="322" y="134" style="font-size:14px">4×10</text><text x="342" y="127" style="font-size:11px">6</text><rect width="50" height="50" x="351" y="101" style="fill:#cdf"/><text x="372" y="134" style="font-size:14px">8×10</text><text x="392" y="127" style="font-size:11px">6</text><rect width="50" height="50" x="1" y="151" style="fill:#cdf"/><text x="22" y="184" style="font-size:14px">2×10</text><text x="42" y="177" style="font-size:11px">7</text><rect width="50" height="50" x="51" y="151" style="fill:#fff"/><text x="72" y="184" style="font-size:14px">3×10</text><text x="92" y="177" style="font-size:11px">7</text><rect width="50" height="50" x="101" y="151" style="fill:#cdf"/><text x="122" y="184" style="font-size:14px">7×10</text><text x="142" y="177" style="font-size:11px">7</text><rect width="50" height="50" x="151" y="151" style="fill:#fff"/><text x="172" y="184" style="font-size:14px">1×10</text><text x="192" y="177" style="font-size:11px">8</text><rect width="50" height="50" x="201" y="151" style="fill:#cdf"/><text x="222" y="184" style="font-size:14px">3×10</text><text x="242" y="177" style="font-size:11px">8</text><rect width="50" height="50" x="251" y="151" style="fill:#fff"/><text x="272" y="184" style="font-size:14px">5×10</text><text x="292" y="177" style="font-size:11px">8</text><rect width="50" height="50" x="301" y="151" style="fill:#cdf"/><text x="322" y="184" style="font-size:14px">1×10</text><text x="342" y="177" style="font-size:11px">9</text><rect width="50" height="50" x="351" y="151" style="fill:#fff"/><text x="372" y="184" style="font-size:14px">2×10</text><text x="392" y="177" style="font-size:11px">9</text><rect width="50" height="50" x="1" y="201" style="fill:#fff"/><text x="22" y="234" style="font-size:14px">4×10</text><text x="42" y="227" style="font-size:11px">9</text><rect width="50" height="50" x="51" y="201" style="fill:#cdf"/><text x="72" y="234" style="font-size:14px">9×10</text><text x="92" y="227" style="font-size:11px">9</text><rect width="50" height="50" x="101" y="201" style="fill:#fff"/><text x="122" y="234" style="font-size:14px">2×10</text><text x="142" y="227" style="font-size:11px">10</text><rect width="50" height="50" x="151" y="201" style="fill:#cdf"/><text x="172" y="234" style="font-size:14px">3×10</text><text x="192" y="227" style="font-size:11px">10</text><rect width="50" height="50" x="201" y="201" style="fill:#fff"/><text x="222" y="234" style="font-size:14px">7×10</text><text x="242" y="227" style="font-size:11px">10</text><rect width="50" height="50" x="251" y="201" style="fill:#cdf"/><text x="272" y="234" style="font-size:14px">1×10</text><text x="292" y="227" style="font-size:11px">11</text><rect width="50" height="50" x="301" y="201" style="fill:#fff"/><text x="322" y="234" style="font-size:14px">3×10</text><text x="342" y="227" style="font-size:11px">11</text><rect width="50" height="50" x="351" y="201" style="fill:#cdf"/><text x="372" y="234" style="font-size:14px">5×10</text><text x="392" y="227" style="font-size:11px">11</text><rect width="50" height="50" x="1" y="251" style="fill:#cdf"/><text x="22" y="284" style="font-size:14px">1×10</text><text x="42" y="277" style="font-size:11px">12</text><rect width="50" height="50" x="51" y="251" style="fill:#fff"/><text x="72" y="284" style="font-size:14px">2×10</text><text x="92" y="277" style="font-size:11px">12</text><rect width="50" height="50" x="101" y="251" style="fill:#cdf"/><text x="122" y="284" style="font-size:14px">4×10</text><text x="142" y="277" style="font-size:11px">12</text><rect width="50" height="50" x="151" y="251" style="fill:#fff"/><text x="172" y="284" style="font-size:14px">9×10</text><text x="192" y="277" style="font-size:11px">12</text><rect width="50" height="50" x="201" y="251" style="fill:#cdf"/><text x="222" y="284" style="font-size:14px">2×10</text><text x="242" y="277" style="font-size:11px">13</text><rect width="50" height="50" x="251" y="251" style="fill:#fff"/><text x="272" y="284" style="font-size:14px">4×10</text><text x="292" y="277" style="font-size:11px">13</text><rect width="50" height="50" x="301" y="251" style="fill:#cdf"/><text x="322" y="284" style="font-size:14px">7×10</text><text x="342" y="277" style="font-size:11px">13</text><rect width="50" height="50" x="351" y="251" style="fill:#fff"/><text x="372" y="284" style="font-size:14px">1×10</text><text x="392" y="277" style="font-size:11px">14</text><rect width="50" height="50" x="1" y="301" style="fill:#fff"/><text x="22" y="334" style="font-size:14px">3×10</text><text x="42" y="327" style="font-size:11px">14</text><rect width="50" height="50" x="51" y="301" style="fill:#cdf"/><text x="72" y="334" style="font-size:14px">6×10</text><text x="92" y="327" style="font-size:11px">14</text><rect width="50" height="50" x="101" y="301" style="fill:#fff"/><text x="122" y="334" style="font-size:14px">1×10</text><text x="142" y="327" style="font-size:11px">15</text><rect width="50" height="50" x="151" y="301" style="fill:#cdf"/><text x="172" y="334" style="font-size:14px">2×10</text><text x="192" y="327" style="font-size:11px">15</text><rect width="50" height="50" x="201" y="301" style="fill:#fff"/><text x="222" y="334" style="font-size:14px">5×10</text><text x="242" y="327" style="font-size:11px">15</text><rect width="50" height="50" x="251" y="301" style="fill:#cdf"/><text x="272" y="334" style="font-size:14px">9×10</text><text x="292" y="327" style="font-size:11px">15</text><rect width="50" height="50" x="301" y="301" style="fill:#fff"/><text x="322" y="334" style="font-size:14px">2×10</text><text x="342" y="327" style="font-size:11px">16</text><rect width="50" height="50" x="351" y="301" style="fill:#cdf"/><text x="372" y="334" style="font-size:14px">4×10</text><text x="392" y="327" style="font-size:11px">16</text><rect width="50" height="50" x="1" y="351" style="fill:#cdf"/><text x="22" y="384" style="font-size:14px">7×10</text><text x="42" y="377" style="font-size:11px">16</text><rect width="50" height="50" x="51" y="351" style="fill:#fff"/><text x="72" y="384" style="font-size:14px">1×10</text><text x="92" y="377" style="font-size:11px">17</text><rect width="50" height="50" x="101" y="351" style="fill:#cdf"/><text x="122" y="384" style="font-size:14px">3×10</text><text x="142" y="377" style="font-size:11px">17</text><rect width="50" height="50" x="151" y="351" style="fill:#fff"/><text x="172" y="384" style="font-size:14px">6×10</text><text x="192" y="377" style="font-size:11px">17</text><rect width="50" height="50" x="201" y="351" style="fill:#cdf"/><text x="222" y="384" style="font-size:14px">1×10</text><text x="242" y="377" style="font-size:11px">18</text><rect width="50" height="50" x="251" y="351" style="fill:#fff"/><text x="272" y="384" style="font-size:14px">2×10</text><text x="292" y="377" style="font-size:11px">18</text><rect width="50" height="50" x="301" y="351" style="fill:#cdf"/><text x="322" y="384" style="font-size:14px">5×10</text><text x="342" y="377" style="font-size:11px">18</text><rect width="50" height="50" x="351" y="351" style="fill:#fff"/><text x="372" y="384" style="font-size:14px">9×10</text><text x="392" y="377" style="font-size:11px">18</text></g></svg>