<svg xmlns="http://www.w3.org/2000/svg" xmlns:svg="http://www.w3.org/2000/svg" style="font-size:6.7px;font-family:'Trebuchet MS';fill:#3465a4;stroke-width:.26px" id="svg60" width="381.5" height="46.219" version="1.1"><g id="g58" transform="matrix(3.5,0,0,3.5,38.5,-253.96)"><text id="text4" x="52.7" y="77.5">a</text><text style="fill:#edd400" id="text6" x="63.6" y="77.5">d</text><text style="fill:#19aeff" id="text8" x="66.7" y="85.7">b</text><text style="fill:#4e9a06" id="text10" x="92" y="77.5">c</text><text style="fill:#edd400" id="text12" x="77.6" y="85.7">d</text><text style="font-size:8.1px" id="text14" x="71.9" y="78.5">+</text><text style="font-size:8.1px" id="text16" x="40.6" y="82">=</text><text id="text18" x="86.5" y="77.5">×</text><text id="text20" x="58.2" y="77.5">×</text><text style="fill:#19aeff" id="text22" x="81" y="77.5">b</text><text id="text24" x="72.2" y="85.7">×</text><path style="fill:none;stroke:#3465a4;stroke-width:.4" id="path26" d="M 50.9,79.3 H 98"/><text id="text28" x="-9.3" y="77.5">a</text><text style="fill:#19aeff" id="text30" x="-9.5" y="85.7">b</text><text style="fill:#edd400" id="text32" x="1.7" y="77.5">d</text><text style="fill:#19aeff" id="text34" x="19.1" y="85.7">b</text><text style="fill:#4e9a06" id="text36" x="30.1" y="77.5">c</text><text style="fill:#edd400" id="text38" x="30" y="85.7">d</text><text style="font-size:8.1px" id="text40" x="10" y="82">+</text><text id="text42" x="24.6" y="77.5">×</text><text id="text44" x="-3.7" y="77.5">×</text><text style="fill:#edd400" id="text46" x="1.7" y="85.7">d</text><text id="text48" x="-3.7" y="85.7">×</text><text style="fill:#19aeff" id="text50" x="19.1" y="77.5">b</text><text id="text52" x="24.6" y="85.7">×</text><path style="fill:none;stroke:#3465a4;stroke-width:.4" id="path54" d="M -11,79.4 H 7.5"/><path style="fill:none;stroke:#3465a4;stroke-width:.4" id="path56" d="M 17.1,79.4 H 35.6"/></g></svg>