<svg xmlns="http://www.w3.org/2000/svg" xmlns:svg="http://www.w3.org/2000/svg" style="font-size:6.7px;font-family:'Trebuchet MS';stroke-width:.26px" id="svg74" width="348.25" height="46.219" version="1.1"><defs id="defs8"><marker id="id1" orient="auto" style="overflow:visible"><path style="fill:#19aeff;stroke:#19aeff;stroke-width:1pt" id="path2" d="M 0,0 5,-5 -12.5,0 5,5 Z" transform="matrix(-0.4,0,0,-0.4,-4,0)"/></marker><marker id="id2" orient="auto" style="overflow:visible"><path style="fill:#edd400;stroke:#edd400;stroke-width:1pt" id="path5" d="M 0,0 5,-5 -12.5,0 5,5 Z" transform="matrix(-0.4,0,0,-0.4,-4,0)"/></marker></defs><g id="g72" transform="matrix(3.5,0,0,3.5,-9.8,-253.96)"><text style="fill:#3465a4" id="text10" x="4.3" y="77.5">a</text><text style="fill:#19aeff" id="text12" x="4.1" y="85.7">b</text><text style="fill:#4e9a06" id="text14" x="31.4" y="77.5">c</text><text style="fill:#edd400" id="text16" x="31.3" y="85.7">d</text><text style="fill:#3465a4" id="text18" x="54.2" y="77.5">a</text><text style="fill:#19aeff" id="text20" x="54" y="85.7">b</text><text style="fill:#edd400" id="text22" x="65.2" y="77.5">d</text><text style="fill:#19aeff" id="text24" x="85.7" y="85.7">b</text><text style="fill:#4e9a06" id="text26" x="96.8" y="77.5">c</text><text style="fill:#edd400" id="text28" x="96.7" y="85.7">d</text><text style="font-size:8.1px;fill:#3465a4" id="text30" x="17.2" y="82">+</text><text style="font-size:8.1px;fill:#3465a4" id="text32" x="75.1" y="82">+</text><text style="font-size:8.1px;fill:#3465a4" id="text34" x="40.6" y="82">=</text><text style="fill:#3465a4" id="text36" x="91.3" y="77.5">×</text><text style="fill:#3465a4" id="text38" x="59.8" y="77.5">×</text><text style="fill:#edd400" id="text40" x="65.2" y="85.7">d</text><text style="fill:#3465a4" id="text42" x="59.8" y="85.7">×</text><text style="fill:#19aeff" id="text44" x="85.7" y="77.5">b</text><text style="fill:#3465a4" id="text46" x="91.3" y="85.7">×</text><path style="fill:none;stroke:#3465a4;stroke-width:.4" id="path48" d="m 2.8,79.4 h 7.3"/><path style="fill:none;stroke:#3465a4;stroke-width:.4" id="path50" d="m 29.4,79.4 h 7.3"/><path style="fill:none;stroke:#3465a4;stroke-width:.4" id="path52" d="M 52.5,79.4 H 71"/><path style="fill:none;stroke:#3465a4;stroke-width:.4" id="path54" d="m 83.8,79.4 h 18.5"/><path style="fill:none;stroke:#edd400;stroke-width:.42" id="path56" d="m 22.1,85.3 c -9,0.3 -5.6,-7 -10.7,-7.5"/><path style="fill:none;stroke:#edd400;stroke-width:.42" id="path58" d="M 28.5,84.6 C 16.3,86.5 16.5,83.7 11.7,84"/><path style="fill:none;stroke:#19aeff;stroke-width:.42" id="path60" d="M 10.1,82.4 C 14.4,81.9 21,81.5 26.7,82.3"/><path style="fill:none;stroke:#19aeff;stroke-width:.42" id="path62" d="m 19.3,81.8 c 4.7,0.1 4.9,-3.1 7.6,-4.3"/><path style="fill:none;stroke:#19aeff;stroke-width:.4;marker-end:url(#id1)" id="path64" d="M 25.7,77.9 28.1,77"/><path style="fill:none;stroke:#19aeff;stroke-width:.4;marker-end:url(#id1)" id="path66" d="m 25.2,82.1 2.5,0.5"/><path style="fill:none;stroke:#edd400;stroke-width:.4;marker-end:url(#id2)" id="path68" d="M 13,78.3 10.9,77"/><path style="fill:none;stroke:#edd400;stroke-width:.4;marker-end:url(#id2)" id="path70" d="M 13,84.1 10.5,84"/></g></svg>