<svg xmlns="http://www.w3.org/2000/svg" xmlns:svg="http://www.w3.org/2000/svg" id="svg99" width="26.154" height="117.145" version="1.1"><defs id="defs5"><marker style="overflow:visible" id="id01" orient="auto"><path style="stroke:#000;stroke-width:1pt" id="path2" d="M 0,0 5,-5 -12.5,0 5,5 Z" transform="matrix(-0.4,0,0,-0.4,-4,0)"/></marker><marker style="overflow:visible" id="id016884" orient="auto"><path style="fill:#204a87;fill-opacity:1;stroke:#204a87;stroke-width:1pt;stroke-opacity:1" id="path1172" d="M 0,0 5,-5 -12.5,0 5,5 Z" transform="matrix(-0.4,0,0,-0.4,-4,0)"/></marker><marker style="overflow:visible" id="id015922" orient="auto"><path style="fill:#204a87;fill-opacity:1;stroke:#204a87;stroke-width:1pt;stroke-opacity:1" id="path1175" d="M 0,0 5,-5 -12.5,0 5,5 Z" transform="matrix(-0.4,0,0,-0.4,-4,0)"/></marker></defs><circle style="color:#000;overflow:visible;fill:#0084c8;stroke:none;stroke-width:1;stroke-miterlimit:4;stroke-dasharray:none;stop-color:#000;fill-opacity:1" id="path1524" cx="12.546" cy="108.714" r="7.931"/><path style="fill:#0084c8;fill-rule:evenodd;stroke:none;stroke-width:1px;stroke-linecap:butt;stroke-linejoin:miter;stroke-opacity:1;fill-opacity:1" id="path1559" d="M 12.5458,94.0917 C 9.46662,72.5524 -7.18893,0.486806 12.5051,0.500002 c 19.694,0.0132 3.9042,72.204698 0.041,93.591698 z"/></svg>