<svg xmlns="http://www.w3.org/2000/svg" xmlns:svg="http://www.w3.org/2000/svg" style="font-size:3px;fill:#00f;stroke-width:.25px" id="svg1066" width="413.2" height="116.6" version="1.1"><defs id="defs920"><marker id="id1" orient="auto" style="overflow:visible"><path style="stroke:#00f;stroke-width:1pt" id="path917" d="M 0,0 5,-5 -12.5,0 5,5 Z" transform="matrix(-0.8,0,0,-0.8,-10,0)"/></marker></defs><path style="fill:none;fill-opacity:.75;stroke:#4e9a06;stroke-width:1.05" id="path922" d="m 3.49,82.033 v 18.3"/><path style="fill:none;fill-opacity:.75;stroke:#00f" id="path924" d="m 22.59,82.033 v 18.3"/><path style="fill:none;fill-opacity:.75;stroke:#00f" id="path926" d="m 41.59,82.033 v 18.3"/><path style="fill:none;fill-opacity:.75;stroke:#00f" id="path928" d="m 60.59,82.033 v 18.3"/><path style="fill:none;fill-opacity:.75;stroke:#00f" id="path930" d="m 79.69,82.033 v 18.3"/><path style="fill:none;fill-opacity:.75;stroke:#00f" id="path932" d="m 98.69,82.033 v 18.3"/><path style="fill:none;fill-opacity:.75;stroke:#00f" id="path934" d="m 117.69,82.033 v 18.3"/><path style="fill:none;fill-opacity:.75;stroke:#00f" id="path936" d="m 136.79,82.033 v 18.3"/><path style="fill:none;fill-opacity:.75;stroke:#00f" id="path938" d="m 155.79,82.033 v 18.3"/><path style="fill:none;fill-opacity:.75;stroke:#00f" id="path940" d="m 174.89,82.033 v 18.3"/><text style="font-family:Arial;fill:#4e9a06;font-size:12px" id="text942" x="-.71" y="116.333">0</text><text style="font-family:Arial;font-size:12px" id="text944" x="20.09" y="115.333">1</text><text style="font-family:Arial;font-size:12px" id="text946" x="38.79" y="115.333">2</text><text style="font-family:Arial;font-size:12px" id="text948" x="57.69" y="115.233">3</text><text style="font-family:Arial;font-size:12px" id="text950" x="76.89" y="115.333">4</text><text style="font-family:Arial;font-size:12px" id="text952" x="95.69" y="115.233">5</text><text style="font-family:Arial;font-size:12px" id="text954" x="114.69" y="115.233">6</text><text style="font-family:Arial;font-size:12px" id="text956" x="133.69" y="115.233">7</text><text style="font-family:Arial;font-size:12px" id="text958" x="152.69" y="115.233">8</text><text style="font-family:Arial;font-size:12px" id="text960" x="171.69" y="115.233">9</text><path style="fill:none;fill-opacity:.75;stroke:#00f" id="path962" d="m 193.89,82.033 v 18.3"/><text style="font-family:Arial;font-size:12px" id="text964" x="186.99" y="115.233">10</text><path style="fill-opacity:.75;stroke:#00f;stroke-width:.95;marker-end:url(#id1)" id="path966" d="m 2.99,92.333 h 408.4"/><path style="fill:none;fill-opacity:.75;stroke:#00f" id="path968" d="m 213.69,82.033 v 18.3"/><path style="fill:none;fill-opacity:.75;stroke:#00f" id="path970" d="m 232.69,82.033 v 18.3"/><path style="fill:none;fill-opacity:.75;stroke:#00f" id="path972" d="m 251.69,82.033 v 18.3"/><path style="fill:none;fill-opacity:.75;stroke:#00f" id="path974" d="m 270.79,82.033 v 18.3"/><path style="fill:none;fill-opacity:.75;stroke:#00f" id="path976" d="m 289.79,82.033 v 18.3"/><path style="fill:none;fill-opacity:.75;stroke:#00f" id="path978" d="m 308.89,82.033 v 18.3"/><path style="fill:none;fill-opacity:.75;stroke:#00f" id="path980" d="m 327.89,82.033 v 18.3"/><path style="fill:none;fill-opacity:.75;stroke:#00f" id="path982" d="m 346.89,82.033 v 18.3"/><path style="fill:none;fill-opacity:.75;stroke:#00f" id="path984" d="m 365.99,82.033 v 18.3"/><text style="font-family:Arial;font-size:12px" id="text986" x="207.19" y="115.333">11</text><text style="font-family:Arial;font-size:12px" id="text988" x="225.89" y="115.333">12</text><text style="font-family:Arial;font-size:12px" id="text990" x="244.69" y="115.233">13</text><text style="font-family:Arial;font-size:12px" id="text992" x="263.89" y="115.333">14</text><text style="font-family:Arial;font-size:12px" id="text994" x="282.69" y="115.233">15</text><text style="font-family:Arial;font-size:12px" id="text996" x="301.79" y="115.233">16</text><text style="font-family:Arial;font-size:12px" id="text998" x="320.69" y="115.233">17</text><text style="font-family:Arial;font-size:12px" id="text1000" x="339.69" y="115.233">18</text><text style="font-family:Arial;font-size:12px" id="text1002" x="358.69" y="115.233">19</text><path style="fill:none;fill-opacity:.75;stroke:#00f" id="path1004" d="m 384.99,82.033 v 18.3"/><text style="font-family:Arial;font-size:12px" id="text1006" x="378.09" y="115.233">20</text><path style="stroke-width:.53;stroke-opacity:.48" id="path1008" d="m 150.39,3.733 c -2.2,2.6 -5.6,4.7 -8.1,7.3 -2.7,2.3 -4.8,6.3 -7.3,8.1 -0.7,-2.8 5.9,-1.4 8,-2.4 5,-0.3 10,-1.2 15,-0.6 -1.3,1.2 -2.3,3.1 -3.8,4 -7.1,-0.1 -14.1,0.9 -21.1,1.9 -7.1,-0.4 -0.5,-6.4 1.6,-9 3,-3.6 6.6,-6.7 10.3,-9.5 1,0.7 3.4,0 4.9,0.2 h 0.3 z"/><path style="stroke-width:.53;stroke-opacity:.48" id="path1010" d="m 145.79,6.333 c 2.1,2 5.3,-5.1 3.8,-0.1 -1.3,7.6 -1.3,15.3 -3.1,22.8 -1.7,0.2 -3.7,0.7 -5.2,0.8 2,-8.3 2.2,-17 3.6,-25.5 2.4,-3.5 5.8,-2.4 2.2,0.6 -0.4,0.5 -0.8,1 -1.2,1.5 z"/><path style="stroke-width:.53;stroke-opacity:.48" id="path1012" d="m 193.59,3.733 c -1,5.9 -1.8,11.9 -2.6,17.9 0.9,3.6 -1.1,4.5 -4.1,4.6 -3.6,1 0,-6.1 -0.6,-8.2 1,-4.3 1,-9.2 2.1,-13.2 1.5,-0.2 3.5,-0.8 5.1,-1.1 z"/><path style="stroke-width:.53;stroke-opacity:.48" id="path1014" d="m 194.09,8.333 c 2.6,-3.3 7.2,-5.1 11.3,-6.2 4.8,-0.5 6.5,5.9 4.5,9.4 -2.2,5.3 -6.8,9.5 -11.6,12.3 -2.9,-5.8 7.3,-3.1 10.5,-1.7 4.4,-0.3 2.6,1.2 0.8,3.5 -3.1,2.9 -8.3,-2.9 -12.3,-1 -3,3 -6.4,-1.8 -2.3,-3.1 4.7,-3.2 10.1,-7.5 10.4,-13.7 0.2,-4.2 -7.9,0.9 -2.9,-1.6 5,-2.6 -2.2,1.6 -3.8,2.1 -1.6,-0.1 -3.2,-0.2 -4.8,-0.3 z"/><path style="stroke-width:.53;stroke-opacity:.48" id="path1016" d="m 221.99,8.833 c 5.6,0.5 11.3,-0.1 16.9,-0.3 -1.1,1.4 -2.3,2.7 -3.4,4.1 -5.5,0.5 -11.6,0.5 -16.8,0.3 1.1,-1.4 2.2,-2.7 3.3,-4.1 z"/><path style="stroke-width:.53;stroke-opacity:.48" id="path1018" d="m 221.49,16.533 c 6,0.1 11.9,-0.5 17.9,-0.5 -1.2,1.3 -2.3,3 -3.6,4 -5.8,0.5 -11.7,0.6 -17.6,0.6 1.1,-1.4 2.2,-2.8 3.3,-4.1 z"/><path style="stroke-width:.53;stroke-opacity:.48" id="path1020" d="m 254.29,2.333 c -1.1,1.7 -1.6,7.9 -2.4,11.2 -1.1,4 -1.1,8.8 -2.4,12.4 -1.5,0.2 -3.9,1.4 -4.9,0.9 1.3,-8.1 2.7,-16.1 4.4,-24.1 0.2,-1.5 2.9,-0.3 4.3,-0.5 0.4,0 0.7,0.1 1.1,0.1 z"/><path style="stroke-width:.53;stroke-opacity:.48" id="path1022" d="m 270.89,0.033 c -1.3,3.6 -6.5,6.1 -7.9,10.4 -1.9,3.4 -4,8.3 -1.4,11.8 1.4,2.1 7,-0.6 2.7,1.1 -1.5,1.3 3.9,-3 2.1,-5.4 -0.8,-3.7 -7.9,-3.1 -7.8,-4.6 1.5,-1.2 2.3,-4.3 4.6,-3.1 4.9,0.6 10.3,5.5 8.2,10.7 -1.3,4.6 -7.4,7.3 -11.8,5.8 -5.3,-2.1 -4.8,-9.1 -3.2,-13.5 1.9,-4.9 5.6,-9.8 9.2,-12.9 0.3,1.8 3.4,-0.3 4.9,-0.2 l 0.3,-0.1 z"/><path style="stroke-width:.53;stroke-opacity:.48" id="path1024" d="m 176.19,2.333 c -0.4,2.1 -1.6,6.2 -2,9.2 -1.6,3.5 0.1,10.2 -3.5,11.6 -2.5,0.6 -5.1,1.4 -3.3,-2.4 1.1,-5.9 2.1,-12.5 3.6,-18 0.5,1.6 3.6,-0.4 5.2,-0.4 z"/><path style="stroke-width:.53;stroke-opacity:.48" id="path1026" d="m 163.19,10.633 c 6.8,-0.9 13.8,-0.2 20.6,-0.3 -1.3,1.3 -2.2,3.2 -3.6,4.1 -6.8,0.1 -13.6,-0.5 -20.3,0.3 1.1,-1.4 2.2,-2.8 3.3,-4.1 z"/><path style="fill:#00d400;stroke-width:.53;stroke-opacity:.48" id="path1028" d="m 81.89,77.833 c -5.5,-1.7 -0.6,2.8 1.5,-2.7 18.4,-11.3 39.5,-17.5 60.6,-21 23.1,-3.2 46.6,-3.2 69.9,-1.9 17.9,2.1 37.4,4.1 52.1,15.6 2.3,2.7 10.1,11 4.6,12.8 -1.5,-6.8 -6.8,-13 -13.5,-15.8 -16.4,-8.3 -35.1,-10.1 -53.2,-11.2 -30.6,-0.7 -62,-0.4 -91.2,9.9 -10.4,3.6 -21.3,7.4 -29.8,14.7 -0.7,2 2.1,3.2 -2.5,1.6 0.5,-0.7 1,-1.3 1.5,-2 z"/><path style="fill:#00d400;stroke-width:.53;stroke-opacity:.48" id="path1030" d="m 263.09,73.633 c -3.8,-0.5 7.5,1.1 8.2,5.7 3.1,1.8 -2.3,3.7 -1,0.3 -0.5,-3.6 4.2,-11.6 5.9,-9.7 -1.8,2.6 1.9,-0.7 -1.6,3.3 -2.8,2.3 0,9.9 -4.3,9 -2.1,-3 -4.8,-6.5 -8.7,-6.6 4,-1.4 -2.3,1.3 1.4,-1.9 z"/><g id="g1036" transform="matrix(0.287057,0,0,0.25,-234.6,-64.588)"><path style="fill:#00d400;stroke-width:2.1;stroke-opacity:.48" id="path1032" d="m 1756.5,538.4 c -16.8,11 12.3,-33.7 20.9,-38.6 36.4,-30.1 51.3,30.6 52,57.5 7.6,20.4 -17.1,21.3 -10.1,-1.2 2.3,-25.2 -22,-76.4 -39.6,-48.3 -18.2,8.4 -15,51.7 -26.4,36.5 1.1,-1.9 2.1,-3.9 3.2,-5.8 z"/><path style="fill:#00d400;stroke-width:2.1;stroke-opacity:.48" id="path1034" d="m 1806.3,533.5 c 12.2,8.9 18.6,57.6 18.3,36.8 -1,-17.1 40.4,-40.5 18.2,-13.5 -4.8,16.7 -26.3,40.7 -31.8,11.5 -1.2,-14.8 -19,-25.4 -4.7,-34.8 z"/></g><g id="g1042" transform="matrix(0.287057,0,0,0.25,-215.248,-64.588)"><path style="fill:#00d400;stroke-width:2.1;stroke-opacity:.48" id="path1038" d="m 1756.5,538.4 c -16.8,11 12.3,-33.7 20.9,-38.6 36.4,-30.1 51.3,30.6 52,57.5 7.6,20.4 -17.1,21.3 -10.1,-1.2 2.3,-25.2 -22,-76.4 -39.6,-48.3 -18.2,8.4 -15,51.7 -26.4,36.5 1.1,-1.9 2.1,-3.9 3.2,-5.8 z"/><path style="fill:#00d400;stroke-width:2.1;stroke-opacity:.48" id="path1040" d="m 1806.3,533.5 c 12.2,8.9 18.6,57.6 18.3,36.8 -1,-17.1 40.4,-40.5 18.2,-13.5 -4.8,16.7 -26.3,40.7 -31.8,11.5 -1.2,-14.8 -19,-25.4 -4.7,-34.8 z"/></g><path style="fill:#00d400;stroke-width:.53;stroke-opacity:.48" id="path1044" d="m 178.79,36.533 c 5.5,-2.3 -1.4,8.4 -1.7,10.8 -4.3,1.1 0.5,-10.7 2.9,-11.1 3.2,-0.7 -0.6,0.2 -1.2,0.4 z"/><path style="fill:#00d400;stroke-width:.53;stroke-opacity:.48" id="path1046" d="m 184.89,39.433 c 1.6,-2.6 -4.5,8 2,6.3 0.8,1.5 6,-6.4 0.5,-7.8 -4,0.3 3.1,-4.4 4.1,0 3.9,5.4 -4.8,12.7 -9.5,8.7 -4.6,-3 4.7,-12.2 3.5,-8.1 -0.2,0.3 -0.5,0.6 -0.7,0.9 z"/><path style="fill:#00d400;stroke-width:.53;stroke-opacity:.48" id="path1048" d="m 270.29,46.633 c 1.7,-3.7 10.5,-3.1 12.9,-2.8 -2.8,3.7 -8.9,1.2 -12.9,2.8 1.5,-2.9 1.7,-1.7 0,0 z"/><path style="fill:#00d400;stroke-width:.53;stroke-opacity:.48" id="path1050" d="m 279.49,39.633 c 0.1,2.3 -1.1,6.9 -1.4,10.1 -4,3.9 -2,-3.9 -1.4,-6.3 0.8,-3.2 -0.7,-3.5 2.8,-3.8 z"/><path style="fill:#00d400;stroke-width:.53;stroke-opacity:.48" id="path1052" d="m 288.99,38.533 c 1,3.6 -1.4,7.9 -2.1,11.7 -4.1,3 -1.8,-2.8 -1,-5.1 0.8,-4.2 0.5,-4.2 3.1,-6.6 z"/><path style="fill:#00d400;stroke-width:.53;stroke-opacity:.48" id="path1054" d="m 161.19,43.333 c 1.7,-3.7 10.5,-3.1 12.9,-2.8 -2.8,3.7 -8.9,1.3 -12.9,2.8 1.5,-2.9 1.7,-1.7 0,0 z"/><path style="fill:#00d400;stroke-width:.53;stroke-opacity:.48" id="path1056" d="m 170.39,36.233 c 0.1,2.3 -1.1,6.9 -1.4,10.1 -4,3.9 -2,-3.9 -1.4,-6.3 0.8,-3.4 -1.1,-3.4 2.8,-3.8 z"/><path style="fill:#00d400;stroke-width:.53;stroke-opacity:.48" id="path1058" d="m 293.39,46.833 c 1.7,-3.7 10.5,-3.1 12.9,-2.8 -2.8,3.7 -8.9,1.3 -12.9,2.8 1.5,-2.9 1.8,-1.7 0,0 z"/><path style="fill:#00d400;stroke-width:.53;stroke-opacity:.48" id="path1060" d="m 302.59,39.833 c 0.1,2.3 -1.1,6.9 -1.4,10.1 -4,3.9 -2,-3.9 -1.4,-6.3 0.9,-3.3 -1.1,-3.4 2.8,-3.8 z"/><path style="fill:#00d400;stroke-width:.53;stroke-opacity:.48" id="path1062" d="m 311.99,38.733 c 1,3.6 -1.4,7.9 -2.1,11.7 -4.1,3 -1.8,-2.8 -1,-5.1 0.8,-4.2 0.4,-4.2 3.1,-6.6 z"/></svg>