<svg xmlns="http://www.w3.org/2000/svg" xmlns:svg="http://www.w3.org/2000/svg" style="font-size:16.5px;stroke-width:1px" id="svg102" width="535.903" height="42.563" version="1.1"><metadata id="metadata106"/><defs id="defs8"><marker id="aa2" orient="auto" style="overflow:visible"><path style="fill:red;stroke:red;stroke-width:1pt" id="path2" d="M 0,0 5,-5 -12.5,0 5,5 Z" transform="matrix(0.8,0,0,0.8,10,0)"/></marker><marker id="aa1" orient="auto" style="overflow:visible"><path style="fill:#00f;stroke:#00f;stroke-width:1pt" id="path5" d="M 0,0 5,-5 -12.5,0 5,5 Z" transform="matrix(-0.8,0,0,-0.8,-10,0)"/></marker></defs><path style="fill:none;fill-opacity:.75;stroke:red;stroke-width:.34px" id="path10" d="M 56.8322,0 V 22.59"/><path style="fill:none;fill-opacity:.75;stroke:red;stroke-width:.34px" id="path12" d="M 80.2995,0 V 22.59"/><path style="fill:none;fill-opacity:.75;stroke:red;stroke-width:.34px" id="path14" d="M 127.235,0 V 22.59"/><path style="fill:none;fill-opacity:.75;stroke:red;stroke-width:.34px" id="path16" d="M 150.702,0 V 22.59"/><path style="fill:none;fill-opacity:.75;stroke:red;stroke-width:.34px" id="path18" d="M 174.17,0 V 22.59"/><path style="fill:none;fill-opacity:.75;stroke:red;stroke-width:.34px" id="path20" d="M 197.638,0 V 22.59"/><path style="fill:none;fill-opacity:.75;stroke:red;stroke-width:.34px" id="path22" d="M 244.573,0 V 22.59"/><path style="fill:none;fill-opacity:.75;stroke:#f60;stroke-width:1.03" id="path24" d="M 268.041,0 V 22.59"/><path style="fill:none;fill-opacity:.75;stroke:#00f;stroke-width:.34px" id="path26" d="M 291.598,0 V 22.59"/><path style="fill:none;fill-opacity:.75;stroke:#00f;stroke-width:.34px" id="path28" d="M 315.066,0 V 22.59"/><path style="fill:none;fill-opacity:.75;stroke:#00f;stroke-width:.34px" id="path30" d="M 338.534,0 V 22.59"/><path style="fill:none;fill-opacity:.75;stroke:#00f;stroke-width:.34px" id="path32" d="M 362.002,0 V 22.59"/><path style="fill:none;fill-opacity:.75;stroke:#00f;stroke-width:.34px" id="path34" d="M 385.469,0 V 22.59"/><path style="fill:none;fill-opacity:.75;stroke:#00f;stroke-width:.34px" id="path36" d="M 408.937,0 V 22.59"/><path style="fill:none;fill-opacity:.75;stroke:#00f;stroke-width:.34px" id="path38" d="M 432.405,0 V 22.59"/><path style="fill:none;fill-opacity:.75;stroke:#00f;stroke-width:.34px" id="path40" d="M 455.872,0 V 22.59"/><path style="fill:none;fill-opacity:.75;stroke:#00f;stroke-width:.34px" id="path42" d="M 479.34,0 V 22.59"/><text style="font-size:14.8429px;font-family:Arial;fill:#00f;stroke-width:1px" id="text44" x="288.68" y="41.021" transform="scale(0.999523,1.00048)">1</text><text style="font-size:14.8429px;font-family:Arial;fill:#00f;stroke-width:1px" id="text46" x="311.709" y="41.021" transform="scale(0.999523,1.00048)">2</text><text style="font-size:14.8429px;font-family:Arial;fill:#00f;stroke-width:1px" id="text48" x="335.008" y="40.931" transform="scale(0.999523,1.00048)">3</text><text style="font-size:14.8429px;font-family:Arial;fill:#00f;stroke-width:1px" id="text50" x="358.666" y="41.021" transform="scale(0.999523,1.00048)">4</text><text style="font-size:14.8429px;font-family:Arial;fill:#00f;stroke-width:1px" id="text52" x="381.875" y="40.841" transform="scale(0.999523,1.00048)">5</text><text style="font-size:14.8429px;font-family:Arial;fill:#00f;stroke-width:1px" id="text54" x="405.354" y="40.931" transform="scale(0.999523,1.00048)">6</text><text style="font-size:14.8429px;font-family:Arial;fill:#00f;stroke-width:1px" id="text56" x="428.743" y="40.931" transform="scale(0.999523,1.00048)">7</text><text style="font-size:14.8429px;font-family:Arial;fill:red;stroke-width:1px" id="text58" x="238.394" y="41.021" transform="scale(0.999523,1.00048)">-1</text><text style="font-size:14.8429px;font-family:Arial;fill:red;stroke-width:1px" id="text60" x="214.015" y="41.021" transform="scale(0.999523,1.00048)">-2</text><text style="font-size:14.8429px;font-family:Arial;fill:red;stroke-width:1px" id="text62" x="190.536" y="40.931" transform="scale(0.999523,1.00048)">-3</text><text style="font-size:14.8429px;font-family:Arial;fill:red;stroke-width:1px" id="text64" x="167.057" y="41.021" transform="scale(0.999523,1.00048)">-4</text><text style="font-size:14.8429px;font-family:Arial;fill:red;stroke-width:1px" id="text66" x="143.579" y="40.841" transform="scale(0.999523,1.00048)">-5</text><text style="font-size:14.8429px;font-family:Arial;fill:red;stroke-width:1px" id="text68" x="120.19" y="40.931" transform="scale(0.999523,1.00048)">-6</text><text style="font-size:14.8429px;font-family:Arial;fill:red;stroke-width:1px" id="text70" x="96.71" y="40.931" transform="scale(0.999523,1.00048)">-7</text><text style="font-size:14.8429px;font-family:Arial;fill:red;stroke-width:1px" id="text72" x="73.322" y="40.931" transform="scale(0.999523,1.00048)">-8</text><text style="font-size:14.8429px;font-family:Arial;fill:red;stroke-width:1px" id="text74" x="49.843" y="40.931" transform="scale(0.999523,1.00048)">-9</text><text style="font-size:14.8429px;font-family:Arial;fill:#00f;stroke-width:1px" id="text76" x="452.222" y="40.931" transform="scale(0.999523,1.00048)">8</text><text style="font-size:14.8429px;font-family:Arial;fill:#00f;stroke-width:1px" id="text78" x="475.701" y="40.931" transform="scale(0.999523,1.00048)">9</text><path style="fill:none;fill-opacity:.75;stroke:red;stroke-width:.34px" id="path80" d="M 103.767,0 V 22.59"/><path style="fill:none;fill-opacity:.75;stroke:red;stroke-width:.34px" id="path82" d="M 221.105,0 V 22.59"/><path style="fill:none;fill-opacity:.75;stroke:red;stroke-width:.34px" id="path84" d="M 33.3645,0 V 22.59"/><text style="font-size:14.8429px;font-family:Arial;fill:red;stroke-width:1px" id="text86" x="22.316" y="40.931" transform="scale(0.999523,1.00048)">-10</text><path style="fill:none;fill-opacity:.75;stroke:#00f;stroke-width:.34px" id="path88" d="M 502.808,0 V 22.59"/><text style="font-size:14.8429px;font-family:Arial;fill:#00f;stroke-width:1px" id="text90" x="494.503" y="40.931" transform="scale(0.999523,1.00048)">10</text><path style="fill:none;fill-opacity:.75;stroke:#00f;stroke-width:1.3;marker-end:url(#aa1)" id="path92" d="M 267.411,12.69 H 533.379"/><path style="fill:none;fill-opacity:.75;stroke:red;stroke-width:1.3;marker-start:url(#aa2)" id="path94" d="M 2.52377,12.69 H 267.861"/><text style="font-size:21.4999px;font-family:Arial;fill:#f60;stroke-width:1px" id="text96" x="262.952" y="42.28" transform="scale(0.999523,1.00048)">0</text></svg>