<svg xmlns="http://www.w3.org/2000/svg" xmlns:svg="http://www.w3.org/2000/svg" style="font-size:25.1px;font-family:'Trebuchet MS';fill:#c17d11;stroke-width:1px" id="svg13701" width="199.641" height="108.461" version="1.1"><path style="stroke-width:2;stop-color:#000" id="path13661" d="m 21.5375,65.3808 c 6.2,7.2 7.5,17.3 3.4,21.2 -4.1,3.9 -13.3,2.4 -19.50003,-4.8 -6.2,-7.2 -7,-17.3 -2.9,-21.2 4.1,-3.9 12.80003,-2.3 19.00003,4.9 z"/><path style="stroke-width:2;stop-color:#000" id="path13663" d="m 73.9375,53.5808 c -4.1,8.5 -2.8,18.6 2.1,21.3 5,2.7 13.5,-1.1 17.6,-9.7 4.1,-8.5 2.3,-18.6 -2.6,-21.3 -5,-2.7 -13,1.1 -17.1,9.6 z"/><path style="stroke-width:2;stop-color:#000" id="path13665" d="m 47.0375,39.0808 c -0.9,10.1 4,19.6 9.8,20.5 5.8,0.9 12.8,-6.1 13.7,-16.1 0.9,-10.1 -4.5,-19.4 -10.3,-20.3 -5.8,-0.9 -12.3,5.8 -13.2,15.9 z"/><path style="stroke-width:2;stop-color:#000" id="path13667" d="m 39.7375,40.2808 c 3.5,9.4 1.2,19.9 -4.2,22.2 -5.4,2.3 -13.9,-2.6 -17.4,-12 -3.5,-9.4 -0.7,-19.7 4.8,-22.1 5.4,-2.3 13.4,2.4 16.9,11.8 z"/><path id="path13669" d="m 35.8991,83.249 c 5.85,-7.84 3.6901,-12.88 15.3001,-14 11.61,-1.12 8.64,4 19.62,11.12 10.98,7.12 13.5,15.2 8.6399,21.6 -4.9499,6.4 -12.7799,0.08 -22.59,1.04 -9.8099,0.96 -18.54,10.08 -25.47,2.4 -6.9299,-7.68 -1.3499,-14.4 4.5,-22.24 z" style="stroke-width:.999999px"/><path style="stroke-width:2;stop-color:#000" id="path13671" d="m 177.437,42.4808 c -6.4,7.4 -7.7,17.7 -3.5,21.7 4.2,4 13.7,2.4 20.1,-5 6.4,-7.4 7.2,-17.8 3,-21.8 -4.2,-4 -13.2,-2.4 -19.6,5 z"/><path style="stroke-width:2;stop-color:#000" id="path13673" d="m 124.937,30.5808 c 4.1,8.5 2.8,18.6 -2.1,21.3 -5,2.7 -13.5,-1.1 -17.6,-9.7 -4.1,-8.5 -2.3,-18.6 2.6,-21.3 5,-2.7 13,1.1 17.1,9.6 z"/><path style="stroke-width:2;stop-color:#000" id="path13675" d="m 151.837,15.9808 c 0.9,10.1 -4,19.6 -9.8,20.5 -5.8,0.9 -12.8,-6.1 -13.7,-16.1 -0.9,-10.1 4.5,-19.399972 10.3,-20.299972 5.8,-0.9 12.3,5.800002 13.3,15.899972 z"/><path style="stroke-width:2;stop-color:#000" id="path13677" d="m 159.137,17.2808 c -3.5,9.4 -1.2,19.9 4.2,22.2 5.4,2.3 13.9,-2.6 17.4,-12 3.5,-9.4 0.7,-19.69997 -4.8,-22.09997 -5.4,-2.3 -13.4,2.4 -16.9,11.79997 z"/><path id="path13679" d="m 164.363,60.0786 c -6.21,-8.32 -3.871,-13.6 -16.201,-14.8 -12.329,-1.2 -9.09,4.24 -20.699,11.76 -11.61,7.52 -14.31,16.08 -9.09,22.88 5.22,6.8 13.5,0.08 23.849,1.04 10.351,1.04 19.621,10.72 26.911,2.56 7.29,-8.08 1.44,-15.2 -4.77,-23.52 z" style="stroke-width:.999999px"/><text style="fill:#fff" id="text13681" x="6.037" y="81.781">1</text><text style="fill:#fff" id="text13683" x="52.138" y="49.881">3</text><text style="fill:#fff" id="text13685" x="76.138" y="67.481">4</text><text style="fill:#fff" id="text13687" x="109.237" y="44.681">5</text><text style="fill:#fff" id="text13689" x="133.937" y="26.381">6</text><text style="fill:#fff" id="text13691" x="164.237" y="32.581">7</text><text style="fill:#fff" id="text13693" x="183.537" y="59.381">0</text><text style="fill:#fff" id="text13695" x="22.637" y="53.881">2</text><text style="fill:#fff" id="text13697" x="173.537" y="59.281">1</text></svg>