<svg xmlns="http://www.w3.org/2000/svg" xmlns:svg="http://www.w3.org/2000/svg" id="Layer_1" width="53.472" height="49.384" space="preserve" version="1.1" viewBox="0 0 53.472 49.384" style="overflow:visible"><g id="text234843" aria-label="%" style="font-weight:700;font-size:68.6153px;line-height:85.769px;font-family:'Segoe UI';-inkscape-font-specification:'Segoe UI Bold';letter-spacing:0;word-spacing:0;baseline-shift:baseline;display:inline;overflow:visible;opacity:1;fill:#f60;stroke-width:.999997px;enable-background:accumulate"><path id="path235891" d="m 11.3912,25.0272 q -5.12603,0 -8.27537,-3.2499 Q 0,18.5275 0,13.0329 0,7.03576 3.31685,3.51789 6.66721,1.41934e-5 12.2288,1.41934e-5 q 5.3271,0 8.3089,3.1828358066 3.0153,3.18284 3.0153,8.94545 0,5.9301 -3.3168,9.4145 -3.3169,3.4844 -8.845,3.4844 z M 12.0278,5.89664 q -4.89154,0 -4.89154,6.80126 0,6.4327 4.65704,6.4327 4.7575,0 4.7575,-6.7008 0,-6.53316 -4.523,-6.53316 z M 46.4694,0.670086 15.1771,48.7142 H 7.00225 L 38.2276,0.670086 Z M 41.3099,49.3843 q -5.126,0 -8.2754,-3.2499 -3.1158,-3.2498 -3.1158,-8.7444 0,-5.9971 3.3168,-9.515 3.3504,-3.5179 8.912,-3.5179 5.3606,0 8.3424,3.1493 2.9818,3.1494 2.9818,8.912 0,5.9301 -3.3169,9.448 -3.3168,3.5179 -8.8449,3.5179 z M 41.846,30.2537 q -4.8581,0 -4.8581,6.8013 0,6.4326 4.724,6.4326 4.7575,0 4.7575,-6.7007 0,-3.1158 -1.2731,-4.8245 -1.2731,-1.7087 -3.3503,-1.7087 z"/></g><metadata id="metadata2"/></svg>