<svg xmlns="http://www.w3.org/2000/svg" xmlns:svg="http://www.w3.org/2000/svg" id="svg79" width="142.056" height="173.993" version="1.1"><metadata id="metadata83"/><defs id="defs17"><marker style="overflow:visible" id="marker1858" orient="auto" refX="0" refY="0"><path style="fill:#000;fill-opacity:1;fill-rule:evenodd;stroke:#000;stroke-width:1pt;stroke-opacity:1" id="path1856" d="M 0,0 5,-5 -12.5,0 5,5 Z" transform="matrix(-0.4,0,0,-0.4,-4,0)"/></marker><marker style="overflow:visible" id="marker1785" orient="auto" refX="0" refY="0"><path style="fill:#000;fill-opacity:1;fill-rule:evenodd;stroke:#000;stroke-width:1pt;stroke-opacity:1" id="path1783" d="M 0,0 5,-5 -12.5,0 5,5 Z" transform="matrix(0.4,0,0,0.4,4,0)"/></marker><marker style="overflow:visible" id="Arrow1Mend" orient="auto" refX="0" refY="0"><path style="fill:#edd400;fill-opacity:1;fill-rule:evenodd;stroke:#edd400;stroke-width:1pt;stroke-opacity:1" id="path1210" d="M 0,0 5,-5 -12.5,0 5,5 Z" transform="matrix(-0.4,0,0,-0.4,-4,0)"/></marker><marker style="overflow:visible" id="Arrow1Mstart" orient="auto" refX="0" refY="0"><path style="fill:#edd400;fill-opacity:1;fill-rule:evenodd;stroke:#edd400;stroke-width:1pt;stroke-opacity:1" id="path1207" d="M 0,0 5,-5 -12.5,0 5,5 Z" transform="matrix(0.4,0,0,0.4,4,0)"/></marker><marker style="overflow:visible" id="Arrow1Lstart" orient="auto" refX="0" refY="0"><path style="fill:#f57900;fill-opacity:1;fill-rule:evenodd;stroke:#f57900;stroke-width:1pt;stroke-opacity:1" id="path1201" d="M 0,0 5,-5 -12.5,0 5,5 Z" transform="matrix(0.8,0,0,0.8,10,0)"/></marker><marker style="overflow:visible" id="id4" orient="auto"><path id="path2" d="M 0,0 5,-5 -12.5,0 5,5 Z" transform="matrix(-0.4,0,0,-0.4,-4,0)" style="stroke:#000;stroke-width:1pt"/></marker><marker style="overflow:visible" id="id3" orient="auto"><path id="path5" d="M 0,0 5,-5 -12.5,0 5,5 Z" transform="matrix(0.4,0,0,0.4,4,0)" style="stroke:#000;stroke-width:1pt"/></marker><marker style="overflow:visible" id="id1" orient="auto"><path id="path8" d="M 0,0 5,-5 -12.5,0 5,5 Z" transform="matrix(0.4,0,0,0.4,4,0)" style="fill:#3465a4;stroke:#3465a4;stroke-width:1pt"/></marker><marker style="overflow:visible" id="id2" orient="auto"><path id="path11" d="M 0,0 5,-5 -12.5,0 5,5 Z" transform="matrix(-0.4,0,0,-0.4,-4,0)" style="fill:#3465a4;stroke:#3465a4;stroke-width:1pt"/></marker><marker style="overflow:visible" id="id5" orient="auto"><path id="path14" d="M 0,0 5,-5 -12.5,0 5,5 Z" transform="matrix(0.4,0,0,0.4,4,0)" style="fill:#f57900;stroke:#f57900;stroke-width:1pt"/></marker></defs><path id="path19" d="M 55.9818,37.4301 C 38.1359,41.6293 22.3577,53.4149 13.1038,69.1491 3.72284,84.6761 0.889394,103.91 5.42885,121.518 9.9057,139.538 22.1185,155.455 38.286,164.53 c 15.757,9.012 35.1283,11.417 52.6516,6.503 18.0834,-4.887 33.7294,-17.59 42.4184,-34.064 8.641,-15.988 10.504,-35.313 5.063,-52.7149 C 133.222,66.8751 120.749,51.8875 104.72,43.413 89.9329,35.5215 72.2761,33.3521 55.9818,37.4301 Z" style="fill:#fce94f;fill-opacity:.2;stroke-width:.123252"/><path id="path21" d="M 126.743,61.5471 C 149.13,91.0731 142.97,135.477 113.494,158.311 84.0187,181.145 41.8105,176.606 17.8563,148.076 -6.09691,119.546 -3.19237,77.2231 24.3926,52.1496 51.9764,27.0766 96.9,29.4589 122.386,56.44" style="fill:none;stroke:#edd400;stroke-width:3.093;stroke-miterlimit:4;stroke-dasharray:none;stroke-dashoffset:0;stroke-opacity:1;marker-start:url(#Arrow1Mstart);marker-end:url(#Arrow1Mend)"/><text id="text71" x="56.238" y="27.415" transform="rotate(0.293472)" style="color:#000;font-style:normal;font-variant:normal;font-weight:400;font-stretch:normal;font-size:61.944145px;font-family:'Times New Roman';-inkscape-font-specification:'Times New Roman, Normal';font-variant-ligatures:normal;font-variant-caps:normal;font-variant-numeric:normal;font-feature-settings:normal;text-align:start;writing-mode:lr-tb;text-anchor:start;fill:#edd400;fill-opacity:1;stroke-width:.405662">π</text><path id="path1781" d="M 2.44781,104.475 H 139.608" style="fill:none;fill-rule:evenodd;stroke:#000;stroke-width:2.142;stroke-linecap:butt;stroke-linejoin:miter;stroke-miterlimit:4;stroke-dasharray:none;stroke-opacity:1;marker-start:url(#marker1785);marker-end:url(#marker1858)"/><text id="text2195" x="59.975" y="99.574" xml:space="preserve" style="color:#000;font-style:normal;font-variant:normal;font-weight:400;font-stretch:normal;font-size:53.094982px;line-height:20.740227px;font-family:Georgia;-inkscape-font-specification:'Georgia, Normal';font-variant-ligatures:normal;font-variant-caps:normal;font-variant-numeric:normal;font-feature-settings:normal;text-indent:0;text-align:start;text-decoration:none;text-decoration-line:none;text-decoration-style:solid;text-decoration-color:#000;letter-spacing:0;word-spacing:0;text-transform:none;writing-mode:lr-tb;direction:ltr;baseline-shift:baseline;text-anchor:start;white-space:normal;clip-rule:nonzero;display:inline;overflow:visible;visibility:visible;opacity:1;isolation:auto;mix-blend-mode:normal;color-interpolation:sRGB;color-interpolation-filters:linearRGB;solid-color:#000;solid-opacity:1;fill:#000;fill-opacity:1;fill-rule:nonzero;stroke:none;stroke-width:.829609px;stroke-linecap:butt;stroke-linejoin:miter;stroke-miterlimit:4;stroke-dasharray:none;stroke-dashoffset:0;stroke-opacity:1;color-rendering:auto;image-rendering:auto;shape-rendering:auto;text-rendering:auto;enable-background:accumulate"><tspan style="stroke-width:.829609px" id="tspan2193" x="59.975" y="99.574">1</tspan></text></svg>