<svg xmlns="http://www.w3.org/2000/svg" xmlns:svg="http://www.w3.org/2000/svg" xmlns:xlink="http://www.w3.org/1999/xlink" id="Test File" width="91.39" height="91.837" preserveAspectRatio="xMidYMid meet" version="1.1" viewBox="-21 -21 4.798 4.821" zoomAndPan="magnify"><metadata id="metadata33"/><defs id="defs3"><marker style="overflow:visible" id="Arrow1Mstart" orient="auto" refX="0" refY="0"><path style="fill:context-stroke;fill-rule:evenodd;stroke:context-stroke;stroke-width:1pt" id="path906" d="M 0,0 5,-5 -12.5,0 5,5 Z" transform="matrix(0.4,0,0,0.4,4,0)"/></marker><marker style="overflow:visible" id="Arrow1Lstart" orient="auto" refX="0" refY="0"><path style="fill:context-stroke;fill-rule:evenodd;stroke:context-stroke;stroke-width:1pt" id="path900" d="M 0,0 5,-5 -12.5,0 5,5 Z" transform="matrix(0.8,0,0,0.8,10,0)"/></marker><radialGradient id="shine" cx="-12" cy="-12" r="20" fx="-12" fy="-12" gradientUnits="userSpaceOnUse"><stop id="stop6" offset="0" stop-color="#fff" stop-opacity=".7"/><stop id="stop8" offset="1" stop-color="#fff" stop-opacity="0"/></radialGradient><radialGradient id="grad" cx="0" cy="0" r="20.075" fx="0" fy="0" gradientUnits="userSpaceOnUse"><stop id="stop11" offset="0" stop-color="#ff0"/><stop id="stop13" offset=".75" stop-color="#ff0"/><stop id="stop15" offset=".95" stop-color="#ee0"/><stop id="stop17" offset="1" stop-color="#e8e800"/></radialGradient><radialGradient id="radialGradient5576" cx="0" cy="0" r="20.075" fx="0" fy="0" gradientUnits="userSpaceOnUse" xlink:href="#grad"/><radialGradient id="radialGradient5578" cx="-12" cy="-12" r="20" fx="-12" fy="-12" gradientUnits="userSpaceOnUse" xlink:href="#shine"/><radialGradient id="radialGradient5614" cx="0" cy="0" r="20.075" fx="0" fy="0" gradientTransform="matrix(0.118999,0,0,0.118998,-18.6153,-18.5632)" gradientUnits="userSpaceOnUse" xlink:href="#grad"/><radialGradient id="radialGradient5616" cx="-12" cy="-12" r="20" fx="-12" fy="-12" gradientTransform="matrix(0.118999,0,0,0.118998,-18.6153,-18.5632)" gradientUnits="userSpaceOnUse" xlink:href="#shine"/></defs><ellipse style="fill:url(#radialGradient5614);stroke:#000;stroke-width:.00941476" id="circle19" cx="-18.615" cy="-18.563" rx="2.38" ry="2.38"/><ellipse style="fill:url(#radialGradient5616);stroke-width:.0627651" id="circle21" cx="-18.615" cy="-18.563" rx="2.38" ry="2.38"/><g id="use28" transform="matrix(-0.118998,0,0,0.118998,-18.6154,-18.563)" style="stroke-width:.527445"><ellipse style="fill:#000;stroke-width:.527445" id="ellipse1343" cx="-6" cy="-7" rx="2.5" ry="4" transform="matrix(0.062765,0,0,0.062765,-19.7475,-19.7888)"/><path style="fill:none;stroke:#000;stroke-width:.263722;stroke-linecap:round" id="path1345" d="m 10.6,2.7 a 4,4 0 0 0 4,3" transform="matrix(0.062765,0,0,0.062765,-19.7475,-19.7888)"/></g><path style="fill:none;fill-rule:evenodd;stroke:#000;stroke-width:.07875;stroke-linecap:butt;stroke-linejoin:miter;stroke-miterlimit:4;stroke-dasharray:none;stroke-opacity:1" id="path898" d="m -20.9969,-18.5275 h 4.7777"/><ellipse style="color:#000;overflow:visible;fill:#fff;stroke:#ffff3e;stroke-width:.0525001;stroke-miterlimit:4;stroke-dasharray:none;stop-color:#000" id="path1533" cx="-23.83" cy="-13.856" rx=".481" ry=".667" transform="rotate(15)"/><ellipse style="color:#000;overflow:visible;fill:#000;stroke:none;stroke-width:.0525;stroke-miterlimit:4;stroke-dasharray:none;stop-color:#000" id="circle1839" cx="-19.567" cy="-19.558" rx=".189" ry=".189"/><ellipse style="color:#000;overflow:visible;fill:#fff;stroke:#ffff3e;stroke-width:.0525001;stroke-miterlimit:4;stroke-dasharray:none;stop-color:#000" id="ellipse1921" cx="12.083" cy="-23.427" rx=".481" ry=".667" transform="matrix(-0.965926,0.258818,0.258819,0.965926,0,0)"/><ellipse style="color:#000;overflow:visible;fill:#000;stroke:none;stroke-width:.0525;stroke-miterlimit:4;stroke-dasharray:none;stop-color:#000" id="circle1721" cx="-17.863" cy="-19.515" rx=".189" ry=".189"/></svg>