<svg xmlns="http://www.w3.org/2000/svg" xmlns:svg="http://www.w3.org/2000/svg" id="svg266" width="376.383" height="140.671" version="1.1"><desc id="desc2">SVG Output</desc><rect id="rect4" width="1" height="25" x="29.5" y="100.5" fill="#36a" fill-opacity="1" stroke="#36a" stroke-width="1"/><rect id="rect8" width="1" height="25" x="47.5" y="100.5" fill="#36a" fill-opacity="1" stroke="#36a" stroke-width="1"/><rect id="rect12" width="1" height="25" x="51.5" y="100.5" fill="#36a" fill-opacity="1" stroke="#36a" stroke-width="1"/><rect id="rect16" width="1" height="25" x="53.5" y="100.5" fill="#36a" fill-opacity="1" stroke="#36a" stroke-width="1"/><rect id="rect20" width="1" height="25" x="57.5" y="100.5" fill="#36a" fill-opacity="1" stroke="#36a" stroke-width="1"/><rect id="rect24" width="1" height="25" x="59.5" y="100.5" fill="#36a" fill-opacity="1" stroke="#36a" stroke-width="1"/><text style="font-style:normal;font-variant:normal;font-weight:400;font-stretch:normal;font-size:14px;line-height:normal;font-family:Arial;text-anchor:middle;fill:#36a;stroke:none" id="text26" x="62.617" y="140.5"><tspan id="tspan2416" x="62.617" y="140.5">950</tspan></text><rect id="rect28" width="1" height="50" x="65.5" y="75.5" fill="#36a" fill-opacity="1" stroke="#36a" stroke-width="1"/><rect id="rect32" width="1" height="25" x="67.5" y="100.5" fill="#36a" fill-opacity="1" stroke="#36a" stroke-width="1"/><rect id="rect36" width="1" height="25" x="71.5" y="100.5" fill="#36a" fill-opacity="1" stroke="#36a" stroke-width="1"/><rect id="rect40" width="1" height="50" x="83.5" y="75.5" fill="#36a" fill-opacity="1" stroke="#36a" stroke-width="1"/><rect id="rect44" width="1" height="50" x="85.5" y="75.5" fill="#36a" fill-opacity="1" stroke="#36a" stroke-width="1"/><rect id="rect48" width="1" height="25" x="91.5" y="100.5" fill="#36a" fill-opacity="1" stroke="#36a" stroke-width="1"/><rect id="rect52" width="1" height="75" x="93.5" y="50.5" fill="#36a" fill-opacity="1" stroke="#36a" stroke-width="1"/><rect id="rect56" width="1" height="25" x="95.5" y="100.5" fill="#36a" fill-opacity="1" stroke="#36a" stroke-width="1"/><rect id="rect60" width="1" height="50" x="97.5" y="75.5" fill="#36a" fill-opacity="1" stroke="#36a" stroke-width="1"/><rect id="rect64" width="1" height="25" x="101.5" y="100.5" fill="#36a" fill-opacity="1" stroke="#36a" stroke-width="1"/><rect id="rect68" width="1" height="125" x="103.5" y=".5" fill="#36a" fill-opacity="1" stroke="#36a" stroke-width="1"/><rect id="rect72" width="1" height="25" x="105.5" y="100.5" fill="#36a" fill-opacity="1" stroke="#36a" stroke-width="1"/><rect id="rect76" width="1" height="25" x="109.5" y="100.5" fill="#36a" fill-opacity="1" stroke="#36a" stroke-width="1"/><rect id="rect80" width="1" height="50" x="111.5" y="75.5" fill="#36a" fill-opacity="1" stroke="#36a" stroke-width="1"/><text style="font-style:normal;font-variant:normal;font-weight:400;font-stretch:normal;font-size:14px;line-height:normal;font-family:Arial;text-anchor:middle;fill:#36a;stroke:none" id="text82" x="112.538" y="140.5">975</text><rect id="rect84" width="1" height="25" x="119.5" y="100.5" fill="#36a" fill-opacity="1" stroke="#36a" stroke-width="1"/><rect id="rect88" width="1" height="25" x="123.5" y="100.5" fill="#36a" fill-opacity="1" stroke="#36a" stroke-width="1"/><rect id="rect92" width="1" height="50" x="125.5" y="75.5" fill="#36a" fill-opacity="1" stroke="#36a" stroke-width="1"/><rect id="rect96" width="1" height="25" x="135.5" y="100.5" fill="#36a" fill-opacity="1" stroke="#36a" stroke-width="1"/><rect id="rect100" width="1" height="50" x="145.5" y="75.5" fill="#36a" fill-opacity="1" stroke="#36a" stroke-width="1"/><rect id="rect104" width="1" height="25" x="147.5" y="100.5" fill="#36a" fill-opacity="1" stroke="#36a" stroke-width="1"/><rect id="rect108" width="1" height="25" x="149.5" y="100.5" fill="#36a" fill-opacity="1" stroke="#36a" stroke-width="1"/><rect id="rect112" width="1" height="25" x="153.5" y="100.5" fill="#36a" fill-opacity="1" stroke="#36a" stroke-width="1"/><rect id="rect116" width="1" height="50" x="155.5" y="75.5" fill="#36a" fill-opacity="1" stroke="#36a" stroke-width="1"/><rect id="rect120" width="1" height="75" x="157.5" y="50.5" fill="#36a" fill-opacity="1" stroke="#36a" stroke-width="1"/><rect id="rect124" width="1" height="25" x="161.5" y="100.5" fill="#36a" fill-opacity="1" stroke="#36a" stroke-width="1"/><text style="font-style:normal;font-variant:normal;font-weight:400;font-stretch:normal;font-size:14px;line-height:normal;font-family:Arial;text-anchor:middle;fill:#36a;stroke:none" id="text126" x="162.097" y="140.5">1000</text><rect id="rect128" width="1" height="75" x="163.5" y="50.5" fill="#36a" fill-opacity="1" stroke="#36a" stroke-width="1"/><rect id="rect132" width="1" height="25" x="167.5" y="100.5" fill="#36a" fill-opacity="1" stroke="#36a" stroke-width="1"/><rect id="rect136" width="1" height="25" x="169.5" y="100.5" fill="#36a" fill-opacity="1" stroke="#36a" stroke-width="1"/><rect id="rect140" width="1" height="50" x="175.5" y="75.5" fill="#36a" fill-opacity="1" stroke="#36a" stroke-width="1"/><rect id="rect144" width="1" height="100" x="177.5" y="25.5" fill="#36a" fill-opacity="1" stroke="#36a" stroke-width="1"/><rect id="rect148" width="1" height="50" x="179.5" y="75.5" fill="#36a" fill-opacity="1" stroke="#36a" stroke-width="1"/><rect id="rect152" width="1" height="25" x="181.5" y="100.5" fill="#36a" fill-opacity="1" stroke="#36a" stroke-width="1"/><rect id="rect156" width="1" height="25" x="183.5" y="100.5" fill="#36a" fill-opacity="1" stroke="#36a" stroke-width="1"/><rect id="rect160" width="1" height="50" x="185.5" y="75.5" fill="#36a" fill-opacity="1" stroke="#36a" stroke-width="1"/><rect id="rect164" width="1" height="50" x="189.5" y="75.5" fill="#36a" fill-opacity="1" stroke="#36a" stroke-width="1"/><rect id="rect168" width="1" height="25" x="191.5" y="100.5" fill="#36a" fill-opacity="1" stroke="#36a" stroke-width="1"/><rect id="rect172" width="1" height="25" x="193.5" y="100.5" fill="#36a" fill-opacity="1" stroke="#36a" stroke-width="1"/><rect id="rect176" width="1" height="100" x="195.5" y="25.5" fill="#36a" fill-opacity="1" stroke="#36a" stroke-width="1"/><rect id="rect180" width="1" height="25" x="199.5" y="100.5" fill="#36a" fill-opacity="1" stroke="#36a" stroke-width="1"/><rect id="rect184" width="1" height="75" x="201.5" y="50.5" fill="#36a" fill-opacity="1" stroke="#36a" stroke-width="1"/><rect id="rect188" width="1" height="25" x="209.5" y="100.5" fill="#36a" fill-opacity="1" stroke="#36a" stroke-width="1"/><rect id="rect192" width="1" height="25" x="211.5" y="100.5" fill="#36a" fill-opacity="1" stroke="#36a" stroke-width="1"/><text style="font-style:normal;font-variant:normal;font-weight:400;font-stretch:normal;font-size:14px;line-height:normal;font-family:Arial;text-anchor:middle;fill:#36a;stroke:none" id="text194" x="212.018" y="140.5">1025</text><rect id="rect196" width="1" height="50" x="215.5" y="75.5" fill="#36a" fill-opacity="1" stroke="#36a" stroke-width="1"/><rect id="rect200" width="1" height="50" x="219.5" y="75.5" fill="#36a" fill-opacity="1" stroke="#36a" stroke-width="1"/><rect id="rect204" width="1" height="25" x="221.5" y="100.5" fill="#36a" fill-opacity="1" stroke="#36a" stroke-width="1"/><rect id="rect208" width="1" height="50" x="223.5" y="75.5" fill="#36a" fill-opacity="1" stroke="#36a" stroke-width="1"/><rect id="rect212" width="1" height="25" x="225.5" y="100.5" fill="#36a" fill-opacity="1" stroke="#36a" stroke-width="1"/><rect id="rect216" width="1" height="25" x="227.5" y="100.5" fill="#36a" fill-opacity="1" stroke="#36a" stroke-width="1"/><rect id="rect220" width="1" height="25" x="229.5" y="100.5" fill="#36a" fill-opacity="1" stroke="#36a" stroke-width="1"/><rect id="rect224" width="1" height="25" x="241.5" y="100.5" fill="#36a" fill-opacity="1" stroke="#36a" stroke-width="1"/><rect id="rect228" width="1" height="25" x="243.5" y="100.5" fill="#36a" fill-opacity="1" stroke="#36a" stroke-width="1"/><rect id="rect232" width="1" height="25" x="245.5" y="100.5" fill="#36a" fill-opacity="1" stroke="#36a" stroke-width="1"/><rect id="rect236" width="1" height="50" x="249.5" y="75.5" fill="#36a" fill-opacity="1" stroke="#36a" stroke-width="1"/><rect id="rect240" width="1" height="25" x="253.5" y="100.5" fill="#36a" fill-opacity="1" stroke="#36a" stroke-width="1"/><rect id="rect244" width="1" height="50" x="257.5" y="75.5" fill="#36a" fill-opacity="1" stroke="#36a" stroke-width="1"/><text style="font-style:normal;font-variant:normal;font-weight:400;font-stretch:normal;font-size:14px;line-height:normal;font-family:Arial;text-anchor:middle;fill:#36a;stroke:none" id="text246" x="262.048" y="140.5">1050</text><rect id="rect248" width="1" height="25" x="269.5" y="100.5" fill="#36a" fill-opacity="1" stroke="#36a" stroke-width="1"/><rect id="rect252" width="1" height="25" x="289.5" y="100.5" fill="#36a" fill-opacity="1" stroke="#36a" stroke-width="1"/><rect id="rect256" width="1" height="25" x="311.5" y="100.5" fill="#36a" fill-opacity="1" stroke="#36a" stroke-width="1"/><text style="font-style:normal;font-variant:normal;font-weight:400;font-stretch:normal;font-size:14px;line-height:normal;font-family:Arial;text-anchor:middle;fill:#36a;stroke:none" id="text258" x="311.969" y="140.5">1075</text><rect id="rect260" width="1" height="25" x="361.5" y="100.5" fill="#36a" fill-opacity="1" stroke="#36a" stroke-width="1"/><text style="font-style:normal;font-variant:normal;font-weight:400;font-stretch:normal;font-size:14px;line-height:normal;font-family:Arial;text-anchor:middle;fill:#36a;stroke:none" id="text262" x="362" y="140.5">1100</text><rect id="rect264" width="334.718" height=".869" x="0" y="-125.874" fill="#aaa" fill-opacity="1" stroke="#36a" stroke-width="0" transform="scale(1,-1)"/><text style="font-style:normal;font-variant:normal;font-weight:400;font-stretch:normal;font-size:14px;line-height:normal;font-family:Arial;text-anchor:middle;fill:#36a;stroke:none" id="text4160" x="12.617" y="140.5"><tspan id="tspan4158" x="12.617" y="140.5">925</tspan></text></svg>