<svg xmlns="http://www.w3.org/2000/svg" xmlns:svg="http://www.w3.org/2000/svg" id="svg154" width="261.002" height="190.678" version="1.1"><desc id="desc2">SVG Output</desc><rect id="rect4" width="2.5" height="25" x="28.75" y="150.5" fill="#36a" fill-opacity="1" stroke="#36a" stroke-width="1"/><text style="font-style:normal;font-variant:normal;font-weight:400;font-stretch:normal;font-size:14px;line-height:normal;font-family:Arial;text-anchor:middle;fill:#36a;stroke:none" id="text6" x="30" y="190.5">80</text><rect id="rect8" width="2.5" height="25" x="38.75" y="150.5" fill="#36a" fill-opacity="1" stroke="#36a" stroke-width="1"/><rect id="rect12" width="2.5" height="50" x="43.75" y="125.5" fill="#36a" fill-opacity="1" stroke="#36a" stroke-width="1"/><rect id="rect16" width="2.5" height="25" x="53.75" y="150.5" fill="#36a" fill-opacity="1" stroke="#36a" stroke-width="1"/><text style="font-style:normal;font-variant:normal;font-weight:400;font-stretch:normal;font-size:14px;line-height:normal;font-family:Arial;text-anchor:middle;fill:#36a;stroke:none" id="text18" x="55" y="190.5">85</text><rect id="rect20" width="2.5" height="50" x="58.75" y="125.5" fill="#36a" fill-opacity="1" stroke="#36a" stroke-width="1"/><rect id="rect24" width="2.5" height="25" x="68.75" y="150.5" fill="#36a" fill-opacity="1" stroke="#36a" stroke-width="1"/><rect id="rect28" width="2.5" height="75" x="73.75" y="100.5" fill="#36a" fill-opacity="1" stroke="#36a" stroke-width="1"/><rect id="rect32" width="2.5" height="75" x="78.75" y="100.5" fill="#36a" fill-opacity="1" stroke="#36a" stroke-width="1"/><text style="font-style:normal;font-variant:normal;font-weight:400;font-stretch:normal;font-size:14px;line-height:normal;font-family:Arial;text-anchor:middle;fill:#36a;stroke:none" id="text34" x="80" y="190.5">90</text><rect id="rect36" width="2.5" height="75" x="83.75" y="100.5" fill="#36a" fill-opacity="1" stroke="#36a" stroke-width="1"/><rect id="rect40" width="2.5" height="75" x="88.75" y="100.5" fill="#36a" fill-opacity="1" stroke="#36a" stroke-width="1"/><rect id="rect44" width="2.5" height="75" x="93.75" y="100.5" fill="#36a" fill-opacity="1" stroke="#36a" stroke-width="1"/><rect id="rect48" width="2.5" height="25" x="98.75" y="150.5" fill="#36a" fill-opacity="1" stroke="#36a" stroke-width="1"/><rect id="rect52" width="2.5" height="100" x="103.75" y="75.5" fill="#36a" fill-opacity="1" stroke="#36a" stroke-width="1"/><text style="font-style:normal;font-variant:normal;font-weight:400;font-stretch:normal;font-size:14px;line-height:normal;font-family:Arial;text-anchor:middle;fill:#36a;stroke:none" id="text54" x="105" y="190.5">95</text><rect id="rect56" width="2.5" height="125" x="108.75" y="50.5" fill="#36a" fill-opacity="1" stroke="#36a" stroke-width="1"/><rect id="rect60" width="2.5" height="100" x="113.75" y="75.5" fill="#36a" fill-opacity="1" stroke="#36a" stroke-width="1"/><rect id="rect64" width="2.5" height="175" x="118.75" y=".5" fill="#36a" fill-opacity="1" stroke="#36a" stroke-width="1"/><rect id="rect68" width="2.5" height="150" x="123.75" y="25.5" fill="#36a" fill-opacity="1" stroke="#36a" stroke-width="1"/><rect id="rect72" width="2.5" height="150" x="128.75" y="25.5" fill="#36a" fill-opacity="1" stroke="#36a" stroke-width="1"/><text style="font-style:normal;font-variant:normal;font-weight:400;font-stretch:normal;font-size:14px;line-height:normal;font-family:Arial;text-anchor:middle;fill:#36a;stroke:none" id="text74" x="130" y="190.5">100</text><rect id="rect76" width="2.5" height="175" x="133.75" y=".5" fill="#36a" fill-opacity="1" stroke="#36a" stroke-width="1"/><rect id="rect80" width="2.5" height="125" x="138.75" y="50.5" fill="#36a" fill-opacity="1" stroke="#36a" stroke-width="1"/><rect id="rect84" width="2.5" height="125" x="143.75" y="50.5" fill="#36a" fill-opacity="1" stroke="#36a" stroke-width="1"/><rect id="rect88" width="2.5" height="25" x="148.75" y="150.5" fill="#36a" fill-opacity="1" stroke="#36a" stroke-width="1"/><rect id="rect92" width="2.5" height="25" x="153.75" y="150.5" fill="#36a" fill-opacity="1" stroke="#36a" stroke-width="1"/><text style="font-style:normal;font-variant:normal;font-weight:400;font-stretch:normal;font-size:14px;line-height:normal;font-family:Arial;text-anchor:middle;fill:#36a;stroke:none" id="text94" x="155" y="190.5">105</text><rect id="rect96" width="2.5" height="75" x="158.75" y="100.5" fill="#36a" fill-opacity="1" stroke="#36a" stroke-width="1"/><rect id="rect100" width="2.5" height="75" x="163.75" y="100.5" fill="#36a" fill-opacity="1" stroke="#36a" stroke-width="1"/><rect id="rect104" width="2.5" height="50" x="168.75" y="125.5" fill="#36a" fill-opacity="1" stroke="#36a" stroke-width="1"/><rect id="rect108" width="2.5" height="25" x="173.75" y="150.5" fill="#36a" fill-opacity="1" stroke="#36a" stroke-width="1"/><rect id="rect112" width="2.5" height="75" x="178.75" y="100.5" fill="#36a" fill-opacity="1" stroke="#36a" stroke-width="1"/><text style="font-style:normal;font-variant:normal;font-weight:400;font-stretch:normal;font-size:14px;line-height:normal;font-family:Arial;text-anchor:middle;fill:#36a;stroke:none" id="text114" x="180" y="190.5">110</text><rect id="rect116" width="2.5" height="25" x="183.75" y="150.5" fill="#36a" fill-opacity="1" stroke="#36a" stroke-width="1"/><rect id="rect120" width="2.5" height="25" x="188.75" y="150.5" fill="#36a" fill-opacity="1" stroke="#36a" stroke-width="1"/><rect id="rect124" width="2.5" height="25" x="193.75" y="150.5" fill="#36a" fill-opacity="1" stroke="#36a" stroke-width="1"/><rect id="rect128" width="2.5" height="50" x="198.75" y="125.5" fill="#36a" fill-opacity="1" stroke="#36a" stroke-width="1"/><rect id="rect132" width="2.5" height="75" x="203.75" y="100.5" fill="#36a" fill-opacity="1" stroke="#36a" stroke-width="1"/><text style="font-style:normal;font-variant:normal;font-weight:400;font-stretch:normal;font-size:14px;line-height:normal;font-family:Arial;text-anchor:middle;fill:#36a;stroke:none" id="text134" x="205" y="190.5">115</text><rect id="rect136" width="2.5" height="50" x="208.75" y="125.5" fill="#36a" fill-opacity="1" stroke="#36a" stroke-width="1"/><rect id="rect140" width="2.5" height="25" x="218.75" y="150.5" fill="#36a" fill-opacity="1" stroke="#36a" stroke-width="1"/><rect id="rect144" width="2.5" height="25" x="233.75" y="150.5" fill="#36a" fill-opacity="1" stroke="#36a" stroke-width="1"/><text style="font-style:normal;font-variant:normal;font-weight:400;font-stretch:normal;font-size:14px;line-height:normal;font-family:Arial;text-anchor:middle;fill:#36a;stroke:none" id="text146" x="231.295" y="190.5">120</text><rect id="rect148" width="2.5" height="25" x="248.75" y="150.5" fill="#36a" fill-opacity="1" stroke="#36a" stroke-width="1"/><rect id="rect152" width="262.129" height="1" x="0" y="175.5" fill="#aaa" fill-opacity="1" stroke="#36a" stroke-width="0"/></svg>