<svg xmlns="http://www.w3.org/2000/svg" xmlns:svg="http://www.w3.org/2000/svg" style="font-size:40px;font-family:'Comic Sans MS';fill:#000" id="svg96" width="532.221" height="154.536" version="1.1"><metadata id="metadata100"/><defs id="defs18"><marker style="overflow:visible" id="Arrow1Lend" orient="auto" refX="0" refY="0"><path style="fill:#c4a000;fill-opacity:1;fill-rule:evenodd;stroke:#c4a000;stroke-width:1pt;stroke-opacity:1" id="path958" d="M 0,0 5,-5 -12.5,0 5,5 Z" transform="matrix(-0.8,0,0,-0.8,-10,0)"/></marker><marker id="id3" orient="auto" style="overflow:visible"><path style="fill:#9ade00;stroke:#9ade00;stroke-width:1pt" id="path9" d="M 0,0 5,-5 -12.5,0 5,5 Z" transform="matrix(-0.8,0,0,-0.8,-10,0)"/></marker><marker id="id4" orient="auto" style="overflow:visible"><path style="fill:#19aeff;stroke:#19aeff;stroke-width:1pt" id="path12" d="M 0,0 5,-5 -12.5,0 5,5 Z" transform="matrix(-0.8,0,0,-0.8,-10,0)"/></marker><marker id="id2" orient="auto" style="overflow:visible"><path style="fill:#ba00ff;stroke:#ba00ff;stroke-width:1pt" id="path15" d="M 0,0 5,-5 -12.5,0 5,5 Z" transform="matrix(-0.8,0,0,-0.8,-10,0)"/></marker></defs><g id="g24" transform="matrix(0.651771,0,0,0.651771,607.621,-264.553)"><rect style="fill:#ffff3e;stroke:#ba00ff;stroke-width:1.2" id="rect20" width="55.9" height="55.9" x="-745.2" y="406.5"/><text id="text22" x="-727.9" y="448.8">2</text></g><g id="g30" transform="matrix(0.651771,0,0,0.651771,658.102,-264.553)"><rect style="fill:#ffff3e;stroke:#ba00ff;stroke-width:1.2" id="rect26" width="55.9" height="55.9" x="-745.2" y="406.5"/><text id="text28" x="-727.9" y="448.8">3</text></g><g id="g36" transform="matrix(0.651771,0,0,0.651771,708.584,-147.234)"><rect style="fill:#ffff3e;stroke:#ba00ff;stroke-width:1.2" id="rect32" width="55.9" height="55.9" x="-745.2" y="406.5"/><text id="text34" x="-727.9" y="448.8">4</text></g><g id="g42" transform="matrix(0.651771,0,0,0.651771,759.066,-264.553)"><rect style="fill:#ffff3e;stroke:#ba00ff;stroke-width:1.2" id="rect38" width="55.9" height="55.9" x="-745.2" y="406.5"/><text id="text40" x="-727.9" y="448.8">5</text></g><g id="g50" transform="matrix(0.651771,0,0,0.651771,583.334,-120.925)"><g id="g48" transform="translate(347.073,-40.3653)"><rect style="fill:#ffff3e;stroke:#ba00ff;stroke-width:1.2" id="rect44" width="55.9" height="55.9" x="-745.2" y="406.5"/><text id="text46" x="-727.9" y="448.8">6</text></g></g><g id="g58" transform="matrix(0.651771,0,0,0.651771,576.702,-237.233)"><g id="g56" transform="translate(434.703,-41.9178)"><rect style="fill:#ffff3e;stroke:#ba00ff;stroke-width:1.2" id="rect52" width="55.9" height="55.9" x="-745.2" y="406.5"/><text id="text54" x="-727.9" y="448.8">7</text></g></g><g id="g64" transform="matrix(0.651771,0,0,0.651771,910.511,-147.234)"><rect style="fill:#ffff3e;stroke:#ba00ff;stroke-width:1.2" id="rect60" width="55.9" height="55.9" x="-745.2" y="406.5"/><text id="text62" x="-727.9" y="448.8">8</text></g><g id="g70" transform="matrix(0.651771,0,0,0.651771,960.992,-147.234)"><rect style="fill:#ffff3e;stroke:#ba00ff;stroke-width:1.2" id="rect66" width="55.9" height="55.9" x="-745.2" y="406.5"/><text id="text68" x="-727.9" y="448.8">9</text></g><path style="fill:none;stroke:#c4a000;stroke-width:1.63545;stroke-miterlimit:4;stroke-dasharray:none;marker-end:url(#Arrow1Lend)" id="path72" d="m 132.119,39.4926 c 25.17,32.3256 53.535,60.1793 85.988,76.6614"/><text style="font-size:20.4431px;fill:#c4a000;stroke-width:1.27769" id="text74" x="161.187" y="-39.652" transform="rotate(43.544)">2×2</text><text style="font-size:20.4431px;fill:#9ade00;stroke-width:1.27769" id="text76" x="257.554" y="-59.031" transform="rotate(32.1893)">2×3</text><text style="font-size:20.4431px;fill:#19aeff;stroke-width:1.27769" id="text78" x="314.826" y="21.297" transform="rotate(11.5643)">2×2×2</text><path style="fill:none;stroke:#ba00ff;stroke-width:1.63545;marker-end:url(#id2)" id="path80" d="m 207.375,39.6203 c 95.954,20.5709 228.323,-1.661 283.903,75.0007"/><text style="font-size:20.4431px;fill:#ba00ff;stroke-width:1.27769" id="text82" x="407.html" y="-57.828" transform="rotate(19.5157)">3×3</text><path style="fill:none;stroke:#9ade00;stroke-width:1.63545;marker-end:url(#id3)" id="path84" d="m 141.062,38.0871 c 41.142,33.8589 33.987,15.9712 79.601,37.692 45.486,21.7208 49.957,37.8199 96.977,48.9359"/><path style="fill:none;stroke:#9ade00;stroke-width:1.63545" id="path86" d="m 179.904,39.3648 c 2.3,14.6935 31.687,27.2149 46.508,38.7141"/><path style="fill:none;stroke:#19aeff;stroke-width:1.63545;marker-end:url(#id4)" id="path88" d="m 156.011,39.237 c 41.142,33.8589 112.693,22.9985 162.778,29.2592 54.813,6.7718 71.296,26.9593 101.833,46.1248"/><text style="font-style:italic;font-variant:normal;font-weight:400;font-stretch:normal;font-size:23.8503px;font-family:'Comic Sans MS';-inkscape-font-specification:'Comic Sans MS, Italic';font-variant-ligatures:normal;font-variant-caps:normal;font-variant-numeric:normal;font-variant-east-asian:normal;fill:#0084c8;stroke-width:1.27769" id="text90" x="-1.272" y="28.504">Prime:</text><text style="font-style:italic;font-variant:normal;font-weight:400;font-stretch:normal;font-size:23.8503px;font-family:'Comic Sans MS';-inkscape-font-specification:'Comic Sans MS, Italic';font-variant-ligatures:normal;font-variant-caps:normal;font-variant-numeric:normal;font-variant-east-asian:normal;fill:#0084c8;stroke-width:1.27769" id="text92" x="-1.528" y="143.88">Composite:</text><text style="font-size:25.0428px;fill:#0084c8;stroke-width:1.27769" id="text94" x="476.584" y="60.447">etc...</text></svg>