<svg xmlns="http://www.w3.org/2000/svg" xmlns:svg="http://www.w3.org/2000/svg" style="font-family:'Comic Sans MS';font-size:16.6px;stroke-width:.35px" id="svg112" width="600" height="93" version="1.1"><defs id="defs14"><marker id="aa3" orient="auto" style="overflow:visible"><path style="stroke:#000;stroke-width:1pt" id="path2" d="M 0,0 5,-5 -12.5,0 5,5 Z" transform="matrix(-0.8,0,0,-0.8,-10,0)"/></marker><marker id="aa4" orient="auto" style="overflow:visible"><path style="stroke:#000;stroke-width:1pt" id="path5" d="M 0,0 5,-5 -12.5,0 5,5 Z" transform="matrix(0.8,0,0,0.8,10,0)"/></marker><marker id="aa1" orient="auto" style="overflow:visible"><path style="fill:#8d5fd3;stroke:#8d5fd3;stroke-width:1pt" id="path8" d="M 0,0 5,-5 -12.5,0 5,5 Z" transform="matrix(0.4,0,0,0.4,4,0)"/></marker><marker id="aa2" orient="auto" style="overflow:visible"><path style="fill:#8d5fd3;stroke:#8d5fd3;stroke-width:1pt" id="path11" d="M 0,0 5,-5 -12.5,0 5,5 Z" transform="matrix(-0.4,0,0,-0.4,-4,0)"/></marker><marker style="overflow:visible" id="aa32158" orient="auto"><path style="stroke:#00f;stroke-width:1pt;stroke-opacity:1;fill-opacity:1;fill:#00f" id="path1069" d="M 0,0 5,-5 -12.5,0 5,5 Z" transform="matrix(-0.8,0,0,-0.8,-10,0)"/></marker><marker style="overflow:visible" id="aa41322" orient="auto"><path style="stroke:red;stroke-width:1pt;stroke-opacity:1;fill-opacity:1;fill:red" id="path1072" d="M 0,0 5,-5 -12.5,0 5,5 Z" transform="matrix(0.8,0,0,0.8,10,0)"/></marker></defs><path style="fill:none;stroke:#8d5fd3;stroke-width:1.28;marker-end:url(#aa2)" id="path16" d="m 341.186,80.7462 h 24.437"/><text style="font-size:19.3px;text-align:center;text-anchor:middle;fill:#009100;stroke-width:.73" id="text20" x="299.923" y="16.946">&quot;origin&quot;</text><path style="fill:none;fill-opacity:.75;stroke:red" id="path22" d="m 102.823,23.1462 v 25.3"/><path style="fill:none;fill-opacity:.75;stroke:red" id="path24" d="m 234.423,23.1462 v 25.3"/><path style="fill:none;fill-opacity:.75;stroke:#009100;stroke-width:1.04" id="path26" d="m 300.123,23.1462 v 25.3"/><path style="fill:none;fill-opacity:.75;stroke:#00f" id="path28" d="m 365.923,23.1462 v 25.3"/><path style="fill:none;fill-opacity:.75;stroke:#00f" id="path30" d="m 431.723,23.1462 v 25.3"/><path style="fill:none;fill-opacity:.75;stroke:#00f" id="path32" d="m 497.523,23.1462 v 25.3"/><text style="font-family:Arial;fill:#00f" id="text34" x="361.823" y="69.146">1</text><text style="font-family:Arial;fill:#00f" id="text36" x="427.html" y="69.146">2</text><text style="font-family:Arial;fill:#00f" id="text38" x="492.923" y="69.046">3</text><text style="font-family:Arial;fill:red" id="text40" x="228.023" y="69.146">-1</text><text style="font-family:Arial;fill:red" id="text42" x="161.123" y="69.146">-2</text><text style="font-family:Arial;fill:red" id="text44" x="95.223" y="69.046">-3</text><path style="fill:none;fill-opacity:.75;stroke:red" id="path46" d="m 168.623,23.1462 v 25.3"/><path style="fill:none;fill-opacity:.75;stroke:red" id="path48" d="m 37.123,23.1462 v 25.3"/><text style="font-family:Arial;fill:red" id="text50" x="24.723" y="69.046">-4</text><path style="fill:none;fill-opacity:.75;stroke:#00f" id="path52" d="m 563.223,23.1462 v 25.3"/><text style="font-family:Arial;fill:#00f" id="text54" x="553.623" y="69.046">4</text><path style="fill:#00f;fill-opacity:.75;stroke:#00f;stroke-width:1.31;marker-end:url(#aa32158)" id="path56" d="m 299.423,37.3462 h 298"/><path style="fill:red;fill-opacity:.75;stroke:red;stroke-width:1.31;marker-start:url(#aa41322)" id="path58" d="m 2.523,37.3462 h 297.4"/><text style="font-size:24.1px;font-family:Arial;fill:#009100" id="text60" x="293.423" y="70.646">0</text><ellipse style="fill:#fff;stroke:#0b0;stroke-width:1.28" id="ellipse62" cx="390.223" cy="37.446" rx="2.4" ry="2.6"/><ellipse style="fill:#fff;stroke:#0b0;stroke-width:1.28" id="ellipse64" cx="506.523" cy="37.446" rx="2.4" ry="2.6"/><text style="font-size:19.3px;text-align:center;text-anchor:middle;fill:#0b0;stroke-width:.73" id="text66" x="392.html" y="28.646">√2</text><text style="font-size:19.3px;text-align:center;text-anchor:middle;fill:#0b0;stroke-width:.73" id="text68" x="507.823" y="30.146">π</text><ellipse style="fill:#fff;stroke:#0b0;stroke-width:1.28" id="ellipse70" cx="475.223" cy="37.446" rx="2.4" ry="2.6"/><text style="font-size:19.3px;text-align:center;text-anchor:middle;fill:#0b0;stroke-width:.73" id="text72" x="475.923" y="29.846">e</text><ellipse style="fill:#fff;stroke:#0b0;stroke-width:1.28" id="ellipse74" cx="443.123" cy="37.446" rx="2.4" ry="2.6"/><text style="font-size:12.4px;text-align:center;text-anchor:middle;fill:#0b0;stroke-width:.73" id="text76" x="443.523" y="9.446">20</text><text style="font-size:12.4px;text-align:center;text-anchor:middle;fill:#0b0;stroke-width:.73" id="text78" x="443.823" y="26.546">9</text><path style="fill:none;stroke:#0b0;stroke-width:1.28" id="path80" d="m 434.623,13.5462 h 20.3"/><ellipse style="fill:#fff;stroke:#0b0;stroke-width:1.28" id="ellipse82" cx="52.423" cy="37.446" rx="2.4" ry="2.6"/><text style="font-size:12.4px;text-align:center;text-anchor:middle;fill:#0b0;stroke-width:.73" id="text84" x="51.923" y="10.646">15</text><text style="font-size:12.4px;text-align:center;text-anchor:middle;fill:#0b0;stroke-width:.73" id="text86" x="52.123" y="27.746">4</text><path style="fill:none;stroke:#0b0;stroke-width:1.28" id="path88" d="m 46.823,14.7462 h 10.8"/><text style="text-align:center;text-anchor:middle;fill:#0b0;stroke-width:.73" id="text90" x="40.523" y="18.746">-</text><ellipse style="fill:#fff;stroke:#0b0;stroke-width:1.28" id="ellipse92" cx="193.723" cy="37.446" rx="2.4" ry="2.6"/><text style="font-size:13.8px;text-align:center;text-anchor:middle;fill:#0b0;stroke-width:.73" id="text94" x="193.223" y="10.246">π</text><text style="font-size:12.4px;text-align:center;text-anchor:middle;fill:#0b0;stroke-width:.73" id="text96" x="193.423" y="27.346">2</text><path style="fill:none;stroke:#0b0;stroke-width:1.28" id="path98" d="m 188.123,14.3462 h 10.8"/><text style="text-align:center;text-anchor:middle;fill:#0b0;stroke-width:.73" id="text100" x="182.723" y="18.846">-</text><ellipse style="fill:#fff;stroke:#0b0;stroke-width:1.28" id="ellipse102" cx="132.423" cy="37.446" rx="2.4" ry="2.6"/><text style="text-align:center;text-anchor:middle;fill:#0b0;stroke-width:.73" id="text104" x="130.423" y="25.346">-2.5</text><text style="font-size:19.3px;text-align:center;text-anchor:middle;fill:#8d5fd3;stroke-width:.73" id="text106" x="334.523" y="87.646">1</text><rect style="stroke-width:1" id="rect108" width="70" height="88" x="-236.277" y="4098.05"/><path style="fill:none;stroke:#8d5fd3;stroke-width:1.28;stroke-miterlimit:4;stroke-dasharray:none;marker-start:url(#aa1)" id="path1320" d="m 301.263,80.7462 h 25.892"/></svg>