<svg xmlns="http://www.w3.org/2000/svg" xmlns:svg="http://www.w3.org/2000/svg" id="svg30" width="302.4" height="90.6" version="1.1"><metadata id="metadata34"/><text style="color:#000;font-size:26.7px;font-family:Arial;overflow:visible;fill:#4e9a06;stroke-width:.67px;stroke:none" id="text4" x="91.554" y="29.6">=</text><text style="color:#000;font-size:26.7px;font-family:Arial;overflow:visible;fill:#4e9a06;stroke-width:.67px;stroke:none" id="text6" x="131.254" y="29.6">3 R 4</text><text style="color:#000;font-size:26.7px;font-family:Arial;overflow:visible;fill:#4e9a06;stroke-width:.67px;stroke:none" id="text8" x="223.054" y="29.6">=</text><text style="color:#000;font-size:18.9px;font-family:'Comic Sans MS';overflow:visible;fill:#00f;stroke-width:.67px" id="text10" x="125.754" y="89.5">Remainder</text><text style="color:#000;font-size:20.6px;font-family:Arial;overflow:visible;fill:#4e9a06;stroke-width:.67px;stroke:none" id="text12" x="284.015" y="14.745" transform="scale(0.998342,1.00166)">4</text><text style="color:#000;font-size:20.6px;font-family:Arial;overflow:visible;fill:#4e9a06;stroke-width:.67px;stroke:none" id="text14" x="283.615" y="39.445" transform="scale(0.998342,1.00166)">5</text><path style="fill:none;fill-opacity:.75;stroke:#4e9a06;stroke-width:1.34" id="path16" d="m 275.454,19.8 h 26.9"/><text style="color:#000;font-size:26.7px;font-family:Arial;overflow:visible;fill:#4e9a06;stroke-width:.67px;stroke:none" id="text18" x="256.554" y="29.6">3</text><path style="fill:#00f;stroke-width:.67px" id="path20" d="m 162.554,73.9 c 0,0 0,0 0,0 -3.3,-2.4 -3.4,-2.3 -3.5,-2.3 0,0 0,-0.2 0,-0.3 0,-0.3 0,-0.6 0.1,-0.9 0,-0.4 0.2,-0.8 0.3,-1.2 0.1,-0.5 0.3,-0.9 0.5,-1.4 0.2,-0.5 0.4,-1 0.6,-1.5 0.2,-0.6 0.5,-1.1 0.8,-1.6 0.2,-0.5 0.5,-1 0.8,-1.4 0.2,-0.4 0.5,-0.8 0.7,-1.2 0.2,-0.3 0.5,-0.6 0.7,-1 0.2,-0.3 0.5,-0.5 0.8,-0.8 0.3,-0.2 0.6,-0.4 0.8,-0.6 0.3,-0.2 0.6,-0.4 0.8,-0.5 0.2,-0.2 0.5,-0.3 0.7,-0.4 0.2,-0.1 0.5,-0.2 0.7,-0.3 0.2,-0.1 0.4,-0.2 0.6,-0.3 0.2,0 0.4,-0.1 0.6,-0.2 0.2,0 0.4,-0.2 0.6,-0.2 0.2,-0.1 0.5,-0.2 0.7,-0.3 0.2,-0.1 0.5,-0.2 0.7,-0.3 0.2,-0.1 0.4,-0.2 0.6,-0.3 0.2,-0.1 0.5,-0.2 0.7,-0.3 0.3,-0.1 0.5,-0.2 0.8,-0.3 0.3,-0.1 0.5,-0.3 0.8,-0.4 0.3,-0.2 0.6,-0.3 0.9,-0.5 0.3,-0.2 0.7,-0.4 1,-0.6 0.3,-0.2 0.6,-0.4 0.9,-0.6 0.3,-0.2 0.7,-0.5 1,-0.7 0.4,-0.3 0.7,-0.6 1.1,-0.9 0.3,-0.3 0.6,-0.5 1,-0.8 0.3,-0.2 0.5,-0.4 0.7,-0.7 0.3,-0.2 0.5,-0.5 0.7,-0.8 0.3,-0.3 0.5,-0.6 0.8,-0.9 0.2,-0.3 0.5,-0.6 0.7,-0.9 0.2,-0.3 0.4,-0.5 0.6,-0.8 0.2,-0.3 0.3,-0.6 0.5,-0.8 0.2,-0.3 0.3,-0.6 0.4,-0.9 0.1,-0.3 0.2,-0.7 0.4,-1 0.1,-0.3 0.2,-0.7 0.3,-1 0,-0.3 0.1,-0.6 0.2,-0.9 0,-0.3 0.1,-0.6 0.2,-0.9 0,-0.3 0.1,-0.7 0.2,-1 0,-0.3 0,-0.7 0.1,-1 0,-0.3 0,-0.7 0.1,-1 0,-0.3 0,-0.7 0,-1 0,-0.3 0,-0.6 0,-1 0,-0.3 0,-0.6 0,-1 0,-0.3 0,-0.5 0,-0.8 0,0 0,0 0,-0.1 l 3.5,2.2 c 0,0 0,0 0,0.1 0,0.3 0,0.5 0,0.8 0,0.3 0,0.6 0,1 0,0.3 0,0.6 0,1 0,0.3 0,0.7 -0.1,1 0,0.3 0,0.7 -0.1,1 0,0.3 0,0.7 -0.1,1 0,0.3 -0.1,0.7 -0.2,1 0,0.3 -0.1,0.7 -0.2,1 0,0.3 -0.1,0.6 -0.2,0.9 -0.1,0.3 -0.2,0.7 -0.3,1 -0.1,0.3 -0.2,0.7 -0.4,1 -0.1,0.3 -0.3,0.6 -0.4,0.9 -0.2,0.3 -0.3,0.6 -0.5,0.9 -0.2,0.3 -0.4,0.6 -0.6,0.8 -0.2,0.3 -0.5,0.6 -0.7,0.9 -0.3,0.3 -0.5,0.6 -0.8,0.9 -0.2,0.3 -0.5,0.5 -0.7,0.8 -0.3,0.2 -0.5,0.5 -0.8,0.7 -0.3,0.3 -0.6,0.5 -1,0.8 -0.4,0.3 -0.7,0.6 -1.1,0.9 -0.3,0.2 -0.7,0.5 -1,0.7 -0.3,0.2 -0.6,0.4 -0.9,0.6 -0.3,0.2 -0.7,0.4 -1,0.6 -0.3,0.2 -0.6,0.4 -0.9,0.5 -0.3,0.1 -0.5,0.3 -0.8,0.4 -0.3,0.1 -0.5,0.3 -0.8,0.4 -0.2,0.1 -0.5,0.2 -0.7,0.3 -0.2,0 -0.4,0.2 -0.6,0.3 -0.2,0.1 -0.5,0.2 -0.7,0.3 -0.2,0.1 -0.5,0.2 -0.7,0.3 -0.2,0 -0.4,0.2 -0.6,0.3 -0.2,0 -0.4,0.2 -0.5,0.2 -0.2,0 -0.4,0.2 -0.6,0.3 -0.2,0.1 -0.5,0.2 -0.7,0.3 -0.2,0.1 -0.5,0.2 -0.7,0.4 -0.3,0.2 -0.6,0.3 -0.8,0.5 -0.3,0.2 -0.6,0.4 -0.8,0.6 -0.3,0.2 -0.5,0.5 -0.8,0.7 -0.2,0.3 -0.5,0.6 -0.7,0.9 -0.2,0.4 -0.5,0.7 -0.7,1.1 -0.3,0.5 -0.5,0.9 -0.8,1.4 -0.3,0.5 -0.6,1 -0.8,1.6 -0.2,0.5 -0.4,1 -0.6,1.5 -0.1,0.5 -0.3,0.9 -0.4,1.4 -0.1,0.4 -0.2,0.8 -0.3,1.2 0,0.3 -0.1,0.6 -0.1,0.8 0,0.1 0,0.3 0,0.4 0,0 -0.1,0.2 -3.4,-2.4 0,0 0,0 0,0 z"/><path style="fill:#00f;stroke-width:.67px" id="path22" d="m 174.154,46.6 c 0,0.1 0,0 0.1,0 0.2,0 0.3,-0.2 0.4,-0.3 0.2,-0.2 0.5,-0.4 0.7,-0.6 0.3,-0.3 0.6,-0.6 0.9,-0.8 0.3,-0.3 0.6,-0.6 1,-0.9 0.3,-0.3 0.7,-0.6 1,-0.9 0.3,-0.3 0.6,-0.6 0.9,-0.9 0.3,-0.3 0.6,-0.6 0.9,-0.9 0.3,-0.3 0.6,-0.6 1,-0.9 0.3,-0.3 0.6,-0.6 0.9,-0.8 0.2,-0.2 0.5,-0.4 0.7,-0.6 0.2,-0.2 0.5,-0.4 0.7,-0.6 0.3,-0.2 0.5,-0.5 0.8,-0.7 0.2,-0.2 0.4,-0.4 0.6,-0.6 0.2,-0.2 0.3,-0.4 0.4,-0.5 0,0 0.1,-0.1 0.2,-0.2 l 3.4,2.4 c 0,0 -0.1,0.1 -0.2,0.2 -0.2,0.2 -0.3,0.4 -0.5,0.5 -0.2,0.2 -0.4,0.5 -0.7,0.7 -0.3,0.2 -0.5,0.5 -0.8,0.7 -0.2,0.2 -0.5,0.4 -0.7,0.6 -0.2,0.2 -0.5,0.4 -0.7,0.6 -0.3,0.3 -0.6,0.6 -0.9,0.8 -0.3,0.3 -0.6,0.6 -1,0.9 -0.3,0.3 -0.6,0.6 -0.9,0.9 -0.3,0.3 -0.6,0.6 -1,0.9 -0.3,0.3 -0.7,0.6 -1,0.9 -0.3,0.3 -0.7,0.6 -1,0.9 -0.3,0.3 -0.6,0.6 -0.9,0.9 -0.2,0.2 -0.5,0.4 -0.7,0.6 -0.2,0.1 -0.3,0.3 -0.5,0.4 0,0 -0.2,0.1 -0.3,0.2 z"/><path style="fill:#00f;stroke-width:.67px" id="path24" d="m 185.654,38.9 c 0,0 0,0 0,0 0,0 0,-0.1 0,-0.2 0,0 0,-0.1 0,-0.2 0,0 0,-0.1 0,-0.2 0,0 0,0 0,-0.1 0,0 0,0 0,0 1.3,-0.5 2.6,-1.1 3.8,-1.6 0,0 0,0.2 0.1,0.3 0,0.1 0.1,0.2 0.2,0.4 0,0.2 0.1,0.4 0.2,0.5 0,0.2 0.2,0.5 0.2,0.7 0,0.2 0.1,0.5 0.2,0.7 0,0.3 0.1,0.5 0.2,0.8 0,0.2 0.1,0.5 0.2,0.7 0,0.2 0.1,0.4 0.2,0.7 0,0.2 0.1,0.4 0.2,0.6 0,0.2 0.2,0.4 0.3,0.7 0,0.2 0.2,0.4 0.3,0.6 0.1,0.2 0.2,0.4 0.3,0.6 0.1,0.2 0.2,0.4 0.3,0.5 0,0.2 0.2,0.3 0.3,0.5 0.7,1.2 0.7,1.4 0.8,1.5 0,0 0,0.1 0,0.2 0,0 0,0.2 0.1,0.2 0,0 0,0.2 0.1,0.3 0,0 0,0.1 0.1,0.2 0,0 0,0.1 0,0.2 0,0 0,0 0,0.1 0,0 0,0 0,0.1 0,0 0,0.1 0.1,0.2 0,0 0,0.1 0.1,0.2 0,0 0,0.1 0,0.1 0,0 0,0.1 0,0.2 0,0 0,0 0,0.1 0,0 0,0.1 0.1,0.1 0,0 0,0 0.1,0.1 0,0 0,0 0.1,0.1 0,0 0,0 0,0 0,0 0,0 0,0 0,0 0,0 0,0.1 0,0 0,0 0,0 0,0 0,0 0,0 l -3.8,1.7 c 0,0 0,0 0,0 0,0 0,0 0,-0.1 0,0 0,-0.2 0,0 0,0 0,0 0,0 0,0 0,0 0,0 0,0 0,-0.1 -0.1,-0.1 0,0 0,0 -0.1,-0.1 0,0 0,-0.1 -0.1,-0.2 0,0 -0.1,-0.1 -0.1,-0.2 0,0 0,0 0,-0.1 0,0 0,-0.1 -0.1,-0.2 0,0 0,0 0,0 0,0 0,-0.1 -0.1,-0.2 0,0 0,-0.1 -0.1,-0.2 0,0 0,-0.1 0,-0.2 0,0 0,-0.1 0,-0.1 0,0 0,-0.1 -0.1,-0.2 0,-0.1 -0.1,-0.2 -0.1,-0.3 0,0 0,-0.2 -0.1,-0.2 0,0 0,-0.2 -0.1,-0.2 0,0 0,0 -0.7,-1.4 0,-0.2 -0.2,-0.3 -0.3,-0.5 -0.1,-0.2 -0.2,-0.4 -0.3,-0.6 -0.1,-0.2 -0.2,-0.4 -0.3,-0.6 0,-0.2 -0.2,-0.4 -0.3,-0.6 -0.1,-0.2 -0.2,-0.5 -0.3,-0.7 0,-0.2 -0.2,-0.4 -0.2,-0.7 0,-0.2 -0.1,-0.4 -0.2,-0.7 0,-0.2 -0.1,-0.5 -0.2,-0.7 0,-0.2 -0.1,-0.5 -0.2,-0.7 0,-0.2 -0.1,-0.5 -0.2,-0.7 0,-0.2 -0.1,-0.5 -0.2,-0.7 0,-0.2 -0.1,-0.4 -0.2,-0.5 0,-0.1 0,-0.2 -0.2,-0.4 0,0 0,-0.2 0,-0.2 1.5,-0.6 3.9,-3 3.8,-1.5 0,0 0,0 0,0.1 0,0 0,0.1 0,0.2 0,0 0,0.1 0,0.2 0,0 0,0.1 0,0.2 0,0 0,0 0,0 z"/><text style="color:#000;font-size:26.7px;font-family:Arial;overflow:visible;fill:#4e9a06;stroke-width:.67px;stroke:none" id="text26" x="-2.946" y="29.6">19 รท 5</text></svg>