<svg xmlns="http://www.w3.org/2000/svg" xmlns:svg="http://www.w3.org/2000/svg" id="svg36" width="317.7" height="90.9" version="1.1"><metadata id="metadata40"/><text style="font-family:'Comic Sans MS';font-weight:700;font-size:28.1px;overflow:visible;fill:#3465a4;stroke-width:.58px" id="text4" x="105.9" y="69.3">=</text><text style="font-family:'Comic Sans MS';font-weight:700;font-size:25px;overflow:visible;fill:#0197fd;stroke-width:.58px" id="text6" x="246.2" y="68">x</text><text style="font-family:'Comic Sans MS';font-weight:700;font-size:28.1px;overflow:visible;fill:#0197fd;stroke-width:.58px" id="text8" x="267.3" y="71.4">10</text><text style="font-family:'Comic Sans MS';font-weight:700;font-size:25px;overflow:visible;fill:#60c;stroke-width:.58px" id="text10" x="304" y="52.3">3</text><text style="font-family:'Comic Sans MS';font-size:15.6px;overflow:visible;fill:#f44800;stroke-width:.58px" id="text12" x="138.4" y="12.2">Digits</text><text style="font-family:'Comic Sans MS';font-size:15.6px;overflow:visible;fill:#60c;stroke-width:.58px" id="text14" x="214.5" y="12.2">Power of 10</text><text style="font-family:'Comic Sans MS';font-size:14.1px;overflow:visible;fill:#f0a513;stroke-width:.58px" id="text16" x="8.9" y="90.1">A Number</text><text style="font-family:'Comic Sans MS';font-size:14.1px;overflow:visible;fill:#f0a513;stroke-width:.58px" id="text18" x="149.6" y="89.7">In Scientific Notation</text><path style="overflow:visible;fill:#f44800;stroke-width:.58px" id="path20" d="m 165.9,17.8 c 4.5,4.8 11.2,6.1 17.1,8.4 5.9,2 10.5,7.2 12.3,13 -1.5,0.2 -3.6,1.9 -3.8,-0.6 -2.2,-6 -7.7,-10 -13.7,-11.6 -5.4,-1.8 -10.8,-4 -14.9,-8 1,-0.4 2,-0.9 3,-1.3 z"/><path style="overflow:visible;fill:#f44800;stroke-width:.58px" id="path22" d="m 185.6,34.8 c 3.6,1 6.8,3 9.3,5.6 -5.9,3.3 -1.1,-5.2 1.1,-6.7 1.3,-2.1 3.3,-1.5 5.2,-1.1 -1.2,1.7 -4,3.5 -4.8,5.8 -0.2,4.8 -5.1,4.5 -7.3,1.2 -2.3,-1.7 -7.8,-1.6 -3.7,-4.5 l 0.2,-0.2 z"/><g id="g30" transform="matrix(0.38657,0.050107,-0.066534,0.401194,152.4,-131.943)"><path style="overflow:visible;fill:#60c;stroke-width:1px" id="path24" d="m 347.3,328.7 c 12.2,19.7 33.2,33.1 55.2,39.3 9.6,1.8 19.2,0 28.8,0.1 -3.7,4.3 -7.6,7.9 -13.8,6.8 -16.4,1.8 -32.6,-3.5 -46.3,-12.3 -12.9,-7.3 -24.3,-17.7 -32.1,-30.4 2.7,-1.1 5.4,-2.5 8.2,-3.5 z"/><path style="overflow:visible;fill:#60c;stroke-width:1px" id="path26" d="m 410.9,355.4 c 7,4.8 14.4,9.7 23,10.7 -3.8,4 -8,7.8 -13.5,3.6 -4.5,-3.1 -23.6,-9 -11.8,-13.2 0.7,-0.2 1.5,-1.3 2.3,-1.1 z"/><path style="overflow:visible;fill:#60c;stroke-width:1px" id="path28" d="m 403.7,381.4 c 6.7,-5.2 15.8,-13.8 24.4,-12.4 11.2,2.4 -3.1,4.8 -7.3,8.1 -5.2,2.8 -9.2,7.7 -15.5,4.8 -0.2,-0.2 -1.8,-0.1 -1.6,-0.4 z"/></g><text style="font-family:'Comic Sans MS';font-weight:700;font-size:25px;color:#000;overflow:visible;fill:#f44800;stroke-width:.39px" id="text32" x="141.5" y="69.6">5.3266</text><text style="font-family:'Comic Sans MS';font-weight:700;font-size:25px;color:#000;overflow:visible;fill:#f44800;stroke-width:.39px" id="text34" x="-1" y="69.6">5326.6</text></svg>