<svg xmlns="http://www.w3.org/2000/svg" xmlns:svg="http://www.w3.org/2000/svg" xmlns:xlink="http://www.w3.org/1999/xlink" id="svg339" width="102.79" height="139.635" version="1.0"><metadata id="metadata343"/><defs id="defs171"><linearGradient id="linearGradient1806"><stop style="stop-color:#bfad54;stop-opacity:1" id="stop1802" offset="0"/><stop style="stop-color:#ded5a7;stop-opacity:1" id="stop1804" offset="1"/></linearGradient><linearGradient id="linearGradient1798"><stop style="stop-color:#6176c5;stop-opacity:1" id="stop1794" offset="0"/><stop style="stop-color:#dfe3f3;stop-opacity:1" id="stop1796" offset="1"/></linearGradient><linearGradient id="linearGradient1782"><stop style="stop-color:#ba3900;stop-opacity:1" id="stop1778" offset="0"/><stop style="stop-color:#ffe1d3;stop-opacity:1" id="stop1780" offset="1"/></linearGradient><linearGradient id="linearGradient1772"><stop style="stop-color:#000;stop-opacity:1" id="stop1768" offset="0"/><stop style="stop-color:#fff;stop-opacity:1" id="stop1770" offset="1"/></linearGradient><linearGradient id="linearGradient1608"><stop style="stop-color:#00575f;stop-opacity:0" id="stop1602" offset="0"/><stop style="stop-color:#0062ff;stop-opacity:0" id="stop1604" offset=".622"/><stop style="stop-color:#811500;stop-opacity:.54902" id="stop1606" offset="1"/></linearGradient><linearGradient id="linearGradient1507"><stop style="stop-color:#00575f;stop-opacity:0" id="stop1501" offset="0"/><stop style="stop-color:#0062ff;stop-opacity:0" id="stop1503" offset=".622"/><stop style="stop-color:#0b0059;stop-opacity:.284946" id="stop1505" offset="1"/></linearGradient><linearGradient id="linearGradient1491"><stop id="stop1487" offset="0" style="stop-color:#fff5a2;stop-opacity:.768817"/><stop id="stop1489" offset="1" style="stop-color:#ffe931;stop-opacity:.725806"/></linearGradient><linearGradient id="linearGradient1485"><stop id="stop1481" offset="0" style="stop-color:#ff8b42;stop-opacity:.623529"/><stop id="stop1483" offset="1" style="stop-color:#ff6300;stop-opacity:1"/></linearGradient><linearGradient id="linearGradient1331"><stop id="stop1325" offset="0" style="stop-color:#00575f;stop-opacity:0"/><stop id="stop1327" offset=".622" style="stop-color:#0062ff;stop-opacity:0"/><stop id="stop1329" offset="1" style="stop-color:#0b0059;stop-opacity:.548387"/></linearGradient><linearGradient id="id02"><stop style="stop-color:#525252;stop-opacity:1" id="stop23" offset="0"/><stop style="stop-color:#d9d9d9;stop-opacity:1" id="stop25" offset="1"/></linearGradient><linearGradient id="id03"><stop style="stop-color:white;stop-opacity:1" id="stop42" offset="0"/><stop style="stop-color:white;stop-opacity:0" id="stop44" offset="1"/></linearGradient><linearGradient id="id04"><stop style="stop-color:#34abff;stop-opacity:1" id="stop54" offset="0"/><stop style="stop-color:#0057ff;stop-opacity:1" id="stop56" offset="1"/></linearGradient><radialGradient id="radialGradient1307" cx="-1266.16" cy="1688.06" r="271.672" fx="-1266.16" fy="1688.06" gradientTransform="matrix(0.997688,-0.391387,0.596695,1.52105,-2759.51,-1532.8)" gradientUnits="userSpaceOnUse" xlink:href="#linearGradient1485"/><radialGradient id="radialGradient1323" cx="-1267.42" cy="1710.59" r="271.672" fx="-1267.42" fy="1710.59" gradientTransform="matrix(0.962383,-0.620062,0.740118,1.14871,-3009.51,-1163.84)" gradientUnits="userSpaceOnUse" xlink:href="#linearGradient1608"/><radialGradient id="radialGradient1407" cx="457.1" cy="263.8" r="94.286" fx="457.143" fy="263.791" gradientTransform="matrix(0.420463,0.05651,-0.05651,0.420463,-3184.98,1297.64)" gradientUnits="userSpaceOnUse" xlink:href="#id03"/><radialGradient id="radialGradient1431" cx="-1266.16" cy="1688.06" r="271.672" fx="-1266.16" fy="1688.06" gradientTransform="matrix(1.04214,-0.250034,0.381192,1.58881,-730.166,-1686.84)" gradientUnits="userSpaceOnUse" xlink:href="#id04"/><radialGradient id="radialGradient1433" cx="-1267.42" cy="1710.59" r="271.672" fx="-1267.42" fy="1710.59" gradientTransform="matrix(1.03871,-0.481393,0.574601,1.23982,-1028.67,-1355.89)" gradientUnits="userSpaceOnUse" xlink:href="#linearGradient1331"/><radialGradient id="radialGradient1439" cx="457.1" cy="263.8" r="94.286" fx="457.143" fy="263.791" gradientTransform="matrix(0.40865,0.113965,-0.113965,0.40865,-1509.01,1076.64)" gradientUnits="userSpaceOnUse" xlink:href="#id03"/><radialGradient id="radialGradient1455" cx="-1266.16" cy="1688.06" r="271.672" fx="-1266.16" fy="1688.06" gradientTransform="matrix(1.0717,0.005708,-0.008705,1.63388,711.353,-1519.6)" gradientUnits="userSpaceOnUse" xlink:href="#linearGradient1491"/><radialGradient id="radialGradient1457" cx="-1267.42" cy="1710.59" r="271.672" fx="-1267.42" fy="1710.59" gradientTransform="matrix(1.12354,-0.219793,0.262352,1.34107,342.543,-1269.38)" gradientUnits="userSpaceOnUse" xlink:href="#linearGradient1507"/><radialGradient id="radialGradient1463" cx="457.1" cy="263.8" r="94.286" fx="457.143" fy="263.791" gradientTransform="matrix(0.369681,0.208131,-0.208131,0.369681,-778.293,940.731)" gradientUnits="userSpaceOnUse" xlink:href="#id03"/><linearGradient id="linearGradient1774" x1="30.858" x2="33.742" y1="129.272" y2="129.272" gradientTransform="matrix(1.28057,0,0,1.28057,-34.4319,-40.0294)" gradientUnits="userSpaceOnUse" xlink:href="#linearGradient1772"/><linearGradient id="linearGradient1784" x1="22.765" x2="27.691" y1="122.008" y2="119.124" gradientTransform="matrix(0.896807,0,0,0.896807,16.8215,-11.0526)" gradientUnits="userSpaceOnUse" xlink:href="#linearGradient1782"/><linearGradient id="linearGradient1800" x1="55.437" x2="63.144" y1="97.457" y2="97.457" gradientTransform="matrix(0.896807,0,0,0.896807,-0.456005,-0.045727)" gradientUnits="userSpaceOnUse" xlink:href="#linearGradient1798"/><linearGradient id="linearGradient1808" x1="70.064" x2="76.709" y1="103.171" y2="105.67" gradientTransform="matrix(0.896807,0,0,0.896807,-0.547455,-0.258627)" gradientUnits="userSpaceOnUse" xlink:href="#linearGradient1806"/><linearGradient id="linearGradient2363" x1="30.858" x2="33.742" y1="129.272" y2="129.272" gradientTransform="matrix(1.11773,0,0,1.25285,14.705,-48.6656)" gradientUnits="userSpaceOnUse" xlink:href="#linearGradient1772"/><linearGradient id="linearGradient2367" x1="30.858" x2="33.742" y1="129.272" y2="129.272" gradientTransform="matrix(1.18308,0,0,1.18308,51.5941,-59.7677)" gradientUnits="userSpaceOnUse" xlink:href="#linearGradient1772"/><radialGradient id="radialGradient2383" cx="480.1" cy="516.9" r="175.437" fx="480.134" fy="516.869" gradientTransform="matrix(0.758605,-0.360613,0.511129,1.07524,-1989.57,869.358)" gradientUnits="userSpaceOnUse" xlink:href="#id03"/><radialGradient id="radialGradient2385" cx="480.1" cy="516.9" r="175.437" fx="480.134" fy="516.869" gradientTransform="matrix(0.822716,-0.169297,0.23996,1.16611,-1172.53,640.995)" gradientUnits="userSpaceOnUse" xlink:href="#id03"/><radialGradient id="radialGradient2387" cx="480.1" cy="516.9" r="175.437" fx="480.134" fy="516.869" gradientTransform="matrix(0.701614,-0.461801,0.654552,0.994459,-3689.44,1146.77)" gradientUnits="userSpaceOnUse" xlink:href="#id03"/></defs><rect style="color:#000;clip-rule:nonzero;display:inline;overflow:visible;visibility:visible;opacity:1;isolation:auto;mix-blend-mode:normal;color-interpolation:sRGB;color-interpolation-filters:linearRGB;solid-color:#000;solid-opacity:1;vector-effect:none;fill:url(#linearGradient2367);fill-opacity:1;fill-rule:nonzero;stroke:none;stroke-width:2.921;stroke-linecap:butt;stroke-linejoin:miter;stroke-miterlimit:4;stroke-dasharray:none;stroke-dashoffset:0;stroke-opacity:1;marker:none;marker-start:none;marker-mid:none;marker-end:none;color-rendering:auto;image-rendering:auto;shape-rendering:auto;text-rendering:auto;enable-background:accumulate" id="rect2365" width="3.412" height="43.673" x="88.102" y="71.337" ry="1.706" transform="rotate(16.6905)"/><rect id="rect2361" width="3.223" height="46.248" x="49.196" y="90.17" ry="1.807" transform="matrix(0.999566,-0.029467,0.016581,0.999863,0,0)" style="color:#000;clip-rule:nonzero;display:inline;overflow:visible;visibility:visible;opacity:1;isolation:auto;mix-blend-mode:normal;color-interpolation:sRGB;color-interpolation-filters:linearRGB;solid-color:#000;solid-opacity:1;vector-effect:none;fill:url(#linearGradient2363);fill-opacity:1;fill-rule:nonzero;stroke:none;stroke-width:2.92111;stroke-linecap:butt;stroke-linejoin:miter;stroke-miterlimit:4;stroke-dasharray:none;stroke-dashoffset:0;stroke-opacity:1;marker:none;marker-start:none;marker-mid:none;marker-end:none;color-rendering:auto;image-rendering:auto;shape-rendering:auto;text-rendering:auto;enable-background:accumulate"/><g id="g1528" transform="matrix(0.103864,0,0,0.103864,194.767,-105.726)" style="opacity:.62;stroke-width:1.11507"><path style="fill:url(#radialGradient1431);fill-opacity:1;fill-rule:evenodd;stroke:none;stroke-width:1.11507px;stroke-linecap:butt;stroke-linejoin:miter;stroke-opacity:1" id="path1419" d="m -1383.34,1841.82 c 124.61,-13.57 252.34,-269.84 233.85,-441.55 -18.48,-171.71 -137.44,-307.11 -295.25,-300.83 -157.81,6.27 -261.55,184.5 -236.97,362.92 24.59,178.42 173.76,393.03 298.37,379.46 z"/><path id="path1421" d="m -1383.34,1841.82 c 124.61,-13.57 252.34,-269.84 233.85,-441.55 -18.48,-171.71 -137.44,-307.11 -295.25,-300.83 -157.81,6.27 -261.55,184.5 -236.97,362.92 24.59,178.42 173.76,393.03 298.37,379.46 z" style="fill:url(#radialGradient1433);fill-opacity:1;fill-rule:evenodd;stroke:none;stroke-width:1.11507px;stroke-linecap:butt;stroke-linejoin:miter;stroke-opacity:1"/><path id="path1423" d="m -1217.43,1169.3 c 55.21,116.15 33.47,241.85 -48.44,280.8 -81.91,38.93 -193.11,-23.57 -248.32,-139.72 -55.21,-116.14 -33.52,-241.94 48.4,-280.89 81.91,-38.928 193.16,23.66 248.36,139.81 z" style="opacity:.53;fill:url(#radialGradient2383);stroke-width:.702492;stroke-linecap:round;stroke-linejoin:round"/><path style="fill:url(#radialGradient1439);stroke-width:.298027;stroke-linecap:round;stroke-linejoin:round" id="path1425" d="m -1313.75,1247.28 c -5.93,21.3 -27.99,33.73 -49.27,27.79 -21.26,-5.93 -33.69,-27.98 -27.76,-49.27 5.94,-21.29 28,-33.72 49.25,-27.8 21.29,5.94 33.72,27.99 27.78,49.28 z"/></g><use id="use1427" width="100%" height="100%" x="0" y="0" transform="matrix(0.097492,0.035821,-0.035821,0.097492,237.005,-7.54279)" xlink:href="#path1423" style="stroke-width:1.11507"/><g id="g1690" transform="matrix(0.103864,0,0,0.103864,147.275,-89.2877)" style="stroke-width:1.11507"><path id="path1443" d="m -764.486,1751.5 c 124.254,16.54 309.413,-201.88 332.404,-373.05 23,-171.16 -60.231,-331.01 -214.988,-362.56 -154.756,-31.545 -298.013,116.81 -316.683,295.94 -18.67,179.13 75.014,423.13 199.267,439.67 z" style="fill:url(#radialGradient1455);fill-opacity:1;fill-rule:evenodd;stroke:none;stroke-width:1.11507px;stroke-linecap:butt;stroke-linejoin:miter;stroke-opacity:1"/><path style="fill:url(#radialGradient1457);fill-opacity:1;fill-rule:evenodd;stroke:none;stroke-width:1.11507px;stroke-linecap:butt;stroke-linejoin:miter;stroke-opacity:1" id="path1445" d="m -764.486,1751.5 c 124.254,16.54 309.413,-201.88 332.404,-373.05 23,-171.16 -60.231,-331.01 -214.988,-362.56 -154.756,-31.545 -298.013,116.81 -316.683,295.94 -18.67,179.13 75.014,423.13 199.267,439.67 z"/><path style="opacity:.53;fill:url(#radialGradient2385);stroke-width:.702492;stroke-linecap:round;stroke-linejoin:round" id="path1447" d="m -494.191,1116.43 c 25.913,125.97 -25.174,242.86 -114.012,261.15 -88.835,18.28 -181.921,-68.95 -207.837,-194.91 -25.917,-125.96 25.147,-242.956 113.985,-261.25 88.835,-18.28 181.948,69.045 207.864,195.01 z"/><path id="path1449" d="m -629.353,1153.03 c -10.841,19.26 -35.227,26.08 -54.479,15.24 -19.229,-10.83 -26.047,-35.22 -15.209,-54.47 10.85,-19.26 35.232,-26.07 54.455,-15.26 19.262,10.85 26.074,35.22 15.233,54.49 z" style="fill:url(#radialGradient1463);stroke-width:.298027;stroke-linecap:round;stroke-linejoin:round"/><use id="use1451" width="100%" height="100%" x="0" y="0" transform="rotate(20.1748,-1835.9,1409.79)" xlink:href="#path1447" style="stroke-width:1.11507"/></g><g id="g1717" transform="matrix(0.103864,0,0,0.103864,340.893,-118.056)" style="stroke-width:1.11507"><path id="path1299" d="m -2919.73,2052.23 c 121.55,-30.63 212.71,-302.07 170.71,-469.59 -41.99,-167.52 -178.48,-285.21 -333.92,-257.23 -155.44,27.98 -233.61,218.82 -184.65,392.14 48.96,173.32 226.31,365.31 347.86,334.68 z" style="fill:url(#radialGradient1307);fill-opacity:1;fill-rule:evenodd;stroke:none;stroke-width:1.11507px;stroke-linecap:butt;stroke-linejoin:miter;stroke-opacity:1"/><path style="fill:url(#radialGradient1323);fill-opacity:1;fill-rule:evenodd;stroke:none;stroke-width:1.11507px;stroke-linecap:butt;stroke-linejoin:miter;stroke-opacity:1" id="path1321" d="m -2919.73,2052.23 c 121.55,-30.63 212.71,-302.07 170.71,-469.59 -41.99,-167.52 -178.48,-285.21 -333.92,-257.23 -155.44,27.98 -233.61,218.82 -184.65,392.14 48.96,173.32 226.31,365.31 347.86,334.68 z"/><path id="use1181" d="m -2968.04,1439.71 c -2.94,21.91 -23.07,37.27 -44.97,34.32 -21.87,-2.94 -37.23,-23.07 -34.29,-44.97 2.95,-21.91 23.08,-37.26 44.94,-34.33 21.91,2.95 37.26,23.07 34.32,44.98 z" style="fill:url(#radialGradient1407);stroke-width:.298027;stroke-linecap:round;stroke-linejoin:round"/><use id="use1185" width="100%" height="100%" x="0" y="0" transform="rotate(20.1748,-4101.25,2061.61)" xlink:href="#path187" style="stroke-width:1.11507"/><path style="opacity:.53;fill:url(#radialGradient2387);stroke-width:.702492;stroke-linecap:round;stroke-linejoin:round" id="path187" d="m -2883.3,1337.35 c 70.7,107.43 66.51,234.93 -9.25,284.8 -75.76,49.86 -194.52,3.29 -265.22,-104.13 -70.7,-107.42 -66.57,-235.01 9.19,-284.88 75.76,-49.87 194.58,-3.21 265.28,104.21 z"/></g><rect style="color:#000;clip-rule:nonzero;display:inline;overflow:visible;visibility:visible;opacity:1;isolation:auto;mix-blend-mode:normal;color-interpolation:sRGB;color-interpolation-filters:linearRGB;solid-color:#000;solid-opacity:1;vector-effect:none;fill:url(#linearGradient1774);fill-opacity:1;fill-rule:nonzero;stroke:none;stroke-width:2.92099;stroke-linecap:butt;stroke-linejoin:miter;stroke-miterlimit:4;stroke-dasharray:none;stroke-dashoffset:0;stroke-opacity:1;marker:none;marker-start:none;marker-mid:none;marker-end:none;color-rendering:auto;image-rendering:auto;shape-rendering:auto;text-rendering:auto;enable-background:accumulate" id="rect1766" width="3.693" height="47.272" x="5.084" y="101.878" ry="1.847" transform="rotate(-18.1799)"/><path style="fill:url(#linearGradient1784);fill-opacity:1;fill-rule:evenodd;stroke:none;stroke-width:1px;stroke-linecap:butt;stroke-linejoin:miter;stroke-opacity:1" id="path1776" d="m 36.0832,92.4217 c 1.9673,-0.801 1.0661,1.089 2.9686,2.587 1.3716,1.006 3.5367,1.125 2.1651,2.13 -1.3716,1.006 -9.1441,3.2013 -7.5896,1.646 1.5545,-1.555 -0.3658,-1.372 0.3657,-3.475 0.7315,-2.103 0.1229,-2.087 2.0902,-2.888 z"/><path id="path1786" d="m 51.6648,84.1794 c 2.0967,-0.3401 0.7951,1.3007 2.314,3.1863 1.1114,1.288 3.1951,1.888 1.6332,2.56 -1.5621,0.674 -9.6286,1.072 -7.7656,-0.09 1.8632,-1.168 -0.049,-1.42 1.1345,-3.306 1.1839,-1.8858 0.587,-2.0063 2.6839,-2.3473 z" style="fill:url(#linearGradient1800);fill-opacity:1;fill-rule:evenodd;stroke:none;stroke-width:1px;stroke-linecap:butt;stroke-linejoin:miter;stroke-opacity:1"/><path style="fill:url(#linearGradient1808);fill-opacity:1;fill-rule:evenodd;stroke:none;stroke-width:1px;stroke-linecap:butt;stroke-linejoin:miter;stroke-opacity:1" id="path1790" d="m 66.5866,90.1037 c 2.0544,0.541 0.1992,1.511 0.8223,3.852 0.4933,1.628 2.1544,3.021 0.4543,3.002 -1.7014,-0.02 -9.2357,-2.927 -7.0599,-3.236 2.1767,-0.311 0.5309,-1.317 2.3781,-2.561 1.8472,-1.242 1.3505,-1.595 3.4052,-1.057 z"/></svg>