<svg xmlns="http://www.w3.org/2000/svg" xmlns:svg="http://www.w3.org/2000/svg" xmlns:xlink="http://www.w3.org/1999/xlink" id="svg2" width="46.75" height="46.75" version="1.1"><defs id="defs4"><linearGradient id="linearGradient2842"><stop style="stop-color:#fff;stop-opacity:1" id="stop2844" offset="0"/><stop style="stop-color:#b8b8b8;stop-opacity:1" id="stop2846" offset="1"/></linearGradient><linearGradient id="linearGradient2814"><stop id="stop2816" offset="0" style="stop-color:#d1d1d1;stop-opacity:1"/><stop id="stop2818" offset="1" style="stop-color:#381d96;stop-opacity:0"/></linearGradient><linearGradient id="linearGradient2122"><stop style="stop-color:#8b6be7;stop-opacity:1" id="stop2124" offset="0"/><stop style="stop-color:#1d1aa2;stop-opacity:1" id="stop2126" offset="1"/></linearGradient><linearGradient id="linearGradient1364"><stop style="stop-color:#0d0d6b;stop-opacity:1" id="stop1366" offset="0"/><stop style="stop-color:#090522;stop-opacity:1" id="stop1368" offset="1"/></linearGradient><radialGradient id="radialGradient1343" cx="24.764" cy="16.362" r="27.5" fx="24.764" fy="16.362" gradientTransform="matrix(0.025214,1.02612,-0.978137,0.024047,38.8302,-3.5757)" gradientUnits="userSpaceOnUse" xlink:href="#linearGradient2122"/><radialGradient id="radialGradient2812" cx="18.387" cy="14.047" r="27.5" fx="18.387" fy="14.047" gradientTransform="matrix(0.011424,1.09885,-1.844,0.018788,52.1505,-5.66745)" gradientUnits="userSpaceOnUse" xlink:href="#linearGradient2814"/><linearGradient id="linearGradient2832" x1="10.018" x2="63.488" y1="8.631" y2="63.66" gradientTransform="translate(-0.002841,-0.002841)" gradientUnits="userSpaceOnUse" xlink:href="#linearGradient1364"/><linearGradient id="linearGradient2848" x1="-.608" x2="-.144" y1="23.356" y2="24.099" gradientTransform="matrix(20.9148,0,0,20.9148,42.1155,-456.251)" gradientUnits="userSpaceOnUse" xlink:href="#linearGradient2842"/></defs><metadata id="metadata7"/><g id="layer1" transform="translate(-8.625,-8.625)"><path id="path1339" d="M 54.5,32 C 54.5,44.42 44.42,54.5 32,54.5 19.58,54.5 9.5,44.42 9.5,32 9.5,19.58 19.58,9.5 32,9.5 44.42,9.5 54.5,19.58 54.5,32 Z" style="fill:url(#radialGradient1343);fill-opacity:1;stroke:none;stroke-width:2;stroke-linecap:round;stroke-linejoin:round;stroke-miterlimit:4;stroke-opacity:1"/><path id="path1341" d="m 32.017,9.15625 c -9.4422,0 -17.5116,5.70875 -20.9545,13.81255 4.9438,2.833 10.3308,4.8871 16.1188,4.625 5.574,-0.3139 10.3722,-4.0629 16.0557,-3.7813 C 47.4511,23.7165 52.2443,25.2944 54.4885,29 53.1426,17.8467 43.6576,9.15625 32.017,9.15625 Z" style="fill:url(#radialGradient2812);fill-opacity:1;stroke:none;stroke-width:2;stroke-linecap:round;stroke-linejoin:round;stroke-miterlimit:4;stroke-opacity:1"/><path id="path2827" d="M 32,8.625 C 19.1131,8.625 8.625,19.1131 8.625,32 8.625,44.8869 19.1131,55.375 32,55.375 44.8869,55.375 55.375,44.8869 55.375,32 55.375,19.1131 44.8869,8.625 32,8.625 Z M 32,9.5 C 44.42,9.5 54.5,19.58 54.5,32 54.5,44.42 44.42,54.5 32,54.5 19.58,54.5 9.5,44.42 9.5,32 9.5,19.58 19.58,9.5 32,9.5 Z" style="fill:url(#linearGradient2832);fill-opacity:1;stroke:none;stroke-width:2;stroke-linecap:round;stroke-linejoin:round;stroke-miterlimit:4;stroke-opacity:1"/><path id="flowRoot2834" d="m 35.8203,25.922 h -2.7069 l -7.6842,1.2758 v 3.5367 h 0.9169 c 1.8773,0.2091 2.4013,0.9202 2.4013,3.5806 v 6.287 c 0,2.4888 -0.2621,2.9678 -1.921,3.3171 l -1.3971,0.3137 v 3.5346 h 13.6656 v -3.5346 l -1.3534,-0.3137 c -1.6591,-0.3974 -1.921,-0.8366 -1.921,-3.3171 V 25.8446 M 32.022,15.8892 c -2.314,0 -4.3223,1.966 -4.3223,4.2791 0,2.3153 1.8338,4.1914 4.1477,4.1914 2.3577,0 4.3224,-1.966 4.3224,-4.321 0,-2.3153 -1.7901,-4.1495 -4.1478,-4.1495" style="font-style:normal;font-variant:normal;font-weight:700;font-stretch:normal;font-size:2.08753px;line-height:55.384%;font-family:'URW Bookman L';text-align:start;writing-mode:lr-tb;text-anchor:start;fill:url(#linearGradient2848);fill-opacity:1;stroke-width:20.9148"/></g></svg>