<svg xmlns="http://www.w3.org/2000/svg" xmlns:svg="http://www.w3.org/2000/svg" xmlns:xlink="http://www.w3.org/1999/xlink" id="svg6962" width="103.763" height="83.862" version="1.1" viewBox="0 0 103.763 83.863"><defs id="defs6964"><linearGradient id="linearGradient6136" x1="-3677.2" x2="-3679.18" y1="-3743.77" y2="-3799.8" gradientTransform="matrix(0.668156,0,0,0.668156,2780.24,3082.83)" gradientUnits="userSpaceOnUse" xlink:href="#linearGradient9267-92"/><linearGradient id="linearGradient9267-92"><stop style="stop-color:#f4e63e;stop-opacity:1" id="stop9269-1" offset="0"/><stop id="stop9277-2" offset=".29" style="stop-color:#eadd0d;stop-opacity:1"/><stop id="stop9275-0" offset=".524" style="stop-color:#f5faad;stop-opacity:1"/><stop style="stop-color:#ddf553;stop-opacity:1" id="stop9652-5" offset=".919"/><stop style="stop-color:#f2b815;stop-opacity:1" id="stop9271-7" offset="1"/></linearGradient><linearGradient id="linearGradient6138" x1="-3662.89" x2="-3662.77" y1="-3120.81" y2="-3175.29" gradientTransform="matrix(0.668156,0,0,0.668156,2882.42,2622.09)" gradientUnits="userSpaceOnUse" xlink:href="#linearGradient9267-92"/><linearGradient id="linearGradient6140" x1="-3757.07" x2="-3758.03" y1="-2985.68" y2="-3033.26" gradientTransform="matrix(0.668156,0,0,0.668156,2990.13,2498.56)" gradientUnits="userSpaceOnUse" xlink:href="#linearGradient9267-92"/><linearGradient id="linearGradient6142" x1="-4000.74" x2="-3999.41" y1="-2582.79" y2="-2631.93" gradientTransform="matrix(0.668156,0,0,0.668156,3193.58,2233.01)" gradientUnits="userSpaceOnUse" xlink:href="#linearGradient9267-92"/><linearGradient id="linearGradient6144" x1="-2598.25" x2="-2604.41" y1="-3960.59" y2="-4005.04" gradientTransform="matrix(0.668156,0,0,0.668156,2123.21,3259.38)" gradientUnits="userSpaceOnUse" xlink:href="#linearGradient9267-92"/><linearGradient id="linearGradient6146" x1="-2595.95" x2="-2598.91" y1="-3911.65" y2="-3953.31" gradientTransform="matrix(0.668156,0,0,0.668156,2123.21,3259.38)" gradientUnits="userSpaceOnUse" xlink:href="#linearGradient9267-92"/><linearGradient id="linearGradient6148" x1="-3895.16" x2="-3892.77" y1="-2714.96" y2="-2763.73" gradientTransform="matrix(0.668156,0,0,0.668156,3106.32,2352.56)" gradientUnits="userSpaceOnUse" xlink:href="#linearGradient9267-92"/><linearGradient id="linearGradient6150" x1="-3457.96" x2="-3455.67" y1="-3191.17" y2="-3242.22" gradientTransform="matrix(0.668156,0,0,0.668156,2771.08,2739.49)" gradientUnits="userSpaceOnUse" xlink:href="#linearGradient9267-92"/><linearGradient id="linearGradient6152" x1="-3390.16" x2="-3388.55" y1="-3215.43" y2="-3266.2" gradientTransform="matrix(0.668156,0,0,0.668156,2755.03,2755.64)" gradientUnits="userSpaceOnUse" xlink:href="#linearGradient9267-92"/><linearGradient id="linearGradient7536" x1="-3677.2" x2="-3679.18" y1="-3743.77" y2="-3799.8" gradientTransform="matrix(0.668156,0,0,0.668156,2780.24,3082.83)" gradientUnits="userSpaceOnUse" xlink:href="#linearGradient9267-92"/><linearGradient id="linearGradient7538" x1="-3662.89" x2="-3662.77" y1="-3120.81" y2="-3175.29" gradientTransform="matrix(0.668156,0,0,0.668156,2882.42,2622.09)" gradientUnits="userSpaceOnUse" xlink:href="#linearGradient9267-92"/><linearGradient id="linearGradient7540" x1="-3757.07" x2="-3758.03" y1="-2985.68" y2="-3033.26" gradientTransform="matrix(0.668156,0,0,0.668156,2990.13,2498.56)" gradientUnits="userSpaceOnUse" xlink:href="#linearGradient9267-92"/><linearGradient id="linearGradient7542" x1="-4000.74" x2="-3999.41" y1="-2582.79" y2="-2631.93" gradientTransform="matrix(0.668156,0,0,0.668156,3193.58,2233.01)" gradientUnits="userSpaceOnUse" xlink:href="#linearGradient9267-92"/><linearGradient id="linearGradient7544" x1="-2598.25" x2="-2604.41" y1="-3960.59" y2="-4005.04" gradientTransform="matrix(0.668156,0,0,0.668156,2123.21,3259.38)" gradientUnits="userSpaceOnUse" xlink:href="#linearGradient9267-92"/><linearGradient id="linearGradient7546" x1="-2595.95" x2="-2598.91" y1="-3911.65" y2="-3953.31" gradientTransform="matrix(0.668156,0,0,0.668156,2123.21,3259.38)" gradientUnits="userSpaceOnUse" xlink:href="#linearGradient9267-92"/><linearGradient id="linearGradient7548" x1="-3895.16" x2="-3892.77" y1="-2714.96" y2="-2763.73" gradientTransform="matrix(0.668156,0,0,0.668156,3106.32,2352.56)" gradientUnits="userSpaceOnUse" xlink:href="#linearGradient9267-92"/><linearGradient id="linearGradient7550" x1="-3457.96" x2="-3455.67" y1="-3191.17" y2="-3242.22" gradientTransform="matrix(0.668156,0,0,0.668156,2771.08,2739.49)" gradientUnits="userSpaceOnUse" xlink:href="#linearGradient9267-92"/><linearGradient id="linearGradient7552" x1="-3390.16" x2="-3388.55" y1="-3215.43" y2="-3266.2" gradientTransform="matrix(0.668156,0,0,0.668156,2755.03,2755.64)" gradientUnits="userSpaceOnUse" xlink:href="#linearGradient9267-92"/></defs><metadata id="metadata6967"/><g id="layer1" transform="translate(-392.086,-444.788)"><rect style="color:#000;display:inline;overflow:visible;visibility:visible;fill:#204a87;fill-opacity:1;fill-rule:nonzero;stroke:none;stroke-width:2.685;marker:none;enable-background:accumulate" id="rect6090" width="48.991" height="48.974" x="309.196" y="507.851" transform="matrix(0.989139,-0.146981,0.18425,0.982879,0,0)"/><rect style="color:#000;display:inline;overflow:visible;visibility:visible;fill:#00aeef;fill-opacity:1;fill-rule:nonzero;stroke:none;stroke-width:2.685;marker:none;enable-background:accumulate" id="rect6092" width="66.064" height="37.098" x="-464.763" y="488.988" transform="matrix(0.131934,-0.991258,0.994847,0.101383,0,0)"/><path style="display:inline;fill:#1586ce;fill-opacity:1;stroke:none" id="path6094" d="m 395.291,482.179 -3.205,-24.441 27.757,-3.222 2.602,13.897 3.48,-10.231 8.591,-0.138 0.604,-5.874 23.414,0.938 -0.02,4.587 15.977,0.973 -2.351,24.061 -23.051,-1.412 0.383,-5.175 -6.178,-0.45 2.207,6.614 -26.488,-0.392 -0.206,-2.762 z"/><path style="display:inline;fill:#2b5dac;fill-opacity:1;stroke:none" id="path6096" d="m 432.477,506.351 2.69,-23.939 18.719,1.921 -0.286,2.308 16.565,-0.708 -0.02,-1.7 25.182,-0.495 0.526,23.516 -23.059,0.987 c 0,0 -3.866,2.126 -9.47,2.297 -13.814,0.423 -12.351,-10.769 -12.351,-10.769 l -6.743,-0.309 -1.116,7.75 z"/><path style="display:inline;fill:#1586ce;fill-opacity:1;stroke:none" id="path6098" d="m 472.185,450.113 8.765,-2.122 5.186,17.506 3.348,0.03 4.949,12.548 c 0,0 -0.928,5.581 -5.887,6.139 -3.028,0.899 -9.864,-0.125 -9.864,-0.125 l -3.885,-12.388 c 0,-3.114 1.619,-4.399 1.949,-4.149 z"/><g style="color:#000;font-style:normal;font-variant:normal;font-weight:700;font-stretch:normal;font-size:48.1072px;line-height:125%;font-family:'DejaVu Sans Condensed';-inkscape-font-specification:'DejaVu Sans Condensed, Bold';text-indent:0;text-align:start;text-decoration:none;text-decoration-line:none;letter-spacing:0;word-spacing:0;text-transform:none;writing-mode:lr-tb;direction:ltr;baseline-shift:baseline;text-anchor:start;display:inline;overflow:visible;visibility:visible;fill:url(#linearGradient6136);fill-opacity:1;fill-rule:nonzero;stroke:none;stroke-width:1px;marker:none;enable-background:accumulate" id="text6100" transform="matrix(0.595093,-0.070463,0.079143,0.529826,169.987,192.836)"><path style="fill:url(#linearGradient7536);fill-opacity:1" id="path7510" d="m 306.654,546.039 h 10.359 l 7.188,18.768 7.234,-18.768 h 10.336 v 35.07 h -7.705 v -25.651 l -7.258,18.91 h -5.168 l -7.258,-18.91 v 25.651 h -7.728 z"/></g><g style="color:#000;font-style:normal;font-variant:normal;font-weight:700;font-stretch:normal;font-size:48.1072px;line-height:125%;font-family:'DejaVu Sans Condensed';-inkscape-font-specification:'DejaVu Sans Condensed, Bold';text-indent:0;text-align:start;text-decoration:none;text-decoration-line:none;letter-spacing:0;word-spacing:0;text-transform:none;writing-mode:lr-tb;direction:ltr;baseline-shift:baseline;text-anchor:start;display:inline;overflow:visible;visibility:visible;fill:url(#linearGradient6138);fill-opacity:1;fill-rule:nonzero;stroke:none;stroke-width:1px;marker:none;enable-background:accumulate" id="text6104" transform="matrix(0.600332,0,0,0.534491,169.987,192.836)"><path style="fill:url(#linearGradient7538);fill-opacity:1" id="path7513" d="m 441.031,530.277 h -12.732 l -2.02,6.389 h -8.174 l 11.698,-35.07 h 9.701 l 11.698,35.07 h -8.198 z m -10.712,-6.507 h 8.645 l -4.299,-13.953 z"/></g><g style="color:#000;font-style:normal;font-variant:normal;font-weight:700;font-stretch:normal;font-size:48.1072px;line-height:125%;font-family:'DejaVu Sans Condensed';-inkscape-font-specification:'DejaVu Sans Condensed, Bold';text-indent:0;text-align:start;text-decoration:none;text-decoration-line:none;letter-spacing:0;word-spacing:0;text-transform:none;writing-mode:lr-tb;direction:ltr;baseline-shift:baseline;text-anchor:start;display:inline;overflow:visible;visibility:visible;fill:url(#linearGradient6140);fill-opacity:1;fill-rule:nonzero;stroke:none;stroke-width:1px;marker:none;enable-background:accumulate" id="text6108" transform="matrix(0.599801,0.022477,-0.025246,0.534018,169.987,192.836)"><path style="fill:url(#linearGradient7540);fill-opacity:1" id="path7516" d="m 465.601,470.199 h 29.081 v 6.836 h -10.453 v 28.234 h -8.151 v -28.234 h -10.477 z"/></g><g style="color:#000;font-style:normal;font-variant:normal;font-weight:700;font-stretch:normal;font-size:48.1072px;line-height:125%;font-family:'DejaVu Sans Condensed';-inkscape-font-specification:'DejaVu Sans Condensed, Bold';text-indent:0;text-align:start;text-decoration:none;text-decoration-line:none;letter-spacing:0;word-spacing:0;text-transform:none;writing-mode:lr-tb;direction:ltr;baseline-shift:baseline;text-anchor:start;display:inline;overflow:visible;visibility:visible;fill:url(#linearGradient6142);fill-opacity:1;fill-rule:nonzero;stroke:none;stroke-width:1px;marker:none;enable-background:accumulate" id="text6112" transform="matrix(0.598456,0.027076,-0.041778,0.534276,169.987,192.836)"><path style="fill:url(#linearGradient7542);fill-opacity:1" id="path7519" d="m 507.995,474.454 h 8.151 v 13.365 h 12.003 v -13.365 h 8.128 v 35.07 h -8.128 v -14.869 h -12.003 v 14.869 h -8.151 z"/></g><g style="color:#000;font-style:normal;font-variant:normal;font-weight:700;font-stretch:normal;font-size:37.4167px;line-height:125%;font-family:'DejaVu Sans Condensed';-inkscape-font-specification:'DejaVu Sans Condensed, Bold';text-indent:0;text-align:start;text-decoration:none;text-decoration-line:none;letter-spacing:0;word-spacing:0;text-transform:none;writing-mode:lr-tb;direction:ltr;baseline-shift:baseline;text-anchor:start;display:inline;overflow:visible;visibility:visible;fill:url(#linearGradient6144);fill-opacity:1;fill-rule:nonzero;stroke:none;stroke-width:1px;marker:none;enable-background:accumulate" id="text6116" transform="matrix(0.583956,-0.120178,0.139021,0.520869,169.987,192.836)"><path style="fill:url(#linearGradient7544);fill-opacity:1" id="path7522" d="m 383.541,592.656 h 5.883 v 20.462 h -5.883 z m 0,-7.966 h 5.883 v 5.335 h -5.883 z"/></g><g style="color:#000;font-style:normal;font-variant:normal;font-weight:700;font-stretch:normal;font-size:37.4167px;line-height:125%;font-family:'DejaVu Sans Condensed';-inkscape-font-specification:'DejaVu Sans Condensed, Bold';text-indent:0;text-align:start;text-decoration:none;text-decoration-line:none;letter-spacing:0;word-spacing:0;text-transform:none;writing-mode:lr-tb;direction:ltr;baseline-shift:baseline;text-anchor:start;display:inline;overflow:visible;visibility:visible;fill:url(#linearGradient6146);fill-opacity:1;fill-rule:nonzero;stroke:none;stroke-width:1px;marker:none;enable-background:accumulate" id="text6120" transform="matrix(0.583956,-0.120178,0.139021,0.520869,169.987,192.836)"><path style="fill:url(#linearGradient7546);fill-opacity:1" id="path7525" d="m 395.812,618.76 v 5.773 q -2.01,-1.005 -3.947,-1.516 -1.918,-0.512 -3.635,-0.512 -2.266,0 -3.362,0.694 -1.078,0.695 -1.078,2.156 0,1.096 0.731,1.718 0.731,0.602 2.667,1.041 l 2.686,0.603 q 4.111,0.913 5.828,2.777 1.717,1.863 1.717,5.298 0,4.513 -2.411,6.723 -2.394,2.193 -7.345,2.193 -2.338,0 -4.695,-0.493 -2.339,-0.494 -4.696,-1.462 v -5.938 q 2.357,1.389 4.55,2.101 2.192,0.695 4.238,0.695 2.065,0 3.161,-0.768 1.114,-0.767 1.114,-2.192 0,-1.279 -0.749,-1.973 -0.749,-0.695 -2.996,-1.243 l -2.448,-0.603 q -3.672,-0.877 -5.39,-2.795 -1.699,-1.918 -1.699,-5.17 0,-4.074 2.375,-6.267 2.375,-2.192 6.797,-2.192 2.028,0 4.165,0.347 2.138,0.329 4.422,1.005 z"/></g><g style="color:#000;font-style:normal;font-variant:normal;font-weight:700;font-stretch:normal;font-size:48.1072px;line-height:125%;font-family:'DejaVu Sans Condensed';-inkscape-font-specification:'DejaVu Sans Condensed, Bold';text-indent:0;text-align:start;text-decoration:none;text-decoration-line:none;letter-spacing:0;word-spacing:0;text-transform:none;writing-mode:lr-tb;direction:ltr;baseline-shift:baseline;text-anchor:start;display:inline;overflow:visible;visibility:visible;fill:url(#linearGradient6148);fill-opacity:1;fill-rule:nonzero;stroke:none;stroke-width:1px;marker:none;enable-background:accumulate" id="text6124" transform="matrix(0.597905,0.048015,-0.05393,0.53233,169.987,192.836)"><path style="fill:url(#linearGradient7548);fill-opacity:1" id="path7528" d="m 492.523,505.011 h 21.963 v 6.836 h -13.812 v 6.53 h 12.99 v 6.836 h -12.99 v 14.869 h -8.151 z"/></g><g style="color:#000;font-style:normal;font-variant:normal;font-weight:700;font-stretch:normal;font-size:48.1072px;line-height:125%;font-family:'DejaVu Sans Condensed';-inkscape-font-specification:'DejaVu Sans Condensed, Bold';text-indent:0;text-align:start;text-decoration:none;text-decoration-line:none;letter-spacing:0;word-spacing:0;text-transform:none;writing-mode:lr-tb;direction:ltr;baseline-shift:baseline;text-anchor:start;display:inline;overflow:visible;visibility:visible;fill:url(#linearGradient6150);fill-opacity:1;fill-rule:nonzero;stroke:none;stroke-width:1px;marker:none;enable-background:accumulate" id="text6128" transform="matrix(0.599815,-0.022188,0.024922,0.53403,169.987,192.836)"><path style="fill:url(#linearGradient7550);fill-opacity:1" id="path7531" d="m 448.187,572.805 h 8.151 v 21.023 q 0,4.346 1.268,6.225 1.292,1.855 4.182,1.855 2.912,0 4.181,-1.855 1.292,-1.879 1.292,-6.225 v -21.023 h 8.151 v 21.023 q 0,7.446 -3.383,11.087 -3.359,3.641 -10.241,3.641 -6.883,0 -10.242,-3.641 -3.359,-3.641 -3.359,-11.087 z"/></g><g style="color:#000;font-style:normal;font-variant:normal;font-weight:700;font-stretch:normal;font-size:48.1072px;line-height:125%;font-family:'DejaVu Sans Condensed';-inkscape-font-specification:'DejaVu Sans Condensed, Bold';text-indent:0;text-align:start;text-decoration:none;text-decoration-line:none;letter-spacing:0;word-spacing:0;text-transform:none;writing-mode:lr-tb;direction:ltr;baseline-shift:baseline;text-anchor:start;display:inline;overflow:visible;visibility:visible;fill:url(#linearGradient6152);fill-opacity:1;fill-rule:nonzero;stroke:none;stroke-width:1px;marker:none;enable-background:accumulate" id="text6132" transform="matrix(0.599659,-0.025309,0.028426,0.533891,169.987,192.836)"><path style="fill:url(#linearGradient7552);fill-opacity:1" id="path7534" d="m 479.197,573.505 h 9.09 l 11.487,24.053 v -24.053 h 7.704 v 35.07 h -9.09 l -11.463,-24.054 v 24.054 h -7.728 z"/></g><text style="color:#000;font-style:italic;font-variant:normal;font-weight:400;font-stretch:normal;font-size:23.2365px;line-height:29.0456px;font-family:'Trebuchet MS';-inkscape-font-specification:'Trebuchet MS, Italic';text-indent:0;text-align:start;text-decoration:none;text-decoration-line:none;text-decoration-style:solid;text-decoration-color:#000;letter-spacing:0;word-spacing:0;text-transform:none;writing-mode:lr-tb;direction:ltr;baseline-shift:baseline;text-anchor:start;white-space:normal;clip-rule:nonzero;display:inline;overflow:visible;visibility:visible;opacity:1;isolation:auto;mix-blend-mode:normal;color-interpolation:sRGB;color-interpolation-filters:linearRGB;solid-color:#000;solid-opacity:1;fill:#1586ce;fill-opacity:1;fill-rule:nonzero;stroke:none;stroke-width:1.16182px;stroke-linecap:butt;stroke-linejoin:miter;stroke-miterlimit:4;stroke-dasharray:none;stroke-dashoffset:0;stroke-opacity:1;color-rendering:auto;image-rendering:auto;shape-rendering:auto;text-rendering:auto;enable-background:accumulate" id="text879" x="393.387" y="528.424" xml:space="preserve"><tspan id="tspan877" x="393.387" y="528.424" style="stroke-width:1.16182px;fill:#1586ce;fill-opacity:1">Advanced</tspan></text></g></svg>