<svg xmlns="http://www.w3.org/2000/svg" xmlns:svg="http://www.w3.org/2000/svg" xmlns:xlink="http://www.w3.org/1999/xlink" id="Layer_1" width="43.977" height="43.819" space="preserve" version="1.1" viewBox="0 0 43.977 43.819" style="overflow:visible"><metadata id="metadata2"/><defs id="defs39"><linearGradient id="linearGradient12874"><stop style="stop-color:#c3f272;stop-opacity:1" id="stop12870" offset="0"/><stop style="stop-color:#8fd615;stop-opacity:1" id="stop12872" offset="1"/></linearGradient><linearGradient id="linearGradient16346"><stop style="stop-color:#6a9e10;stop-opacity:1" id="stop16342" offset="0"/><stop style="stop-color:#c6f181;stop-opacity:1" id="stop16478" offset="1"/></linearGradient><radialGradient id="radialGradient13441" cx="11.606" cy="-4.788" r="21.003" fx="11.606" fy="-4.788" gradientTransform="matrix(1.18533,0.365592,-0.264999,0.859183,3.38727,13.9724)" gradientUnits="userSpaceOnUse" xlink:href="#linearGradient12874"/><linearGradient id="linearGradient16348" x1="6.258" x2="39.287" y1="29.884" y2="13.641" gradientTransform="rotate(45,21.3451,21.8941)" gradientUnits="userSpaceOnUse" xlink:href="#linearGradient16346"/></defs><path id="rect1151" d="M 35.8698,6.76616 C 34.0872,4.98361 31.218,4.98498 29.4354,6.76756 L 21.8866,14.3163 14.3363,6.76606 C 12.5538,4.98351 9.68321,4.98351 7.9006,6.76613 L 6.53751,8.12922 C 4.75496,9.91176 4.75489,12.7824 6.53744,14.565 l 7.55026,7.5502 -7.55025,7.5503 c -1.78254,1.7826 -1.78396,4.6519 -0.001,6.4344 l 1.3645,1.3645 c 1.78255,1.7826 4.65326,1.7826 6.43576,0 l 7.5503,-7.5503 7.5489,7.549 c 1.7826,1.7825 4.6532,1.7824 6.4358,-10e-5 l 1.3631,-1.3631 c 1.7826,-1.7826 1.7826,-4.6532 0,-6.4357 l -7.5489,-7.549 7.5488,-7.5487 c 1.7826,-1.7826 1.7825,-4.65329 0,-6.43584 z" style="color:#000;font-variation-settings:normal;overflow:visible;fill:url(#radialGradient13441);fill-opacity:1;stroke:url(#linearGradient16348);stroke-width:.922;stroke-linecap:butt;stroke-linejoin:miter;stroke-miterlimit:4;stroke-dasharray:none;stroke-dashoffset:0;stroke-opacity:1;stop-color:#000"/></svg>