<svg xmlns="http://www.w3.org/2000/svg" xmlns:svg="http://www.w3.org/2000/svg" id="svg6926" width="30" height="30" version="1.1"><defs id="defs6928"><linearGradient id="linearGradient7482"><stop style="stop-color:#f7d000;stop-opacity:1" id="stop7484" offset="0"/><stop id="stop7490" offset=".5" style="stop-color:#ffef98;stop-opacity:1"/><stop style="stop-color:#f2cc00;stop-opacity:1" id="stop7486" offset="1"/></linearGradient></defs><metadata id="metadata6931"/><g id="layer1" transform="translate(210.272,-365.729)"><path style="color:#000;display:inline;overflow:visible;visibility:visible;fill:#ef2929;fill-opacity:1;fill-rule:nonzero;stroke:none;stroke-width:.787391;marker:none;enable-background:accumulate" id="path6948-4" d="m -207.048,391.864 c 2.538,-4.835 6.513,-8.682 10.562,-12.256 2.328,-1.95 6.833,-7.104 9.423,-8.694 1.5,-0.953 5.582,-0.612 4.898,2.247 -2.992,1.939 -18.129,17.22 -21.873,22.431 -2.585,0.803 -4.199,-1.295 -3.01,-3.728 z"/><path id="path821" d="m -205.358,373.459 c 2.082,5.048 5.683,9.247 9.383,13.18 2.138,2.157 5.925,6.203 8.358,8.025 2.165,0.819 4.501,-0.118 4.224,-2.643 -4.513,-2.916 -14.754,-16.651 -18.617,-22 -2.5,-1.04 -4.3,0.9 -3.343,3.434 z" style="color:#000;display:inline;overflow:visible;visibility:visible;fill:#ef2929;fill-opacity:1;fill-rule:nonzero;stroke:none;stroke-width:.787391;marker:none;enable-background:accumulate"/></g></svg>