<svg xmlns="http://www.w3.org/2000/svg" xmlns:svg="http://www.w3.org/2000/svg" xmlns:xlink="http://www.w3.org/1999/xlink" id="Layer_1" width="43.977" height="43.819" space="preserve" version="1.1" viewBox="0 0 43.977 43.819" style="overflow:visible"><metadata id="metadata2"/><defs id="defs39"><linearGradient id="linearGradient12874"><stop style="stop-color:#c3f272;stop-opacity:1" id="stop12870" offset="0"/><stop style="stop-color:#8fd615;stop-opacity:1" id="stop12872" offset="1"/></linearGradient><linearGradient id="linearGradient16346"><stop style="stop-color:#6a9e10;stop-opacity:1" id="stop16342" offset="0"/><stop style="stop-color:#c6f181;stop-opacity:1" id="stop16478" offset="1"/></linearGradient><radialGradient id="radialGradient13441" cx="11.606" cy="-4.788" r="21.003" fx="11.606" fy="-4.788" gradientTransform="matrix(1.27203,0.396093,-0.267314,0.858465,-2.27992,18.4172)" gradientUnits="userSpaceOnUse" xlink:href="#linearGradient12874"/><linearGradient id="linearGradient16348" x1="1.158" x2="39.57" y1="18.363" y2="29.79" gradientTransform="translate(0.001782,0.446715)" gradientUnits="userSpaceOnUse" xlink:href="#linearGradient16346"/></defs><path id="rect1151" d="m 20.9203,1.37322 c -2.5209,0 -4.5488,2.02984 -4.5488,4.55078 V 16.5996 H 5.69378 c -2.5209,0 -4.5507,2.0298 -4.5507,4.5508 v 1.9277 c 0,2.5209 2.0298,4.5508 4.5507,4.5508 H 16.3715 v 10.6777 c 0,2.5209 2.0279,4.5508 4.5488,4.5508 H 22.85 c 2.5209,0 4.5508,-2.0299 4.5508,-4.5508 V 27.6289 h 10.6758 c 2.5209,0 4.5507,-2.0299 4.5507,-4.5508 v -1.9277 c 0,-2.521 -2.0298,-4.5508 -4.5507,-4.5508 H 27.4008 V 5.924 c 0,-2.52094 -2.0299,-4.55078 -4.5508,-4.55078 z" style="color:#000;font-variation-settings:normal;overflow:visible;fill:url(#radialGradient13441);fill-opacity:1;stroke:url(#linearGradient16348);stroke-width:.922;stroke-linecap:butt;stroke-linejoin:miter;stroke-miterlimit:4;stroke-dasharray:none;stroke-dashoffset:0;stroke-opacity:1;stop-color:#000"/></svg>