<svg xmlns="http://www.w3.org/2000/svg" xmlns:svg="http://www.w3.org/2000/svg" xmlns:xlink="http://www.w3.org/1999/xlink" id="svg83" width="400.7" height="50" version="1.1"><metadata id="metadata87"/><defs id="defs17"><linearGradient id="linearGradient885"><stop style="stop-color:#efc300;stop-opacity:1" id="stop881" offset="0"/><stop style="stop-color:#fef8c6;stop-opacity:1" id="stop883" offset="1"/></linearGradient><linearGradient id="c" x1="7.159" x2="41.76" y1="79.43" y2="123.2" gradientTransform="matrix(0.3846,-1.05,-0.8399,-0.3078,111.5,150.5)" gradientUnits="userSpaceOnUse"><stop style="stop-color:#d3b900" id="stop2" offset="0"/><stop style="stop-color:#fdffb8" id="stop4" offset="1"/></linearGradient><linearGradient id="b" x1="112.7" x2="98.99" y1="58.78" y2="14.36" gradientTransform="matrix(0.8285,0.305,-0.3913,1.063,-0.7207,-3.862)" gradientUnits="userSpaceOnUse"><stop style="stop-color:#d3b900" id="stop7" offset="0"/><stop style="stop-color:#fdffb8" id="stop9" offset="1"/></linearGradient><linearGradient id="a" x1="112.7" x2="98.99" y1="58.78" y2="14.36" gradientTransform="matrix(0.8285,0.305,-0.3913,1.063,23.22,-26.61)" gradientUnits="userSpaceOnUse"><stop style="stop-color:#d3b900" id="stop12" offset="0"/><stop style="stop-color:#fdffb8" id="stop14" offset="1"/></linearGradient><linearGradient id="linearGradient3003" x1="-344.15" x2="-395.85" y1="274.71" y2="425.4" gradientTransform="matrix(-0.08806,0,0,0.08806,301.153,-97.798)" gradientUnits="userSpaceOnUse"><stop id="stop2-7" offset="0" stop-color="#FFF"/><stop id="stop4-2" offset="1" stop-color="#FFF" stop-opacity="0"/></linearGradient><linearGradient id="linearGradient889" x1="-5.285" x2="-4.761" y1="150.84" y2="119.588" gradientTransform="translate(29.502,-117.784)" gradientUnits="userSpaceOnUse" xlink:href="#linearGradient885"/><linearGradient id="linearGradient895" x1="-5.285" x2="-4.761" y1="150.84" y2="119.588" gradientTransform="matrix(0.482511,0,0,0.482511,26.7295,-47.8117)" gradientUnits="userSpaceOnUse" xlink:href="#linearGradient885"/></defs><rect id="rect19" width="49.997" height="49.566" x="300.644" y="69.06" style="color:#000;fill:#19aeff;fill-opacity:.2805;stroke:#000;stroke-width:.124452"/><rect id="rect21" width="49.997" height="49.566" x=".062" y="69.37" style="color:#000;fill:#19aeff;fill-opacity:.2805;stroke:#000;stroke-width:.124452"/><rect id="rect23" width="49.997" height="49.566" x="50.059" y="69.37" style="color:#000;fill:#19aeff;fill-opacity:.2805;stroke:#000;stroke-width:.124452"/><rect id="rect25" width="49.997" height="49.566" x="100.056" y="69.37" style="color:#000;fill:#19aeff;fill-opacity:.2805;stroke:#000;stroke-width:.124452"/><rect id="rect27" width="49.997" height="49.566" x="150.053" y="69.37" style="color:#000;fill:#19aeff;fill-opacity:.2805;stroke:#000;stroke-width:.124452"/><rect id="rect29" width="49.997" height="49.566" x="200.15" y="69.37" style="color:#000;fill:#19aeff;fill-opacity:.2805;stroke:#000;stroke-width:.124452"/><rect id="rect31" width="49.997" height="49.566" x="250.247" y="69.37" style="color:#000;fill:#19aeff;fill-opacity:.2805;stroke:#000;stroke-width:.124452"/><rect style="color:#000;fill:#19aeff;fill-opacity:.2805;stroke:#000;stroke-width:.124452" id="rect925" width="49.997" height="49.566" x="350.641" y="69.06"/><circle id="circle55-9" cx="24.144" cy="17.43" r="16" style="fill:url(#linearGradient889);fill-opacity:1;stroke:#fce94f"/><path style="color:#000;clip-rule:nonzero;display:inline;overflow:visible;visibility:visible;opacity:1;isolation:auto;mix-blend-mode:normal;color-interpolation:sRGB;color-interpolation-filters:linearRGB;solid-color:#000;solid-opacity:1;vector-effect:none;fill:#fff;fill-opacity:1;fill-rule:nonzero;stroke:#fce94f;stroke-width:.670869;stroke-linecap:butt;stroke-linejoin:miter;stroke-miterlimit:4;stroke-dasharray:none;stroke-dashoffset:0;stroke-opacity:1;marker:none;marker-start:none;marker-mid:none;marker-end:none;color-rendering:auto;image-rendering:auto;shape-rendering:auto;text-rendering:auto;enable-background:accumulate" id="path891" d="m 31.6923,22.1825 1.1102,4.5961 -4.4976,-1.4589 -1.3366,4.5354 -3.1656,-3.5122 -3.4253,3.2595 -0.9854,-4.6244 -4.5961,1.1102 1.4589,-4.4976 -4.5354,-1.3366 3.5122,-3.1656 -3.2595,-3.4253 4.6244,-0.9854 -1.1102,-4.59607 4.4976,1.45886 1.3366,-4.53544 3.1656,3.51222 3.4253,-3.25951 0.9854,4.62447 4.5961,-1.1102 -1.4589,4.49757 4.5354,1.3366 -3.5122,3.1656 3.2595,3.4253 z"/><circle style="fill:url(#linearGradient895);fill-opacity:1;stroke:#fce94f;stroke-width:.48251" id="circle893" cx="24.144" cy="17.43" r="7.72"/><circle style="fill:#2d2d2d;fill-opacity:1;stroke:#19aeff" id="circle902" cx="74.34" cy="17.486" r="16"/><path style="fill:#3465a4;fill-opacity:1;stroke:none;stroke-width:.7328" id="circle1002" d="M 62.6103,17.3808 A 11.7248,11.7248 0 0 0 74.2392,29.1015 V 5.6602 A 11.7248,11.7248 0 0 0 62.6103,17.3808 Z"/></svg>