<svg xmlns="http://www.w3.org/2000/svg" xmlns:svg="http://www.w3.org/2000/svg" id="svg83" width="33" height="33" version="1.1"><metadata id="metadata87"/><defs id="defs17"><linearGradient id="c" x1="7.159" x2="41.76" y1="79.43" y2="123.2" gradientTransform="matrix(0.3846,-1.05,-0.8399,-0.3078,111.5,150.5)" gradientUnits="userSpaceOnUse"><stop style="stop-color:#d3b900" id="stop2" offset="0"/><stop style="stop-color:#fdffb8" id="stop4" offset="1"/></linearGradient><linearGradient id="b" x1="112.7" x2="98.99" y1="58.78" y2="14.36" gradientTransform="matrix(0.8285,0.305,-0.3913,1.063,-0.7207,-3.862)" gradientUnits="userSpaceOnUse"><stop style="stop-color:#d3b900" id="stop7" offset="0"/><stop style="stop-color:#fdffb8" id="stop9" offset="1"/></linearGradient><linearGradient id="a" x1="112.7" x2="98.99" y1="58.78" y2="14.36" gradientTransform="matrix(0.8285,0.305,-0.3913,1.063,23.22,-26.61)" gradientUnits="userSpaceOnUse"><stop style="stop-color:#d3b900" id="stop12" offset="0"/><stop style="stop-color:#fdffb8" id="stop14" offset="1"/></linearGradient><linearGradient id="linearGradient3003" x1="-344.15" x2="-395.85" y1="274.71" y2="425.4" gradientTransform="matrix(-0.08806,0,0,0.08806,301.153,-97.798)" gradientUnits="userSpaceOnUse"><stop id="stop2-7" offset="0" stop-color="#FFF"/><stop id="stop4-2" offset="1" stop-color="#FFF" stop-opacity="0"/></linearGradient></defs><circle style="fill:#2d2d2d;fill-opacity:1;stroke:#19aeff" id="circle902" cx="16.5" cy="16.5" r="16"/><path style="color:#000;overflow:visible;fill:#fefbe2;stroke:none;stroke-width:2.8;stop-color:#000;fill-opacity:1" id="path1894" d="m 19.3081,15.1702 -2.3575,-1.2565 -2.3715,1.2298 0.4665,-2.6304 -1.9024,-1.8754 2.6457,-0.3692 1.1958,-2.38881 1.1687,2.40221 2.6414,0.399 -1.9234,1.8538 z" transform="matrix(0.846671,0.204117,-0.204117,0.846671,6.48396,-3.5204)"/><path style="color:#000;overflow:visible;fill:#fffdec;fill-opacity:1;stroke:none;stroke-width:2.8;stop-color:#000" id="path1896" d="m 13.0848,16.901 -1.9083,0.3306 -0.8096,1.7595 -0.90413,-1.7128 -1.92354,-0.2263 1.3496,-1.3891 -0.37923,-1.8993 1.7382,0.8542 1.6892,-0.9475 -0.2754,1.9171 z" transform="rotate(-6.49983,6.80829,23.7099)"/><path style="color:#000;overflow:visible;fill:#fef8c5;fill-opacity:1;stroke:none;stroke-width:2.8;stop-color:#000" id="path1898" d="m 16.7463,24.3805 -1.0677,-0.02 -0.622,0.8682 -0.3107,-1.0217 -1.0178,-0.3232 0.8756,-0.6113 -0.01,-1.0679 0.8519,0.6439 1.0134,-0.3367 -0.3491,1.0092 z"/><path style="color:#000;overflow:visible;fill:#fffae1;fill-opacity:1;stroke:none;stroke-width:2.8;stop-color:#000" id="path2018" d="m 22.903,22.6073 -1.0677,-0.02 -0.622,0.8682 -0.3107,-1.0217 -1.0178,-0.3232 0.8756,-0.6113 -0.01,-1.0679 0.8519,0.6439 1.0134,-0.3367 -0.3491,1.0092 z"/><path style="color:#000;overflow:visible;fill:#fffae1;fill-opacity:1;stroke:none;stroke-width:2.8;stop-color:#000" id="path2590" d="m 25.7104,16.2043 -1.0677,-0.02 -0.622,0.8682 -0.3107,-1.0217 -1.0178,-0.3232 0.8756,-0.6113 -0.01,-1.0679 0.8519,0.6439 1.0134,-0.3367 -0.3491,1.0092 z"/></svg>