<svg xmlns="http://www.w3.org/2000/svg" xmlns:svg="http://www.w3.org/2000/svg" xmlns:xlink="http://www.w3.org/1999/xlink" id="svg4166" width="43.839" height="45.627" version="1.0"><defs id="defs4168"><filter id="filter4160"><feGaussianBlur id="feGaussianBlur4162" stdDeviation="2.309"/></filter><linearGradient id="linearGradient3851"><stop style="stop-color:#fff;stop-opacity:1" id="stop3853" offset="0"/><stop style="stop-color:#a8cbff;stop-opacity:1" id="stop3855" offset="1"/></linearGradient><linearGradient id="linearGradient4071" x1="172" x2="209.071" y1="158.291" y2="206.076" gradientTransform="matrix(6.49078,0,0,6.49078,-930.025,-989.726)" gradientUnits="userSpaceOnUse" xlink:href="#linearGradient3851"/><linearGradient id="linearGradient3833"><stop style="stop-color:#8c9bff;stop-opacity:1" id="stop3835" offset="0"/><stop id="stop3837" offset="1" style="stop-color:#fff;stop-opacity:1"/></linearGradient><linearGradient id="linearGradient4063" x1="183.036" x2="183.036" y1="158.791" y2="205.576" gradientTransform="matrix(6.49078,0,0,6.49078,-930.025,-989.726)" gradientUnits="userSpaceOnUse" xlink:href="#linearGradient3833"/><linearGradient id="linearGradient3045" x1="193.416" x2="180.357" y1="203.997" y2="159.03" gradientTransform="matrix(-0.565018,0,0,0.565018,179.823,334.163)" gradientUnits="userSpaceOnUse" xlink:href="#linearGradient3833"/><linearGradient id="linearGradient3047" x1="172" x2="209.071" y1="158.291" y2="206.076" gradientTransform="matrix(-0.565018,0,0,0.565018,179.823,334.163)" gradientUnits="userSpaceOnUse" xlink:href="#linearGradient3851"/></defs><metadata id="metadata4171"/><g id="layer1" transform="translate(-54.4845,-421.198)"><path style="display:inline;fill:#050f99;fill-opacity:1;stroke:none;filter:url(#filter4160)" id="path4122" d="m 54.3964,14.5726 c -17.8414,0 -32.3437,10.4934 -32.3437,23.4062 0,8.1754 5.8384,15.3485 14.625,19.5313 4.5701,4.8164 -3.2937,16.0344 -7.5,24.0312 -1.7376,3.3033 15.3587,-19.6348 21.7812,-20.3125 1.1264,0.086 2.2798,0.125 3.4375,0.125 17.8414,0 32.3125,-10.4621 32.3125,-23.375 0,-12.9128 -14.4711,-23.4062 -32.3125,-23.4062 z" transform="matrix(-0.56502,0,0,0.56502,107.13,416.766)"/><path style="display:inline;fill:url(#linearGradient3045);fill-opacity:1;stroke:url(#linearGradient3047);stroke-width:.565018;stroke-opacity:1" id="path4055" d="m 76.3991,423.88 c 10.0808,0 18.275,5.93 18.275,13.225 0,4.619 -3.2988,8.672 -8.2636,11.036 -2.5822,2.721 1.861,9.06 4.2379,13.578 0.9814,1.866 -8.6782,-11.094 -12.307,-11.477 -0.6365,0.06 -1.2882,0.07 -1.9423,0.07 -10.0807,0 -18.2571,-5.911 -18.2572,-13.207 0,-7.296 8.1765,-13.225 18.2572,-13.225 z"/></g></svg>