<svg xmlns="http://www.w3.org/2000/svg" xmlns:svg="http://www.w3.org/2000/svg" id="svg6926" width="30" height="30" version="1.1"><defs id="defs6928"><linearGradient id="linearGradient7482"><stop style="stop-color:#f7d000;stop-opacity:1" id="stop7484" offset="0"/><stop id="stop7490" offset=".5" style="stop-color:#ffef98;stop-opacity:1"/><stop style="stop-color:#f2cc00;stop-opacity:1" id="stop7486" offset="1"/></linearGradient></defs><metadata id="metadata6931"/><g id="layer1" transform="translate(210.272,-365.729)"><path style="color:#000;display:inline;overflow:visible;visibility:visible;fill:#dcb400;fill-opacity:1;fill-rule:nonzero;stroke:none;stroke-width:.603068;marker:none;enable-background:accumulate" id="path6948-4" d="m -207.09,380.731 c 3.337,0.594 5.682,3.252 6.897,5.992 0.242,3.97 -1.318,2.704 1.088,-3.272 1.548,-3.733 4.338,-6.876 7.213,-9.829 1.664,-1.623 3.406,-3.185 5.315,-4.57 1.376,0.399 3.368,0.938 4.744,1.333 -4.289,2.858 -7.857,6.543 -10.835,10.532 -2.047,2.961 -3.155,6.399 -4.285,9.703 -0.596,1.261 -0.866,2.068 -1.986,3.719 -0.688,0.866 -2.03,1.8 -3.134,0.697 -1.11,-0.966 -0.791,-2.5 -1.112,-3.753 -0.499,-2.413 -1.529,-4.989 -3.839,-6.435 -0.861,-0.518 0.204,0.104 -1.748,-1.125 0.871,-1.049 1.124,-2.027 1.682,-2.992 z"/></g></svg>